<ttFont>
    <TTGlyph name="A" xMin="-11" yMin="0" xMax="485" yMax="639">
      <contour>
        <pt x="435" y="0" on="1"/>
        <pt x="429" y="53" on="1"/>
        <pt x="400" y="195" on="1"/>
        <pt x="258" y="196" on="1"/>
        <pt x="129" y="195" on="1"/>
        <pt x="61" y="55" on="1"/>
        <pt x="39" y="0" on="1"/>
        <pt x="-11" y="0" on="1"/>
        <pt x="300" y="639" on="1"/>
        <pt x="355" y="639" on="1"/>
        <pt x="485" y="0" on="1"/>
      </contour>
      <contour>
        <pt x="321" y="582" on="1"/>
        <pt x="317" y="582" on="1"/>
        <pt x="150" y="238" on="1"/>
        <pt x="268" y="236" on="1"/>
        <pt x="391" y="238" on="1"/>
      </contour>
    </TTGlyph>
    <TTGlyph name="AE" xMin="-42" yMin="0" xMax="713" yMax="639">
      <contour>
        <pt x="703" y="0" on="1"/>
        <pt x="395" y="0" on="1"/>
        <pt x="397" y="53" on="1"/>
        <pt x="391" y="276" on="1"/>
        <pt x="151" y="228" on="1"/>
        <pt x="40" y="55" on="1"/>
        <pt x="10" y="0" on="1"/>
        <pt x="-42" y="0" on="1"/>
        <pt x="371" y="639" on="1"/>
        <pt x="690" y="639" on="1"/>
        <pt x="694" y="633" on="1"/>
        <pt x="683" y="595" on="1"/>
        <pt x="529" y="597" on="1"/>
        <pt x="431" y="597" on="1"/>
        <pt x="437" y="325" on="1"/>
        <pt x="656" y="367" on="1"/>
        <pt x="659" y="362" on="1"/>
        <pt x="656" y="326" on="1"/>
        <pt x="438" y="286" on="1"/>
        <pt x="443" y="41" on="1"/>
        <pt x="555" y="41" on="1"/>
        <pt x="710" y="44" on="1"/>
        <pt x="713" y="38" on="1"/>
      </contour>
      <contour>
        <pt x="384" y="581" on="1"/>
        <pt x="379" y="581" on="1"/>
        <pt x="182" y="275" on="1"/>
        <pt x="391" y="316" on="1"/>
      </contour>
    </TTGlyph>
    <TTGlyph name="AEacute" xMin="-42" yMin="0" xMax="713" yMax="849">
      <component glyphName="AE" x="0" y="0" flags="0x1000"/>
      <component glyphName="acute.cap" x="308" y="184" flags="0x1000"/>
    </TTGlyph>
    <TTGlyph name="Aacute" xMin="-11" yMin="0" xMax="485" yMax="849">
      <component glyphName="A" x="0" y="0" flags="0x1000"/>
      <component glyphName="acute.cap" x="112" y="184" flags="0x1000"/>
    </TTGlyph>
    <TTGlyph name="Abreve" xMin="-11" yMin="0" xMax="485" yMax="827">
      <component glyphName="A" x="0" y="0" flags="0x1000"/>
      <component glyphName="breve.cap" x="98" y="184" flags="0x1000"/>
    </TTGlyph>
    <TTGlyph name="Abreveacute" xMin="-11" yMin="0" xMax="485" yMax="921">
      <component glyphName="A" x="0" y="0" flags="0x1000"/>
      <component glyphName="breveacute" x="102" y="184" flags="0x1000"/>
    </TTGlyph>
    <TTGlyph name="Abrevedotbelow" xMin="-11" yMin="-145" xMax="485" yMax="827">
      <contour>
        <pt x="292" y="727" on="0"/>
        <pt x="236" y="769" on="0"/>
        <pt x="229" y="808" on="1"/>
        <pt x="248" y="827" on="1"/>
        <pt x="257" y="827" on="1"/>
        <pt x="268" y="764" on="0"/>
        <pt x="336" y="764" on="1"/>
        <pt x="403" y="764" on="0"/>
        <pt x="431" y="827" on="1"/>
        <pt x="439" y="827" on="1"/>
        <pt x="454" y="808" on="1"/>
        <pt x="418" y="727" on="0"/>
        <pt x="335" y="727" on="1"/>
      </contour>
      <contour>
        <pt x="435" y="0" on="1"/>
        <pt x="429" y="53" on="1"/>
        <pt x="400" y="195" on="1"/>
        <pt x="258" y="196" on="1"/>
        <pt x="129" y="195" on="1"/>
        <pt x="61" y="55" on="1"/>
        <pt x="39" y="0" on="1"/>
        <pt x="-11" y="0" on="1"/>
        <pt x="300" y="639" on="1"/>
        <pt x="355" y="639" on="1"/>
        <pt x="485" y="0" on="1"/>
      </contour>
      <contour>
        <pt x="321" y="582" on="1"/>
        <pt x="317" y="582" on="1"/>
        <pt x="150" y="238" on="1"/>
        <pt x="268" y="236" on="1"/>
        <pt x="391" y="238" on="1"/>
      </contour>
      <contour>
        <pt x="239" y="-80" on="0"/>
        <pt x="256" y="-97" on="0"/>
        <pt x="256" y="-111" on="1"/>
        <pt x="256" y="-126" on="0"/>
        <pt x="238" y="-145" on="0"/>
        <pt x="223" y="-145" on="1"/>
        <pt x="209" y="-145" on="0"/>
        <pt x="192" y="-127" on="0"/>
        <pt x="192" y="-113" on="1"/>
        <pt x="192" y="-80" on="0"/>
        <pt x="225" y="-80" on="1"/>
      </contour>
    </TTGlyph>
    <TTGlyph name="Abrevegrave" xMin="-11" yMin="0" xMax="485" yMax="921">
      <component glyphName="A" x="0" y="0" flags="0x1000"/>
      <component glyphName="brevegrave" x="102" y="184" flags="0x1000"/>
    </TTGlyph>
    <TTGlyph name="Abrevehookabove" xMin="-11" yMin="0" xMax="485" yMax="964">
      <component glyphName="A" x="0" y="0" flags="0x1000"/>
      <component glyphName="brevehookabove" x="102" y="184" flags="0x1000"/>
    </TTGlyph>
    <TTGlyph name="Abrevetilde" xMin="-11" yMin="0" xMax="498" yMax="936">
      <component glyphName="A" x="0" y="0" flags="0x1000"/>
      <component glyphName="brevetilde" x="102" y="184" flags="0x1000"/>
    </TTGlyph>
    <TTGlyph name="Acaron" xMin="-11" yMin="0" xMax="485" yMax="833">
      <component glyphName="A" x="0" y="0" flags="0x1000"/>
      <component glyphName="caron.cap" x="98" y="184" flags="0x1000"/>
    </TTGlyph>
    <TTGlyph name="Acircumflex" xMin="-11" yMin="0" xMax="485" yMax="841">
      <component glyphName="A" x="0" y="0" flags="0x1000"/>
      <component glyphName="circumflex.cap" x="105" y="184" flags="0x1000"/>
    </TTGlyph>
    <TTGlyph name="Acircumflexacute" xMin="-11" yMin="0" xMax="488" yMax="920">
      <component glyphName="A" x="0" y="0" flags="0x1000"/>
      <component glyphName="circumflexacute" x="102" y="184" flags="0x1000"/>
    </TTGlyph>
    <TTGlyph name="Acircumflexdotbelow" xMin="-11" yMin="-145" xMax="485" yMax="841">
      <contour>
        <pt x="225" y="758" on="1"/>
        <pt x="281" y="793" on="0"/>
        <pt x="341" y="841" on="1"/>
        <pt x="360" y="841" on="1"/>
        <pt x="403" y="801" on="0"/>
        <pt x="459" y="758" on="1"/>
        <pt x="445" y="735" on="1"/>
        <pt x="438" y="735" on="1"/>
        <pt x="392" y="767" on="0"/>
        <pt x="348" y="803" on="1"/>
        <pt x="300" y="770" on="0"/>
        <pt x="241" y="735" on="1"/>
        <pt x="234" y="735" on="1"/>
      </contour>
      <contour>
        <pt x="435" y="0" on="1"/>
        <pt x="429" y="53" on="1"/>
        <pt x="400" y="195" on="1"/>
        <pt x="258" y="196" on="1"/>
        <pt x="129" y="195" on="1"/>
        <pt x="61" y="55" on="1"/>
        <pt x="39" y="0" on="1"/>
        <pt x="-11" y="0" on="1"/>
        <pt x="300" y="639" on="1"/>
        <pt x="355" y="639" on="1"/>
        <pt x="485" y="0" on="1"/>
      </contour>
      <contour>
        <pt x="321" y="582" on="1"/>
        <pt x="317" y="582" on="1"/>
        <pt x="150" y="238" on="1"/>
        <pt x="268" y="236" on="1"/>
        <pt x="391" y="238" on="1"/>
      </contour>
      <contour>
        <pt x="239" y="-80" on="0"/>
        <pt x="256" y="-97" on="0"/>
        <pt x="256" y="-111" on="1"/>
        <pt x="256" y="-126" on="0"/>
        <pt x="238" y="-145" on="0"/>
        <pt x="223" y="-145" on="1"/>
        <pt x="209" y="-145" on="0"/>
        <pt x="192" y="-127" on="0"/>
        <pt x="192" y="-113" on="1"/>
        <pt x="192" y="-80" on="0"/>
        <pt x="225" y="-80" on="1"/>
      </contour>
    </TTGlyph>
    <TTGlyph name="Acircumflexgrave" xMin="-11" yMin="0" xMax="485" yMax="920">
      <component glyphName="A" x="0" y="0" flags="0x1000"/>
      <component glyphName="circumflexgrave" x="102" y="184" flags="0x1000"/>
    </TTGlyph>
    <TTGlyph name="Acircumflexhookabove" xMin="-11" yMin="0" xMax="485" yMax="953">
      <component glyphName="A" x="0" y="0" flags="0x1000"/>
      <component glyphName="circumflexhookabove" x="102" y="184" flags="0x1000"/>
    </TTGlyph>
    <TTGlyph name="Acircumflextilde" xMin="-11" yMin="0" xMax="509" yMax="936">
      <component glyphName="A" x="0" y="0" flags="0x1000"/>
      <component glyphName="circumflextilde" x="111" y="184" flags="0x1000"/>
    </TTGlyph>
    <TTGlyph name="Adieresis" xMin="-11" yMin="0" xMax="485" yMax="817">
      <component glyphName="A" x="0" y="0" flags="0x1000"/>
      <component glyphName="dieresis" x="102" y="184" flags="0x1000"/>
    </TTGlyph>
    <TTGlyph name="Adotbelow" xMin="-11" yMin="-145" xMax="485" yMax="639">
      <component glyphName="A" x="0" y="0" flags="0x1000"/>
      <component glyphName="dotbelowcomb" x="71" y="0" flags="0x1000"/>
    </TTGlyph>
    <TTGlyph name="Agrave" xMin="-11" yMin="0" xMax="485" yMax="850">
      <component glyphName="A" x="0" y="0" flags="0x1000"/>
      <component glyphName="grave.cap" x="102" y="184" flags="0x1000"/>
    </TTGlyph>
    <TTGlyph name="Ahookabove" xMin="-11" yMin="0" xMax="485" yMax="878">
      <component glyphName="A" x="0" y="0" flags="0x1000"/>
      <component glyphName="hookabove" x="74" y="184" flags="0x1000"/>
    </TTGlyph>
    <TTGlyph name="Amacron" xMin="-11" yMin="0" xMax="489" yMax="804">
      <component glyphName="A" x="0" y="0" flags="0x1000"/>
      <component glyphName="macron" x="102" y="184" flags="0x1000"/>
    </TTGlyph>
    <TTGlyph name="Aogonek" xMin="-11" yMin="-196" xMax="485" yMax="639">
      <contour>
        <pt x="483" y="-142" on="1"/>
        <pt x="444" y="-196" on="0"/>
        <pt x="401" y="-196" on="1"/>
        <pt x="377" y="-196" on="0"/>
        <pt x="344" y="-168" on="0"/>
        <pt x="344" y="-140" on="1"/>
        <pt x="344" y="-117" on="0"/>
        <pt x="378" y="-59" on="0"/>
        <pt x="435" y="0" on="1"/>
        <pt x="429" y="53" on="1"/>
        <pt x="400" y="195" on="1"/>
        <pt x="258" y="196" on="1"/>
        <pt x="129" y="195" on="1"/>
        <pt x="61" y="55" on="1"/>
        <pt x="39" y="0" on="1"/>
        <pt x="-11" y="0" on="1"/>
        <pt x="300" y="639" on="1"/>
        <pt x="355" y="639" on="1"/>
        <pt x="485" y="0" on="1"/>
        <pt x="476" y="0" on="1"/>
        <pt x="420" y="-56" on="0"/>
        <pt x="381" y="-110" on="0"/>
        <pt x="381" y="-131" on="1"/>
        <pt x="381" y="-160" on="0"/>
        <pt x="409" y="-160" on="1"/>
        <pt x="440" y="-160" on="0"/>
        <pt x="475" y="-112" on="1"/>
        <pt x="478" y="-112" on="1"/>
      </contour>
      <contour>
        <pt x="321" y="582" on="1"/>
        <pt x="317" y="582" on="1"/>
        <pt x="150" y="238" on="1"/>
        <pt x="268" y="236" on="1"/>
        <pt x="391" y="238" on="1"/>
      </contour>
    </TTGlyph>
    <TTGlyph name="Aring" xMin="-11" yMin="0" xMax="485" yMax="866">
      <component glyphName="A" x="0" y="0" flags="0x1000"/>
      <component glyphName="ring" x="102" y="184" flags="0x1000"/>
    </TTGlyph>
    <TTGlyph name="Aringacute" xMin="-10" yMin="0" xMax="486" yMax="874">
      <contour>
        <pt x="254" y="808" on="1"/>
        <pt x="347" y="835" on="0"/>
        <pt x="451" y="874" on="1"/>
        <pt x="458" y="871" on="1"/>
        <pt x="466" y="841" on="1"/>
        <pt x="463" y="835" on="1"/>
        <pt x="433" y="825" on="0"/>
        <pt x="314" y="791" on="1"/>
        <pt x="266" y="777" on="1"/>
        <pt x="260" y="782" on="1"/>
      </contour>
      <contour>
        <pt x="436" y="0" on="1"/>
        <pt x="429" y="52" on="1"/>
        <pt x="400" y="194" on="1"/>
        <pt x="258" y="195" on="1"/>
        <pt x="130" y="194" on="1"/>
        <pt x="61" y="54" on="1"/>
        <pt x="40" y="0" on="1"/>
        <pt x="-10" y="0" on="1"/>
        <pt x="294" y="617" on="1"/>
        <pt x="256" y="636" on="0"/>
        <pt x="256" y="684" on="1"/>
        <pt x="256" y="717" on="0"/>
        <pt x="297" y="759" on="0"/>
        <pt x="332" y="759" on="1"/>
        <pt x="368" y="759" on="0"/>
        <pt x="409" y="716" on="0"/>
        <pt x="409" y="684" on="1"/>
        <pt x="409" y="657" on="0"/>
        <pt x="381" y="620" on="0"/>
        <pt x="359" y="613" on="1"/>
        <pt x="486" y="0" on="1"/>
      </contour>
      <contour>
        <pt x="309" y="730" on="0"/>
        <pt x="284" y="705" on="0"/>
        <pt x="284" y="684" on="1"/>
        <pt x="284" y="662" on="0"/>
        <pt x="311" y="637" on="0"/>
        <pt x="332" y="637" on="1"/>
        <pt x="353" y="637" on="0"/>
        <pt x="380" y="661" on="0"/>
        <pt x="380" y="683" on="1"/>
        <pt x="380" y="704" on="0"/>
        <pt x="355" y="730" on="0"/>
        <pt x="332" y="730" on="1"/>
      </contour>
      <contour>
        <pt x="322" y="579" on="1"/>
        <pt x="318" y="579" on="1"/>
        <pt x="150" y="237" on="1"/>
        <pt x="268" y="236" on="1"/>
        <pt x="391" y="237" on="1"/>
      </contour>
    </TTGlyph>
    <TTGlyph name="Atilde" xMin="-11" yMin="0" xMax="490" yMax="832">
      <component glyphName="A" x="0" y="0" flags="0x1000"/>
      <component glyphName="tilde" x="102" y="184" flags="0x1000"/>
    </TTGlyph>
    <TTGlyph name="B" xMin="71" yMin="-3" xMax="447" yMax="640">
      <contour>
        <pt x="447" y="308" on="0"/>
        <pt x="447" y="199" on="1"/>
        <pt x="447" y="102" on="0"/>
        <pt x="316" y="-3" on="0"/>
        <pt x="192" y="-3" on="1"/>
        <pt x="123" y="-3" on="0"/>
        <pt x="72" y="0" on="1"/>
        <pt x="71" y="0" on="1"/>
        <pt x="99" y="194" on="1"/>
        <pt x="152" y="639" on="1"/>
        <pt x="293" y="640" on="1"/>
        <pt x="365" y="640" on="0"/>
        <pt x="443" y="573" on="0"/>
        <pt x="443" y="510" on="1"/>
        <pt x="443" y="446" on="0"/>
        <pt x="385" y="356" on="0"/>
        <pt x="331" y="334" on="1"/>
      </contour>
      <contour>
        <pt x="394" y="548" on="0"/>
        <pt x="339" y="598" on="0"/>
        <pt x="286" y="598" on="1"/>
        <pt x="196" y="598" on="1"/>
        <pt x="163" y="351" on="1"/>
        <pt x="276" y="349" on="1"/>
        <pt x="333" y="361" on="0"/>
        <pt x="394" y="440" on="0"/>
        <pt x="394" y="502" on="1"/>
      </contour>
      <contour>
        <pt x="294" y="38" on="0"/>
        <pt x="398" y="121" on="0"/>
        <pt x="398" y="196" on="1"/>
        <pt x="398" y="245" on="0"/>
        <pt x="338" y="303" on="0"/>
        <pt x="281" y="308" on="1"/>
        <pt x="158" y="308" on="1"/>
        <pt x="143" y="197" on="1"/>
        <pt x="125" y="41" on="1"/>
        <pt x="163" y="38" on="0"/>
        <pt x="199" y="38" on="1"/>
      </contour>
    </TTGlyph>
    <TTGlyph name="C" xMin="51" yMin="-6" xMax="517" yMax="644">
      <contour>
        <pt x="450" y="644" on="0"/>
        <pt x="517" y="590" on="1"/>
        <pt x="500" y="546" on="1"/>
        <pt x="492" y="545" on="1"/>
        <pt x="434" y="601" on="0"/>
        <pt x="349" y="601" on="1"/>
        <pt x="231" y="601" on="0"/>
        <pt x="101" y="421" on="0"/>
        <pt x="101" y="260" on="1"/>
        <pt x="101" y="152" on="0"/>
        <pt x="189" y="37" on="0"/>
        <pt x="272" y="37" on="1"/>
        <pt x="363" y="37" on="0"/>
        <pt x="446" y="101" on="1"/>
        <pt x="454" y="98" on="1"/>
        <pt x="444" y="52" on="1"/>
        <pt x="354" y="-6" on="0"/>
        <pt x="266" y="-6" on="1"/>
        <pt x="162" y="-6" on="0"/>
        <pt x="51" y="129" on="0"/>
        <pt x="51" y="253" on="1"/>
        <pt x="51" y="374" on="0"/>
        <pt x="123" y="550" on="0"/>
        <pt x="260" y="644" on="0"/>
        <pt x="355" y="644" on="1"/>
      </contour>
    </TTGlyph>
    <TTGlyph name="C.ss01" xMin="-124" yMin="0" xMax="566" yMax="494">
      <contour>
        <pt x="401" y="468" on="1"/>
        <pt x="412" y="462" on="0"/>
        <pt x="424" y="454" on="1"/>
        <pt x="409" y="413" on="1"/>
        <pt x="402" y="411" on="1"/>
        <pt x="356" y="455" on="0"/>
        <pt x="288" y="455" on="1"/>
        <pt x="197" y="455" on="0"/>
        <pt x="96" y="325" on="0"/>
        <pt x="96" y="206" on="1"/>
        <pt x="96" y="126" on="0"/>
        <pt x="166" y="40" on="0"/>
        <pt x="232" y="40" on="1"/>
        <pt x="266" y="40" on="0"/>
        <pt x="339" y="66" on="0"/>
        <pt x="369" y="88" on="1"/>
        <pt x="376" y="85" on="1"/>
        <pt x="367" y="44" on="1"/>
        <pt x="340" y="29" on="0"/>
        <pt x="335" y="27" on="1"/>
        <pt x="507" y="27" on="1"/>
        <pt x="504" y="0" on="1"/>
        <pt x="-124" y="0" on="1"/>
        <pt x="-121" y="27" on="1"/>
        <pt x="125" y="27" on="1"/>
        <pt x="50" y="74" on="0"/>
        <pt x="50" y="200" on="1"/>
        <pt x="50" y="299" on="0"/>
        <pt x="119" y="436" on="0"/>
        <pt x="184" y="468" on="1"/>
        <pt x="-65" y="468" on="1"/>
        <pt x="-62" y="494" on="1"/>
        <pt x="566" y="494" on="1"/>
        <pt x="563" y="468" on="1"/>
      </contour>
    </TTGlyph>
    <TTGlyph name="Cacute" xMin="51" yMin="-6" xMax="517" yMax="849">
      <component glyphName="C" x="0" y="0" flags="0x1000"/>
      <component glyphName="acute.cap" x="124" y="184" flags="0x1000"/>
    </TTGlyph>
    <TTGlyph name="Ccaron" xMin="51" yMin="-6" xMax="517" yMax="833">
      <component glyphName="C" x="0" y="0" flags="0x1000"/>
      <component glyphName="caron.cap" x="109" y="184" flags="0x1000"/>
    </TTGlyph>
    <TTGlyph name="Ccedilla" xMin="51" yMin="-185" xMax="517" yMax="644">
      <contour>
        <pt x="450" y="644" on="0"/>
        <pt x="517" y="590" on="1"/>
        <pt x="500" y="546" on="1"/>
        <pt x="493" y="545" on="1"/>
        <pt x="434" y="601" on="0"/>
        <pt x="350" y="601" on="1"/>
        <pt x="232" y="601" on="0"/>
        <pt x="101" y="421" on="0"/>
        <pt x="101" y="260" on="1"/>
        <pt x="101" y="152" on="0"/>
        <pt x="189" y="37" on="0"/>
        <pt x="272" y="37" on="1"/>
        <pt x="363" y="37" on="0"/>
        <pt x="446" y="101" on="1"/>
        <pt x="454" y="98" on="1"/>
        <pt x="444" y="52" on="1"/>
        <pt x="368" y="2" on="0"/>
        <pt x="293" y="-5" on="1"/>
        <pt x="278" y="-53" on="1"/>
        <pt x="310" y="-73" on="1"/>
        <pt x="346" y="-95" on="0"/>
        <pt x="346" y="-126" on="1"/>
        <pt x="346" y="-152" on="0"/>
        <pt x="306" y="-185" on="0"/>
        <pt x="276" y="-185" on="1"/>
        <pt x="236" y="-185" on="0"/>
        <pt x="210" y="-153" on="1"/>
        <pt x="217" y="-125" on="1"/>
        <pt x="222" y="-124" on="1"/>
        <pt x="246" y="-155" on="0"/>
        <pt x="274" y="-155" on="1"/>
        <pt x="310" y="-155" on="0"/>
        <pt x="310" y="-125" on="1"/>
        <pt x="310" y="-110" on="0"/>
        <pt x="288" y="-96" on="1"/>
        <pt x="242" y="-67" on="1"/>
        <pt x="260" y="-6" on="1"/>
        <pt x="159" y="-4" on="0"/>
        <pt x="51" y="131" on="0"/>
        <pt x="51" y="253" on="1"/>
        <pt x="51" y="374" on="0"/>
        <pt x="123" y="550" on="0"/>
        <pt x="260" y="644" on="0"/>
        <pt x="355" y="644" on="1"/>
      </contour>
    </TTGlyph>
    <TTGlyph name="Ccircumflex" xMin="51" yMin="-6" xMax="517" yMax="841">
      <component glyphName="C" x="0" y="0" flags="0x1000"/>
      <component glyphName="circumflex.cap" x="117" y="184" flags="0x1000"/>
    </TTGlyph>
    <TTGlyph name="Cdotaccent" xMin="51" yMin="-6" xMax="517" yMax="830">
      <component glyphName="C" x="0" y="0" flags="0x1000"/>
      <component glyphName="dotaccent" x="113" y="184" flags="0x1000"/>
    </TTGlyph>
    <TTGlyph name="D" xMin="71" yMin="-5" xMax="589" yMax="643">
      <contour>
        <pt x="467" y="643" on="0"/>
        <pt x="589" y="513" on="0"/>
        <pt x="589" y="394" on="1"/>
        <pt x="589" y="272" on="0"/>
        <pt x="513" y="92" on="0"/>
        <pt x="366" y="-5" on="0"/>
        <pt x="263" y="-5" on="1"/>
        <pt x="189" y="-5" on="0"/>
        <pt x="72" y="0" on="1"/>
        <pt x="71" y="0" on="1"/>
        <pt x="99" y="194" on="1"/>
        <pt x="152" y="639" on="1"/>
        <pt x="354" y="643" on="1"/>
      </contour>
      <contour>
        <pt x="398" y="36" on="0"/>
        <pt x="539" y="220" on="0"/>
        <pt x="539" y="385" on="1"/>
        <pt x="539" y="491" on="0"/>
        <pt x="442" y="601" on="0"/>
        <pt x="349" y="601" on="1"/>
        <pt x="269" y="601" on="0"/>
        <pt x="195" y="597" on="1"/>
        <pt x="143" y="197" on="1"/>
        <pt x="125" y="42" on="1"/>
        <pt x="215" y="36" on="0"/>
        <pt x="272" y="36" on="1"/>
      </contour>
    </TTGlyph>
    <TTGlyph name="D.ss01" xMin="-124" yMin="0" xMax="660" yMax="494">
      <contour>
        <pt x="403" y="468" on="1"/>
        <pt x="486" y="423" on="0"/>
        <pt x="486" y="300" on="1"/>
        <pt x="486" y="201" on="0"/>
        <pt x="415" y="60" on="0"/>
        <pt x="348" y="27" on="1"/>
        <pt x="601" y="27" on="1"/>
        <pt x="598" y="0" on="1"/>
        <pt x="-124" y="0" on="1"/>
        <pt x="-121" y="27" on="1"/>
        <pt x="73" y="27" on="1"/>
        <pt x="89" y="151" on="1"/>
        <pt x="129" y="468" on="1"/>
        <pt x="-65" y="468" on="1"/>
        <pt x="-62" y="494" on="1"/>
        <pt x="660" y="494" on="1"/>
        <pt x="657" y="468" on="1"/>
      </contour>
      <contour>
        <pt x="440" y="371" on="0"/>
        <pt x="364" y="452" on="0"/>
        <pt x="290" y="452" on="1"/>
        <pt x="169" y="449" on="1"/>
        <pt x="132" y="155" on="1"/>
        <pt x="119" y="43" on="1"/>
        <pt x="171" y="38" on="0"/>
        <pt x="234" y="38" on="1"/>
        <pt x="332" y="38" on="0"/>
        <pt x="440" y="171" on="0"/>
        <pt x="440" y="292" on="1"/>
      </contour>
    </TTGlyph>
    <TTGlyph name="Dcaron" xMin="71" yMin="-5" xMax="589" yMax="833">
      <component glyphName="D" x="0" y="0" flags="0x1000"/>
      <component glyphName="caron.cap" x="106" y="184" flags="0x1000"/>
    </TTGlyph>
    <TTGlyph name="Dcroat" xMin="71" yMin="-5" xMax="589" yMax="804">
      <component glyphName="D" x="0" y="0" flags="0x1000"/>
      <component glyphName="macron" x="110" y="184" flags="0x1000"/>
    </TTGlyph>
    <TTGlyph name="Delta" xMin="-11" yMin="0" xMax="485" yMax="639">
      <contour>
        <pt x="-11" y="0" on="1"/>
        <pt x="300" y="639" on="1"/>
        <pt x="354" y="639" on="1"/>
        <pt x="485" y="0" on="1"/>
      </contour>
      <contour>
        <pt x="55" y="42" on="1"/>
        <pt x="430" y="42" on="1"/>
        <pt x="322" y="582" on="1"/>
        <pt x="317" y="582" on="1"/>
      </contour>
    </TTGlyph>
    <TTGlyph name="E" xMin="71" yMin="0" xMax="471" yMax="639">
      <contour>
        <pt x="163" y="350" on="1"/>
        <pt x="281" y="349" on="1"/>
        <pt x="382" y="351" on="1"/>
        <pt x="386" y="345" on="1"/>
        <pt x="376" y="308" on="1"/>
        <pt x="271" y="309" on="1"/>
        <pt x="157" y="308" on="1"/>
        <pt x="143" y="197" on="1"/>
        <pt x="125" y="42" on="1"/>
        <pt x="248" y="41" on="1"/>
        <pt x="395" y="44" on="1"/>
        <pt x="398" y="38" on="1"/>
        <pt x="388" y="0" on="1"/>
        <pt x="71" y="0" on="1"/>
        <pt x="99" y="194" on="1"/>
        <pt x="152" y="639" on="1"/>
        <pt x="468" y="639" on="1"/>
        <pt x="471" y="633" on="1"/>
        <pt x="461" y="595" on="1"/>
        <pt x="321" y="597" on="1"/>
        <pt x="194" y="596" on="1"/>
      </contour>
    </TTGlyph>
    <TTGlyph name="Eacute" xMin="71" yMin="0" xMax="471" yMax="849">
      <component glyphName="E" x="0" y="0" flags="0x1000"/>
      <component glyphName="acute.cap" x="99" y="184" flags="0x1000"/>
    </TTGlyph>
    <TTGlyph name="Ebreve" xMin="71" yMin="0" xMax="471" yMax="827">
      <component glyphName="E" x="0" y="0" flags="0x1000"/>
      <component glyphName="breve.cap" x="84" y="184" flags="0x1000"/>
    </TTGlyph>
    <TTGlyph name="Ecaron" xMin="71" yMin="0" xMax="471" yMax="833">
      <component glyphName="E" x="0" y="0" flags="0x1000"/>
      <component glyphName="caron.cap" x="84" y="184" flags="0x1000"/>
    </TTGlyph>
    <TTGlyph name="Ecircumflex" xMin="71" yMin="0" xMax="471" yMax="841">
      <component glyphName="E" x="0" y="0" flags="0x1000"/>
      <component glyphName="circumflex.cap" x="92" y="184" flags="0x1000"/>
    </TTGlyph>
    <TTGlyph name="Ecircumflexacute" xMin="71" yMin="0" xMax="474" yMax="920">
      <component glyphName="E" x="0" y="0" flags="0x1000"/>
      <component glyphName="circumflexacute" x="88" y="184" flags="0x1000"/>
    </TTGlyph>
    <TTGlyph name="Ecircumflexdotbelow" xMin="71" yMin="-145" xMax="471" yMax="841">
      <component glyphName="E" x="0" y="0" flags="0x1000"/>
      <component glyphName="dotbelowcomb" x="93" y="0" flags="0x1000"/>
      <component glyphName="circumflex.cap" x="92" y="184" flags="0x1000"/>
    </TTGlyph>
    <TTGlyph name="Ecircumflexgrave" xMin="71" yMin="0" xMax="471" yMax="920">
      <component glyphName="E" x="0" y="0" flags="0x1000"/>
      <component glyphName="circumflexgrave" x="88" y="184" flags="0x1000"/>
    </TTGlyph>
    <TTGlyph name="Ecircumflexhookabove" xMin="71" yMin="0" xMax="471" yMax="953">
      <component glyphName="E" x="0" y="0" flags="0x1000"/>
      <component glyphName="circumflexhookabove" x="88" y="184" flags="0x1000"/>
    </TTGlyph>
    <TTGlyph name="Ecircumflextilde" xMin="71" yMin="0" xMax="471" yMax="920">
      <component glyphName="E" x="0" y="0" flags="0x1000"/>
      <component glyphName="circumflexgrave" x="88" y="184" flags="0x1000"/>
    </TTGlyph>
    <TTGlyph name="Edieresis" xMin="71" yMin="0" xMax="471" yMax="817">
      <component glyphName="E" x="0" y="0" flags="0x1000"/>
      <component glyphName="dieresis" x="88" y="184" flags="0x1000"/>
    </TTGlyph>
    <TTGlyph name="Edotaccent" xMin="71" yMin="0" xMax="471" yMax="830">
      <component glyphName="E" x="0" y="0" flags="0x1000"/>
      <component glyphName="dotaccent" x="88" y="184" flags="0x1000"/>
    </TTGlyph>
    <TTGlyph name="Edotbelow" xMin="71" yMin="-145" xMax="471" yMax="639">
      <component glyphName="E" x="0" y="0" flags="0x1000"/>
      <component glyphName="dotbelowcomb" x="93" y="0" flags="0x1000"/>
    </TTGlyph>
    <TTGlyph name="Egrave" xMin="71" yMin="0" xMax="471" yMax="850">
      <component glyphName="E" x="0" y="0" flags="0x1000"/>
      <component glyphName="grave.cap" x="88" y="184" flags="0x1000"/>
    </TTGlyph>
    <TTGlyph name="Ehookabove" xMin="71" yMin="0" xMax="471" yMax="878">
      <component glyphName="E" x="0" y="0" flags="0x1000"/>
      <component glyphName="hookabove" x="60" y="184" flags="0x1000"/>
    </TTGlyph>
    <TTGlyph name="Emacron" xMin="71" yMin="0" xMax="475" yMax="804">
      <component glyphName="E" x="0" y="0" flags="0x1000"/>
      <component glyphName="macron" x="88" y="184" flags="0x1000"/>
    </TTGlyph>
    <TTGlyph name="Eng" xMin="71" yMin="-152" xMax="603" yMax="640">
      <contour>
        <pt x="527" y="47" on="1"/>
        <pt x="519" y="-19" on="0"/>
        <pt x="443" y="-109" on="0"/>
        <pt x="359" y="-152" on="1"/>
        <pt x="342" y="-125" on="1"/>
        <pt x="343" y="-117" on="1"/>
        <pt x="398" y="-86" on="0"/>
        <pt x="458" y="-31" on="0"/>
        <pt x="471" y="3" on="1"/>
        <pt x="189" y="556" on="1"/>
        <pt x="184" y="556" on="1"/>
        <pt x="141" y="205" on="1"/>
        <pt x="118" y="0" on="1"/>
        <pt x="71" y="0" on="1"/>
        <pt x="97" y="190" on="1"/>
        <pt x="151" y="639" on="1"/>
        <pt x="201" y="639" on="1"/>
        <pt x="483" y="83" on="1"/>
        <pt x="488" y="83" on="1"/>
        <pt x="556" y="636" on="1"/>
        <pt x="603" y="640" on="1"/>
        <pt x="543" y="182" on="1"/>
      </contour>
    </TTGlyph>
    <TTGlyph name="Eogonek" xMin="71" yMin="-197" xMax="471" yMax="639">
      <contour>
        <pt x="163" y="350" on="1"/>
        <pt x="281" y="349" on="1"/>
        <pt x="382" y="351" on="1"/>
        <pt x="386" y="345" on="1"/>
        <pt x="376" y="308" on="1"/>
        <pt x="270" y="309" on="1"/>
        <pt x="157" y="308" on="1"/>
        <pt x="143" y="197" on="1"/>
        <pt x="124" y="42" on="1"/>
        <pt x="248" y="41" on="1"/>
        <pt x="395" y="44" on="1"/>
        <pt x="398" y="38" on="1"/>
        <pt x="388" y="0" on="1"/>
        <pt x="323" y="0" on="1"/>
        <pt x="279" y="-66" on="1"/>
        <pt x="260" y="-97" on="0"/>
        <pt x="260" y="-118" on="1"/>
        <pt x="260" y="-137" on="0"/>
        <pt x="283" y="-161" on="0"/>
        <pt x="303" y="-161" on="1"/>
        <pt x="342" y="-161" on="0"/>
        <pt x="378" y="-115" on="1"/>
        <pt x="381" y="-115" on="1"/>
        <pt x="392" y="-142" on="1"/>
        <pt x="346" y="-197" on="0"/>
        <pt x="297" y="-197" on="1"/>
        <pt x="264" y="-197" on="0"/>
        <pt x="225" y="-158" on="0"/>
        <pt x="225" y="-126" on="1"/>
        <pt x="225" y="-93" on="0"/>
        <pt x="248" y="-59" on="1"/>
        <pt x="288" y="0" on="1"/>
        <pt x="71" y="0" on="1"/>
        <pt x="98" y="194" on="1"/>
        <pt x="151" y="639" on="1"/>
        <pt x="469" y="639" on="1"/>
        <pt x="471" y="633" on="1"/>
        <pt x="462" y="595" on="1"/>
        <pt x="321" y="597" on="1"/>
        <pt x="194" y="596" on="1"/>
      </contour>
    </TTGlyph>
    <TTGlyph name="Eth" xMin="31" yMin="-5" xMax="611" yMax="643">
      <contour>
        <pt x="489" y="643" on="0"/>
        <pt x="611" y="513" on="0"/>
        <pt x="611" y="394" on="1"/>
        <pt x="611" y="272" on="0"/>
        <pt x="535" y="92" on="0"/>
        <pt x="388" y="-5" on="0"/>
        <pt x="285" y="-5" on="1"/>
        <pt x="212" y="-5" on="0"/>
        <pt x="94" y="0" on="1"/>
        <pt x="93" y="0" on="1"/>
        <pt x="120" y="194" on="1"/>
        <pt x="134" y="308" on="1"/>
        <pt x="33" y="308" on="1"/>
        <pt x="31" y="313" on="1"/>
        <pt x="35" y="345" on="1"/>
        <pt x="138" y="345" on="1"/>
        <pt x="174" y="639" on="1"/>
        <pt x="376" y="643" on="1"/>
      </contour>
      <contour>
        <pt x="420" y="36" on="0"/>
        <pt x="560" y="220" on="0"/>
        <pt x="560" y="385" on="1"/>
        <pt x="560" y="491" on="0"/>
        <pt x="464" y="601" on="0"/>
        <pt x="371" y="601" on="1"/>
        <pt x="294" y="601" on="0"/>
        <pt x="216" y="597" on="1"/>
        <pt x="183" y="345" on="1"/>
        <pt x="352" y="345" on="1"/>
        <pt x="354" y="341" on="1"/>
        <pt x="350" y="308" on="1"/>
        <pt x="179" y="308" on="1"/>
        <pt x="164" y="197" on="1"/>
        <pt x="146" y="42" on="1"/>
        <pt x="236" y="36" on="0"/>
        <pt x="294" y="36" on="1"/>
      </contour>
    </TTGlyph>
    <TTGlyph name="Etilde" xMin="71" yMin="0" xMax="476" yMax="832">
      <component glyphName="E" x="0" y="0" flags="0x1000"/>
      <component glyphName="tilde" x="88" y="184" flags="0x1000"/>
    </TTGlyph>
    <TTGlyph name="Euro" xMin="14" yMin="-5" xMax="484" yMax="497">
      <contour>
        <pt x="429" y="497" on="0"/>
        <pt x="484" y="457" on="1"/>
        <pt x="471" y="423" on="1"/>
        <pt x="464" y="422" on="1"/>
        <pt x="416" y="461" on="0"/>
        <pt x="346" y="461" on="1"/>
        <pt x="201" y="461" on="0"/>
        <pt x="157" y="314" on="1"/>
        <pt x="359" y="314" on="1"/>
        <pt x="362" y="310" on="1"/>
        <pt x="356" y="281" on="1"/>
        <pt x="148" y="281" on="1"/>
        <pt x="139" y="239" on="0"/>
        <pt x="139" y="195" on="1"/>
        <pt x="345" y="195" on="1"/>
        <pt x="347" y="191" on="1"/>
        <pt x="341" y="163" on="1"/>
        <pt x="141" y="163" on="1"/>
        <pt x="148" y="99" on="0"/>
        <pt x="220" y="32" on="0"/>
        <pt x="284" y="32" on="1"/>
        <pt x="360" y="32" on="0"/>
        <pt x="427" y="77" on="1"/>
        <pt x="434" y="74" on="1"/>
        <pt x="426" y="40" on="1"/>
        <pt x="353" y="-5" on="0"/>
        <pt x="278" y="-5" on="1"/>
        <pt x="194" y="-5" on="0"/>
        <pt x="101" y="82" on="0"/>
        <pt x="96" y="163" on="1"/>
        <pt x="17" y="163" on="1"/>
        <pt x="14" y="167" on="1"/>
        <pt x="21" y="195" on="1"/>
        <pt x="96" y="195" on="1"/>
        <pt x="98" y="239" on="0"/>
        <pt x="105" y="281" on="1"/>
        <pt x="31" y="281" on="1"/>
        <pt x="29" y="285" on="1"/>
        <pt x="35" y="314" on="1"/>
        <pt x="113" y="314" on="1"/>
        <pt x="140" y="403" on="0"/>
        <pt x="261" y="497" on="0"/>
        <pt x="351" y="497" on="1"/>
      </contour>
    </TTGlyph>
    <TTGlyph name="F" xMin="71" yMin="0" xMax="458" yMax="639">
      <contour>
        <pt x="161" y="339" on="1"/>
        <pt x="272" y="338" on="1"/>
        <pt x="370" y="339" on="1"/>
        <pt x="373" y="334" on="1"/>
        <pt x="363" y="296" on="1"/>
        <pt x="261" y="298" on="1"/>
        <pt x="156" y="297" on="1"/>
        <pt x="143" y="197" on="1"/>
        <pt x="120" y="0" on="1"/>
        <pt x="71" y="0" on="1"/>
        <pt x="99" y="194" on="1"/>
        <pt x="152" y="639" on="1"/>
        <pt x="454" y="639" on="1"/>
        <pt x="458" y="633" on="1"/>
        <pt x="447" y="594" on="1"/>
        <pt x="312" y="597" on="1"/>
        <pt x="194" y="596" on="1"/>
      </contour>
    </TTGlyph>
    <TTGlyph name="G" xMin="50" yMin="-5" xMax="551" yMax="644">
      <contour>
        <pt x="470" y="644" on="0"/>
        <pt x="551" y="593" on="1"/>
        <pt x="534" y="548" on="1"/>
        <pt x="527" y="548" on="1"/>
        <pt x="449" y="601" on="0"/>
        <pt x="372" y="601" on="1"/>
        <pt x="241" y="601" on="0"/>
        <pt x="99" y="420" on="0"/>
        <pt x="99" y="253" on="1"/>
        <pt x="99" y="37" on="0"/>
        <pt x="280" y="37" on="1"/>
        <pt x="344" y="37" on="0"/>
        <pt x="433" y="64" on="1"/>
        <pt x="447" y="159" on="1"/>
        <pt x="456" y="243" on="1"/>
        <pt x="502" y="247" on="1"/>
        <pt x="492" y="164" on="1"/>
        <pt x="476" y="30" on="1"/>
        <pt x="414" y="11" on="0"/>
        <pt x="328" y="-5" on="0"/>
        <pt x="278" y="-5" on="1"/>
        <pt x="167" y="-5" on="0"/>
        <pt x="50" y="127" on="0"/>
        <pt x="50" y="249" on="1"/>
        <pt x="50" y="373" on="0"/>
        <pt x="128" y="551" on="0"/>
        <pt x="276" y="644" on="0"/>
        <pt x="380" y="644" on="1"/>
      </contour>
    </TTGlyph>
    <TTGlyph name="Gbreve" xMin="50" yMin="-5" xMax="551" yMax="827">
      <component glyphName="G" x="0" y="0" flags="0x1000"/>
      <component glyphName="breve.cap" x="121" y="184" flags="0x1000"/>
    </TTGlyph>
    <TTGlyph name="Gcircumflex" xMin="50" yMin="-5" xMax="551" yMax="841">
      <component glyphName="G" x="0" y="0" flags="0x1000"/>
      <component glyphName="circumflex.cap" x="128" y="184" flags="0x1000"/>
    </TTGlyph>
    <TTGlyph name="Gcommaaccent" xMin="50" yMin="-226" xMax="551" yMax="644">
      <component glyphName="G" x="0" y="0" flags="0x1000"/>
      <component glyphName="commaaccentcomb" x="151" y="2" flags="0x1000"/>
    </TTGlyph>
    <TTGlyph name="Gdieresis" xMin="50" yMin="-5" xMax="551" yMax="817">
      <component glyphName="G" x="0" y="0" flags="0x1000"/>
      <component glyphName="dieresis" x="125" y="184" flags="0x1000"/>
    </TTGlyph>
    <TTGlyph name="Gdotaccent" xMin="50" yMin="-5" xMax="551" yMax="830">
      <component glyphName="G" x="0" y="0" flags="0x1000"/>
      <component glyphName="dotaccent" x="125" y="184" flags="0x1000"/>
    </TTGlyph>
    <TTGlyph name="Gtilde" xMin="50" yMin="-5" xMax="551" yMax="832">
      <component glyphName="G" x="0" y="0" flags="0x1000"/>
      <component glyphName="tilde" x="125" y="184" flags="0x1000"/>
    </TTGlyph>
    <TTGlyph name="H" xMin="71" yMin="0" xMax="600" yMax="639">
      <contour>
        <pt x="543" y="197" on="1"/>
        <pt x="520" y="0" on="1"/>
        <pt x="472" y="0" on="1"/>
        <pt x="498" y="194" on="1"/>
        <pt x="511" y="302" on="1"/>
        <pt x="326" y="304" on="1"/>
        <pt x="157" y="302" on="1"/>
        <pt x="143" y="197" on="1"/>
        <pt x="120" y="0" on="1"/>
        <pt x="71" y="0" on="1"/>
        <pt x="98" y="194" on="1"/>
        <pt x="151" y="639" on="1"/>
        <pt x="200" y="639" on="1"/>
        <pt x="162" y="346" on="1"/>
        <pt x="337" y="344" on="1"/>
        <pt x="516" y="346" on="1"/>
        <pt x="551" y="639" on="1"/>
        <pt x="600" y="639" on="1"/>
      </contour>
    </TTGlyph>
    <TTGlyph name="Hbar" xMin="80" yMin="0" xMax="659" yMax="639">
      <contour>
        <pt x="590" y="481" on="1"/>
        <pt x="553" y="197" on="1"/>
        <pt x="530" y="0" on="1"/>
        <pt x="482" y="0" on="1"/>
        <pt x="509" y="194" on="1"/>
        <pt x="522" y="302" on="1"/>
        <pt x="337" y="304" on="1"/>
        <pt x="167" y="302" on="1"/>
        <pt x="153" y="197" on="1"/>
        <pt x="130" y="0" on="1"/>
        <pt x="82" y="0" on="1"/>
        <pt x="108" y="194" on="1"/>
        <pt x="143" y="481" on="1"/>
        <pt x="83" y="481" on="1"/>
        <pt x="80" y="485" on="1"/>
        <pt x="83" y="518" on="1"/>
        <pt x="147" y="518" on="1"/>
        <pt x="162" y="639" on="1"/>
        <pt x="210" y="639" on="1"/>
        <pt x="194" y="518" on="1"/>
        <pt x="548" y="518" on="1"/>
        <pt x="562" y="639" on="1"/>
        <pt x="610" y="639" on="1"/>
        <pt x="594" y="518" on="1"/>
        <pt x="655" y="518" on="1"/>
        <pt x="659" y="514" on="1"/>
        <pt x="656" y="481" on="1"/>
      </contour>
      <contour>
        <pt x="190" y="481" on="1"/>
        <pt x="172" y="346" on="1"/>
        <pt x="347" y="344" on="1"/>
        <pt x="527" y="346" on="1"/>
        <pt x="543" y="481" on="1"/>
      </contour>
    </TTGlyph>
    <TTGlyph name="Hcircumflex" xMin="71" yMin="0" xMax="600" yMax="841">
      <component glyphName="H" x="0" y="0" flags="0x1000"/>
      <component glyphName="circumflex.cap" x="156" y="184" flags="0x1000"/>
    </TTGlyph>
    <TTGlyph name="I" xMin="71" yMin="0" xMax="200" yMax="639">
      <contour>
        <pt x="120" y="0" on="1"/>
        <pt x="71" y="0" on="1"/>
        <pt x="98" y="194" on="1"/>
        <pt x="151" y="639" on="1"/>
        <pt x="200" y="639" on="1"/>
        <pt x="143" y="197" on="1"/>
      </contour>
    </TTGlyph>
    <TTGlyph name="I.ss01" xMin="-124" yMin="0" xMax="362" yMax="494">
      <contour>
        <pt x="113" y="27" on="1"/>
        <pt x="303" y="27" on="1"/>
        <pt x="300" y="0" on="1"/>
        <pt x="-124" y="0" on="1"/>
        <pt x="-121" y="27" on="1"/>
        <pt x="68" y="27" on="1"/>
        <pt x="85" y="151" on="1"/>
        <pt x="123" y="468" on="1"/>
        <pt x="-65" y="468" on="1"/>
        <pt x="-62" y="494" on="1"/>
        <pt x="362" y="494" on="1"/>
        <pt x="359" y="468" on="1"/>
        <pt x="169" y="468" on="1"/>
        <pt x="128" y="154" on="1"/>
      </contour>
    </TTGlyph>
    <TTGlyph name="IJ" xMin="71" yMin="-100" xMax="474" yMax="639">
      <component glyphName="I" x="0" y="0" flags="0x1000"/>
      <component glyphName="J" x="247" y="0" flags="0x1000"/>
    </TTGlyph>
    <TTGlyph name="Iacute" xMin="71" yMin="0" xMax="304" yMax="849">
      <component glyphName="I" x="0" y="0" flags="0x1000"/>
      <component glyphName="acute.cap" x="-38" y="184" flags="0x1000"/>
    </TTGlyph>
    <TTGlyph name="Iacute_J.loclNLD" xMin="71" yMin="-100" xMax="528" yMax="849">
      <component glyphName="I" x="0" y="0" flags="0x1000"/>
      <component glyphName="acute.cap" x="-38" y="184" flags="0x1000"/>
      <component glyphName="J" x="247" y="0" flags="0x1000"/>
      <component glyphName="acute.cap" x="186" y="184" flags="0x1000"/>
    </TTGlyph>
    <TTGlyph name="Ibreve" xMin="71" yMin="0" xMax="304" yMax="827">
      <component glyphName="I" x="0" y="0" flags="0x1000"/>
      <component glyphName="breve.cap" x="-52" y="184" flags="0x1000"/>
    </TTGlyph>
    <TTGlyph name="Icaron" xMin="71" yMin="0" xMax="308" yMax="833">
      <component glyphName="I" x="0" y="0" flags="0x1000"/>
      <component glyphName="caron.cap" x="-52" y="184" flags="0x1000"/>
    </TTGlyph>
    <TTGlyph name="Icircumflex" xMin="71" yMin="0" xMax="310" yMax="841">
      <component glyphName="I" x="0" y="0" flags="0x1000"/>
      <component glyphName="circumflex.cap" x="-44" y="184" flags="0x1000"/>
    </TTGlyph>
    <TTGlyph name="Idieresis" xMin="71" yMin="0" xMax="280" yMax="816">
      <component glyphName="I" x="0" y="0" flags="0x1000"/>
      <component glyphName="dieresis.i" x="-48" y="184" flags="0x1000"/>
    </TTGlyph>
    <TTGlyph name="Idotaccent" xMin="71" yMin="0" xMax="225" yMax="830">
      <component glyphName="I" x="0" y="0" flags="0x1000"/>
      <component glyphName="dotaccent" x="-48" y="184" flags="0x1000"/>
    </TTGlyph>
    <TTGlyph name="Idotbelow" xMin="57" yMin="-145" xMax="200" yMax="639">
      <component glyphName="I" x="0" y="0" flags="0x1000"/>
      <component glyphName="dotbelowcomb" x="-64" y="0" flags="0x1000"/>
    </TTGlyph>
    <TTGlyph name="Igrave" xMin="71" yMin="0" xMax="294" yMax="850">
      <component glyphName="I" x="0" y="0" flags="0x1000"/>
      <component glyphName="grave.cap" x="-48" y="184" flags="0x1000"/>
    </TTGlyph>
    <TTGlyph name="Ihookabove" xMin="71" yMin="0" xMax="235" yMax="878">
      <component glyphName="I" x="0" y="0" flags="0x1000"/>
      <component glyphName="hookabove" x="-76" y="184" flags="0x1000"/>
    </TTGlyph>
    <TTGlyph name="Imacron" xMin="71" yMin="0" xMax="301" yMax="804">
      <component glyphName="I" x="0" y="0" flags="0x1000"/>
      <component glyphName="macron.i" x="-48" y="184" flags="0x1000"/>
    </TTGlyph>
    <TTGlyph name="Iogonek" xMin="-16" yMin="-197" xMax="199" yMax="639">
      <contour>
        <pt x="142" y="197" on="1"/>
        <pt x="119" y="0" on="1"/>
        <pt x="106" y="0" on="1"/>
        <pt x="57" y="-60" on="0"/>
        <pt x="19" y="-117" on="0"/>
        <pt x="19" y="-134" on="1"/>
        <pt x="19" y="-161" on="0"/>
        <pt x="46" y="-161" on="1"/>
        <pt x="76" y="-161" on="0"/>
        <pt x="99" y="-122" on="1"/>
        <pt x="102" y="-122" on="1"/>
        <pt x="114" y="-149" on="1"/>
        <pt x="80" y="-197" on="0"/>
        <pt x="39" y="-197" on="1"/>
        <pt x="14" y="-197" on="0"/>
        <pt x="-16" y="-165" on="0"/>
        <pt x="-16" y="-141" on="1"/>
        <pt x="-16" y="-118" on="0"/>
        <pt x="20" y="-60" on="0"/>
        <pt x="71" y="3" on="1"/>
        <pt x="98" y="194" on="1"/>
        <pt x="151" y="639" on="1"/>
        <pt x="199" y="639" on="1"/>
      </contour>
    </TTGlyph>
    <TTGlyph name="Itilde" xMin="61" yMin="0" xMax="323" yMax="829">
      <component glyphName="I" x="0" y="0" flags="0x1000"/>
      <component glyphName="tilde.i" x="-49" y="184" flags="0x1000"/>
    </TTGlyph>
    <TTGlyph name="J" xMin="-29" yMin="-100" xMax="227" yMax="639">
      <contour>
        <pt x="171" y="212" on="1"/>
        <pt x="160" y="116" on="1"/>
        <pt x="151" y="43" on="0"/>
        <pt x="73" y="-54" on="0"/>
        <pt x="-12" y="-100" on="1"/>
        <pt x="-29" y="-73" on="1"/>
        <pt x="-29" y="-65" on="1"/>
        <pt x="42" y="-26" on="0"/>
        <pt x="109" y="58" on="0"/>
        <pt x="116" y="117" on="1"/>
        <pt x="127" y="206" on="1"/>
        <pt x="173" y="598" on="1"/>
        <pt x="52" y="597" on="1"/>
        <pt x="46" y="603" on="1"/>
        <pt x="54" y="639" on="1"/>
        <pt x="227" y="639" on="1"/>
      </contour>
    </TTGlyph>
    <TTGlyph name="Jcircumflex" xMin="-29" yMin="-100" xMax="286" yMax="841">
      <component glyphName="J" x="0" y="0" flags="0x1000"/>
      <component glyphName="circumflex.cap" x="-68" y="184" flags="0x1000"/>
    </TTGlyph>
    <TTGlyph name="K" xMin="71" yMin="-8" xMax="535" yMax="639">
      <contour>
        <pt x="119" y="0" on="1"/>
        <pt x="71" y="0" on="1"/>
        <pt x="98" y="194" on="1"/>
        <pt x="152" y="639" on="1"/>
        <pt x="200" y="639" on="1"/>
        <pt x="143" y="197" on="1"/>
      </contour>
      <contour>
        <pt x="340" y="172" on="0"/>
        <pt x="471" y="11" on="1"/>
        <pt x="470" y="4" on="1"/>
        <pt x="454" y="-2" on="0"/>
        <pt x="426" y="-8" on="1"/>
        <pt x="420" y="-5" on="1"/>
        <pt x="284" y="170" on="0"/>
        <pt x="180" y="338" on="1"/>
        <pt x="181" y="342" on="1"/>
        <pt x="430" y="588" on="1"/>
        <pt x="476" y="639" on="1"/>
        <pt x="535" y="639" on="1"/>
        <pt x="235" y="339" on="1"/>
      </contour>
    </TTGlyph>
    <TTGlyph name="Kcommaaccent" xMin="71" yMin="-226" xMax="535" yMax="639">
      <component glyphName="K" x="0" y="0" flags="0x1000"/>
      <component glyphName="commaaccentcomb" x="108" y="2" flags="0x1000"/>
    </TTGlyph>
    <TTGlyph name="L" xMin="70" yMin="0" xMax="361" yMax="639">
      <contour>
        <pt x="352" y="0" on="1"/>
        <pt x="70" y="0" on="1"/>
        <pt x="97" y="194" on="1"/>
        <pt x="150" y="639" on="1"/>
        <pt x="198" y="639" on="1"/>
        <pt x="141" y="197" on="1"/>
        <pt x="123" y="42" on="1"/>
        <pt x="358" y="42" on="1"/>
        <pt x="361" y="37" on="1"/>
      </contour>
    </TTGlyph>
    <TTGlyph name="L.ss01" xMin="-124" yMin="0" xMax="486" yMax="494">
      <contour>
        <pt x="112" y="40" on="1"/>
        <pt x="278" y="40" on="1"/>
        <pt x="292" y="128" on="1"/>
        <pt x="327" y="130" on="1"/>
        <pt x="313" y="27" on="1"/>
        <pt x="427" y="27" on="1"/>
        <pt x="423" y="0" on="1"/>
        <pt x="-124" y="0" on="1"/>
        <pt x="-121" y="27" on="1"/>
        <pt x="67" y="27" on="1"/>
        <pt x="85" y="164" on="1"/>
        <pt x="122" y="468" on="1"/>
        <pt x="-65" y="468" on="1"/>
        <pt x="-62" y="494" on="1"/>
        <pt x="486" y="494" on="1"/>
        <pt x="483" y="468" on="1"/>
        <pt x="167" y="468" on="1"/>
        <pt x="128" y="167" on="1"/>
      </contour>
    </TTGlyph>
    <TTGlyph name="Lacute" xMin="70" yMin="0" xMax="361" yMax="849">
      <component glyphName="L" x="0" y="0" flags="0x1000"/>
      <component glyphName="acute.cap" x="-36" y="184" flags="0x1000"/>
    </TTGlyph>
    <TTGlyph name="Lcaron" xMin="70" yMin="0" xMax="403" yMax="639">
      <contour>
        <pt x="361" y="37" on="1"/>
        <pt x="352" y="0" on="1"/>
        <pt x="70" y="0" on="1"/>
        <pt x="97" y="194" on="1"/>
        <pt x="150" y="639" on="1"/>
        <pt x="199" y="639" on="1"/>
        <pt x="142" y="197" on="1"/>
        <pt x="123" y="42" on="1"/>
        <pt x="358" y="42" on="1"/>
      </contour>
      <contour>
        <pt x="367" y="417" on="1"/>
        <pt x="339" y="413" on="1"/>
        <pt x="335" y="418" on="1"/>
        <pt x="363" y="577" on="1"/>
        <pt x="400" y="580" on="1"/>
        <pt x="403" y="574" on="1"/>
      </contour>
    </TTGlyph>
    <TTGlyph name="Lcommaaccent" xMin="70" yMin="-226" xMax="361" yMax="639">
      <component glyphName="L" x="0" y="0" flags="0x1000"/>
      <component glyphName="commaaccentcomb" x="37" y="2" flags="0x1000"/>
    </TTGlyph>
    <TTGlyph name="Ldot" xMin="70" yMin="0" xMax="361" yMax="639">
      <component glyphName="L" x="0" y="0" flags="0x1000"/>
      <component glyphName="period" x="224" y="343" flags="0x1000"/>
    </TTGlyph>
    <TTGlyph name="Lslash" xMin="25" yMin="0" xMax="370" yMax="639">
      <contour>
        <pt x="360" y="0" on="1"/>
        <pt x="78" y="0" on="1"/>
        <pt x="105" y="194" on="1"/>
        <pt x="119" y="312" on="1"/>
        <pt x="37" y="269" on="1"/>
        <pt x="31" y="273" on="1"/>
        <pt x="25" y="304" on="1"/>
        <pt x="124" y="356" on="1"/>
        <pt x="158" y="639" on="1"/>
        <pt x="207" y="639" on="1"/>
        <pt x="174" y="382" on="1"/>
        <pt x="319" y="458" on="1"/>
        <pt x="325" y="455" on="1"/>
        <pt x="332" y="425" on="1"/>
        <pt x="168" y="338" on="1"/>
        <pt x="150" y="197" on="1"/>
        <pt x="131" y="42" on="1"/>
        <pt x="366" y="42" on="1"/>
        <pt x="370" y="37" on="1"/>
      </contour>
    </TTGlyph>
    <TTGlyph name="M" xMin="39" yMin="0" xMax="672" yMax="639">
      <contour>
        <pt x="608" y="0" on="1"/>
        <pt x="616" y="195" on="1"/>
        <pt x="624" y="554" on="1"/>
        <pt x="619" y="554" on="1"/>
        <pt x="374" y="78" on="1"/>
        <pt x="330" y="78" on="1"/>
        <pt x="211" y="554" on="1"/>
        <pt x="205" y="554" on="1"/>
        <pt x="125" y="198" on="1"/>
        <pt x="82" y="0" on="1"/>
        <pt x="39" y="0" on="1"/>
        <pt x="184" y="639" on="1"/>
        <pt x="239" y="639" on="1"/>
        <pt x="261" y="541" on="1"/>
        <pt x="359" y="142" on="1"/>
        <pt x="364" y="142" on="1"/>
        <pt x="573" y="549" on="1"/>
        <pt x="617" y="639" on="1"/>
        <pt x="672" y="639" on="1"/>
        <pt x="652" y="0" on="1"/>
      </contour>
    </TTGlyph>
    <TTGlyph name="M.ss01" xMin="-124" yMin="0" xMax="771" yMax="494">
      <contour>
        <pt x="537" y="27" on="1"/>
        <pt x="712" y="27" on="1"/>
        <pt x="709" y="0" on="1"/>
        <pt x="-124" y="0" on="1"/>
        <pt x="-121" y="27" on="1"/>
        <pt x="50" y="27" on="1"/>
        <pt x="153" y="468" on="1"/>
        <pt x="-65" y="468" on="1"/>
        <pt x="-62" y="494" on="1"/>
        <pt x="771" y="494" on="1"/>
        <pt x="768" y="468" on="1"/>
        <pt x="548" y="468" on="1"/>
      </contour>
      <contour>
        <pt x="214" y="468" on="1"/>
        <pt x="226" y="418" on="1"/>
        <pt x="306" y="139" on="1"/>
        <pt x="310" y="139" on="1"/>
        <pt x="466" y="423" on="1"/>
        <pt x="490" y="468" on="1"/>
      </contour>
      <contour>
        <pt x="504" y="160" on="1"/>
        <pt x="509" y="417" on="1"/>
        <pt x="504" y="417" on="1"/>
        <pt x="319" y="81" on="1"/>
        <pt x="280" y="81" on="1"/>
        <pt x="182" y="417" on="1"/>
        <pt x="179" y="417" on="1"/>
        <pt x="119" y="163" on="1"/>
        <pt x="89" y="27" on="1"/>
        <pt x="498" y="27" on="1"/>
      </contour>
    </TTGlyph>
    <TTGlyph name="N" xMin="71" yMin="0" xMax="600" yMax="640">
      <contour>
        <pt x="518" y="0" on="1"/>
        <pt x="469" y="0" on="1"/>
        <pt x="192" y="557" on="1"/>
        <pt x="186" y="557" on="1"/>
        <pt x="141" y="205" on="1"/>
        <pt x="117" y="0" on="1"/>
        <pt x="71" y="0" on="1"/>
        <pt x="98" y="190" on="1"/>
        <pt x="153" y="639" on="1"/>
        <pt x="202" y="639" on="1"/>
        <pt x="479" y="82" on="1"/>
        <pt x="484" y="82" on="1"/>
        <pt x="554" y="636" on="1"/>
        <pt x="600" y="640" on="1"/>
        <pt x="540" y="182" on="1"/>
      </contour>
    </TTGlyph>
    <TTGlyph name="Nacute" xMin="71" yMin="0" xMax="600" yMax="849">
      <component glyphName="N" x="0" y="0" flags="0x1000"/>
      <component glyphName="acute.cap" x="163" y="184" flags="0x1000"/>
    </TTGlyph>
    <TTGlyph name="Ncaron" xMin="71" yMin="0" xMax="600" yMax="833">
      <component glyphName="N" x="0" y="0" flags="0x1000"/>
      <component glyphName="caron.cap" x="148" y="184" flags="0x1000"/>
    </TTGlyph>
    <TTGlyph name="Ncommaaccent" xMin="71" yMin="-226" xMax="600" yMax="640">
      <component glyphName="N" x="0" y="0" flags="0x1000"/>
      <component glyphName="commaaccentcomb" x="133" y="2" flags="0x1000"/>
    </TTGlyph>
    <TTGlyph name="Ntilde" xMin="71" yMin="0" xMax="600" yMax="832">
      <component glyphName="N" x="0" y="0" flags="0x1000"/>
      <component glyphName="tilde" x="152" y="184" flags="0x1000"/>
    </TTGlyph>
    <TTGlyph name="O" xMin="51" yMin="-6" xMax="579" yMax="645">
      <contour>
        <pt x="464" y="645" on="0"/>
        <pt x="579" y="512" on="0"/>
        <pt x="579" y="391" on="1"/>
        <pt x="579" y="269" on="0"/>
        <pt x="507" y="90" on="0"/>
        <pt x="368" y="-6" on="0"/>
        <pt x="271" y="-6" on="1"/>
        <pt x="166" y="-6" on="0"/>
        <pt x="51" y="130" on="0"/>
        <pt x="51" y="254" on="1"/>
        <pt x="51" y="375" on="0"/>
        <pt x="123" y="551" on="0"/>
        <pt x="261" y="645" on="0"/>
        <pt x="358" y="645" on="1"/>
      </contour>
      <contour>
        <pt x="230" y="603" on="0"/>
        <pt x="101" y="422" on="0"/>
        <pt x="101" y="258" on="1"/>
        <pt x="101" y="150" on="0"/>
        <pt x="190" y="36" on="0"/>
        <pt x="275" y="36" on="1"/>
        <pt x="398" y="36" on="0"/>
        <pt x="529" y="219" on="0"/>
        <pt x="529" y="384" on="1"/>
        <pt x="529" y="492" on="0"/>
        <pt x="440" y="603" on="0"/>
        <pt x="353" y="603" on="1"/>
      </contour>
    </TTGlyph>
    <TTGlyph name="OE" xMin="51" yMin="-12" xMax="825" yMax="651">
      <contour>
        <pt x="421" y="651" on="0"/>
        <pt x="471" y="645" on="1"/>
        <pt x="519" y="639" on="0"/>
        <pt x="545" y="639" on="1"/>
        <pt x="821" y="639" on="1"/>
        <pt x="825" y="633" on="1"/>
        <pt x="815" y="595" on="1"/>
        <pt x="683" y="597" on="1"/>
        <pt x="548" y="597" on="1"/>
        <pt x="517" y="350" on="1"/>
        <pt x="627" y="349" on="1"/>
        <pt x="736" y="351" on="1"/>
        <pt x="739" y="345" on="1"/>
        <pt x="729" y="308" on="1"/>
        <pt x="618" y="309" on="1"/>
        <pt x="510" y="308" on="1"/>
        <pt x="496" y="191" on="1"/>
        <pt x="478" y="42" on="1"/>
        <pt x="601" y="41" on="1"/>
        <pt x="748" y="44" on="1"/>
        <pt x="752" y="38" on="1"/>
        <pt x="742" y="0" on="1"/>
        <pt x="465" y="0" on="1"/>
        <pt x="437" y="0" on="0"/>
        <pt x="379" y="-6" on="1"/>
        <pt x="323" y="-12" on="0"/>
        <pt x="298" y="-12" on="1"/>
        <pt x="180" y="-12" on="0"/>
        <pt x="51" y="132" on="0"/>
        <pt x="51" y="260" on="1"/>
        <pt x="51" y="379" on="0"/>
        <pt x="133" y="556" on="0"/>
        <pt x="289" y="651" on="0"/>
        <pt x="395" y="651" on="1"/>
      </contour>
      <contour>
        <pt x="250" y="609" on="0"/>
        <pt x="100" y="426" on="0"/>
        <pt x="100" y="264" on="1"/>
        <pt x="100" y="151" on="0"/>
        <pt x="206" y="30" on="0"/>
        <pt x="310" y="30" on="1"/>
        <pt x="364" y="30" on="0"/>
        <pt x="406" y="40" on="1"/>
        <pt x="422" y="44" on="0"/>
        <pt x="435" y="55" on="0"/>
        <pt x="437" y="69" on="1"/>
        <pt x="495" y="562" on="1"/>
        <pt x="496" y="570" on="0"/>
        <pt x="496" y="581" on="1"/>
        <pt x="496" y="594" on="0"/>
        <pt x="487" y="597" on="1"/>
        <pt x="442" y="609" on="0"/>
        <pt x="386" y="609" on="1"/>
      </contour>
    </TTGlyph>
    <TTGlyph name="Oacute" xMin="51" yMin="-6" xMax="579" yMax="849">
      <component glyphName="O" x="0" y="0" flags="0x1000"/>
      <component glyphName="acute.cap" x="141" y="184" flags="0x1000"/>
    </TTGlyph>
    <TTGlyph name="Obreve" xMin="51" yMin="-6" xMax="579" yMax="827">
      <component glyphName="O" x="0" y="0" flags="0x1000"/>
      <component glyphName="breve.cap" x="127" y="184" flags="0x1000"/>
    </TTGlyph>
    <TTGlyph name="Ocaron" xMin="51" yMin="-6" xMax="579" yMax="833">
      <component glyphName="O" x="0" y="0" flags="0x1000"/>
      <component glyphName="caron.cap" x="127" y="184" flags="0x1000"/>
    </TTGlyph>
    <TTGlyph name="Ocircumflex" xMin="51" yMin="-6" xMax="579" yMax="841">
      <component glyphName="O" x="0" y="0" flags="0x1000"/>
      <component glyphName="circumflex.cap" x="135" y="184" flags="0x1000"/>
    </TTGlyph>
    <TTGlyph name="Ocircumflexacute" xMin="51" yMin="-6" xMax="579" yMax="920">
      <component glyphName="O" x="0" y="0" flags="0x1000"/>
      <component glyphName="circumflexacute" x="131" y="184" flags="0x1000"/>
    </TTGlyph>
    <TTGlyph name="Ocircumflexdotbelow" xMin="51" yMin="-145" xMax="579" yMax="841">
      <contour>
        <pt x="311" y="793" on="0"/>
        <pt x="371" y="841" on="1"/>
        <pt x="390" y="841" on="1"/>
        <pt x="433" y="801" on="0"/>
        <pt x="489" y="758" on="1"/>
        <pt x="475" y="735" on="1"/>
        <pt x="468" y="735" on="1"/>
        <pt x="422" y="767" on="0"/>
        <pt x="378" y="803" on="1"/>
        <pt x="330" y="770" on="0"/>
        <pt x="271" y="735" on="1"/>
        <pt x="264" y="735" on="1"/>
        <pt x="255" y="758" on="1"/>
      </contour>
      <contour>
        <pt x="464" y="645" on="0"/>
        <pt x="579" y="512" on="0"/>
        <pt x="579" y="391" on="1"/>
        <pt x="579" y="269" on="0"/>
        <pt x="507" y="90" on="0"/>
        <pt x="368" y="-6" on="0"/>
        <pt x="271" y="-6" on="1"/>
        <pt x="166" y="-6" on="0"/>
        <pt x="51" y="130" on="0"/>
        <pt x="51" y="254" on="1"/>
        <pt x="51" y="375" on="0"/>
        <pt x="122" y="551" on="0"/>
        <pt x="260" y="645" on="0"/>
        <pt x="357" y="645" on="1"/>
      </contour>
      <contour>
        <pt x="230" y="603" on="0"/>
        <pt x="101" y="422" on="0"/>
        <pt x="101" y="258" on="1"/>
        <pt x="101" y="150" on="0"/>
        <pt x="190" y="36" on="0"/>
        <pt x="275" y="36" on="1"/>
        <pt x="398" y="36" on="0"/>
        <pt x="529" y="219" on="0"/>
        <pt x="529" y="384" on="1"/>
        <pt x="529" y="492" on="0"/>
        <pt x="440" y="603" on="0"/>
        <pt x="353" y="603" on="1"/>
      </contour>
      <contour>
        <pt x="305" y="-80" on="0"/>
        <pt x="322" y="-97" on="0"/>
        <pt x="322" y="-111" on="1"/>
        <pt x="322" y="-126" on="0"/>
        <pt x="304" y="-145" on="0"/>
        <pt x="289" y="-145" on="1"/>
        <pt x="275" y="-145" on="0"/>
        <pt x="258" y="-127" on="0"/>
        <pt x="258" y="-113" on="1"/>
        <pt x="258" y="-80" on="0"/>
        <pt x="291" y="-80" on="1"/>
      </contour>
    </TTGlyph>
    <TTGlyph name="Ocircumflexgrave" xMin="51" yMin="-6" xMax="579" yMax="920">
      <component glyphName="O" x="0" y="0" flags="0x1000"/>
      <component glyphName="circumflexgrave" x="131" y="184" flags="0x1000"/>
    </TTGlyph>
    <TTGlyph name="Ocircumflexhookabove" xMin="51" yMin="-6" xMax="579" yMax="953">
      <component glyphName="O" x="0" y="0" flags="0x1000"/>
      <component glyphName="circumflexhookabove" x="131" y="184" flags="0x1000"/>
    </TTGlyph>
    <TTGlyph name="Ocircumflextilde" xMin="51" yMin="-6" xMax="579" yMax="936">
      <component glyphName="O" x="0" y="0" flags="0x1000"/>
      <component glyphName="circumflextilde" x="140" y="184" flags="0x1000"/>
    </TTGlyph>
    <TTGlyph name="Odieresis" xMin="51" yMin="-6" xMax="579" yMax="817">
      <component glyphName="O" x="0" y="0" flags="0x1000"/>
      <component glyphName="dieresis" x="131" y="184" flags="0x1000"/>
    </TTGlyph>
    <TTGlyph name="Odotbelow" xMin="51" yMin="-145" xMax="579" yMax="645">
      <component glyphName="O" x="0" y="0" flags="0x1000"/>
      <component glyphName="dotbelowcomb" x="137" y="0" flags="0x1000"/>
    </TTGlyph>
    <TTGlyph name="Ograve" xMin="51" yMin="-6" xMax="579" yMax="850">
      <component glyphName="O" x="0" y="0" flags="0x1000"/>
      <component glyphName="grave.cap" x="131" y="184" flags="0x1000"/>
    </TTGlyph>
    <TTGlyph name="Ohm" xMin="17" yMin="-2" xMax="636" yMax="645">
      <component glyphName="Omega" x="0" y="0" flags="0x1000"/>
    </TTGlyph>
    <TTGlyph name="Ohookabove" xMin="51" yMin="-6" xMax="579" yMax="878">
      <component glyphName="O" x="0" y="0" flags="0x1000"/>
      <component glyphName="hookabove" x="103" y="184" flags="0x1000"/>
    </TTGlyph>
    <TTGlyph name="Ohorn" xMin="51" yMin="-6" xMax="643" yMax="759">
      <contour>
        <pt x="620" y="759" on="0"/>
        <pt x="643" y="718" on="0"/>
        <pt x="643" y="689" on="1"/>
        <pt x="643" y="639" on="0"/>
        <pt x="573" y="581" on="0"/>
        <pt x="519" y="581" on="1"/>
        <pt x="578" y="515" on="0"/>
        <pt x="578" y="381" on="1"/>
        <pt x="578" y="267" on="0"/>
        <pt x="505" y="92" on="0"/>
        <pt x="367" y="-6" on="0"/>
        <pt x="272" y="-6" on="1"/>
        <pt x="51" y="-6" on="0"/>
        <pt x="51" y="266" on="1"/>
        <pt x="51" y="378" on="0"/>
        <pt x="124" y="550" on="0"/>
        <pt x="262" y="645" on="0"/>
        <pt x="358" y="645" on="1"/>
        <pt x="413" y="645" on="0"/>
        <pt x="466" y="624" on="1"/>
        <pt x="501" y="611" on="0"/>
        <pt x="522" y="611" on="1"/>
        <pt x="554" y="611" on="0"/>
        <pt x="602" y="647" on="0"/>
        <pt x="602" y="680" on="1"/>
        <pt x="602" y="713" on="0"/>
        <pt x="579" y="742" on="1"/>
        <pt x="581" y="748" on="1"/>
        <pt x="597" y="759" on="0"/>
        <pt x="607" y="759" on="1"/>
      </contour>
      <contour>
        <pt x="232" y="603" on="0"/>
        <pt x="100" y="422" on="0"/>
        <pt x="100" y="270" on="1"/>
        <pt x="100" y="151" on="0"/>
        <pt x="187" y="36" on="0"/>
        <pt x="277" y="36" on="1"/>
        <pt x="356" y="36" on="0"/>
        <pt x="470" y="120" on="0"/>
        <pt x="529" y="272" on="0"/>
        <pt x="529" y="372" on="1"/>
        <pt x="529" y="490" on="0"/>
        <pt x="441" y="603" on="0"/>
        <pt x="352" y="603" on="1"/>
      </contour>
    </TTGlyph>
    <TTGlyph name="Ohornacute" xMin="51" yMin="-6" xMax="643" yMax="849">
      <component glyphName="Ohorn" x="0" y="0" flags="0x1000"/>
      <component glyphName="acute.cap" x="141" y="184" flags="0x1000"/>
    </TTGlyph>
    <TTGlyph name="Ohorndotbelow" xMin="51" yMin="-145" xMax="643" yMax="759">
      <component glyphName="Ohorn" x="0" y="0" flags="0x1000"/>
      <component glyphName="dotbelowcomb" x="137" y="0" flags="0x1000"/>
    </TTGlyph>
    <TTGlyph name="Ohorngrave" xMin="51" yMin="-6" xMax="643" yMax="850">
      <component glyphName="Ohorn" x="0" y="0" flags="0x1000"/>
      <component glyphName="grave.cap" x="131" y="184" flags="0x1000"/>
    </TTGlyph>
    <TTGlyph name="Ohornhookabove" xMin="51" yMin="-6" xMax="643" yMax="878">
      <component glyphName="Ohorn" x="0" y="0" flags="0x1000"/>
      <component glyphName="hookabove" x="103" y="184" flags="0x1000"/>
    </TTGlyph>
    <TTGlyph name="Ohorntilde" xMin="51" yMin="-6" xMax="643" yMax="832">
      <component glyphName="Ohorn" x="0" y="0" flags="0x1000"/>
      <component glyphName="tilde" x="131" y="184" flags="0x1000"/>
    </TTGlyph>
    <TTGlyph name="Ohungarumlaut" xMin="51" yMin="-6" xMax="579" yMax="852">
      <component glyphName="O" x="0" y="0" flags="0x1000"/>
      <component glyphName="hungarumlaut.cap" x="131" y="184" flags="0x1000"/>
    </TTGlyph>
    <TTGlyph name="Omacron" xMin="51" yMin="-6" xMax="579" yMax="804">
      <component glyphName="O" x="0" y="0" flags="0x1000"/>
      <component glyphName="macron" x="131" y="184" flags="0x1000"/>
    </TTGlyph>
    <TTGlyph name="Omega" xMin="17" yMin="-2" xMax="636" yMax="645">
      <contour>
        <pt x="514" y="645" on="0"/>
        <pt x="632" y="513" on="0"/>
        <pt x="632" y="402" on="1"/>
        <pt x="632" y="296" on="0"/>
        <pt x="537" y="106" on="0"/>
        <pt x="450" y="43" on="1"/>
        <pt x="450" y="40" on="1"/>
        <pt x="558" y="40" on="1"/>
        <pt x="632" y="44" on="1"/>
        <pt x="636" y="39" on="1"/>
        <pt x="624" y="-2" on="1"/>
        <pt x="538" y="0" on="1"/>
        <pt x="419" y="0" on="1"/>
        <pt x="381" y="-1" on="1"/>
        <pt x="378" y="1" on="1"/>
        <pt x="383" y="40" on="1"/>
        <pt x="477" y="100" on="0"/>
        <pt x="582" y="290" on="0"/>
        <pt x="582" y="398" on="1"/>
        <pt x="582" y="494" on="0"/>
        <pt x="490" y="603" on="0"/>
        <pt x="400" y="603" on="1"/>
        <pt x="323" y="603" on="0"/>
        <pt x="212" y="529" on="0"/>
        <pt x="154" y="396" on="0"/>
        <pt x="154" y="309" on="1"/>
        <pt x="154" y="227" on="0"/>
        <pt x="216" y="84" on="0"/>
        <pt x="273" y="40" on="1"/>
        <pt x="269" y="1" on="1"/>
        <pt x="265" y="-1" on="1"/>
        <pt x="228" y="0" on="1"/>
        <pt x="98" y="0" on="1"/>
        <pt x="21" y="-2" on="1"/>
        <pt x="17" y="3" on="1"/>
        <pt x="29" y="43" on="1"/>
        <pt x="107" y="40" on="1"/>
        <pt x="207" y="40" on="1"/>
        <pt x="208" y="43" on="1"/>
        <pt x="158" y="88" on="0"/>
        <pt x="105" y="226" on="0"/>
        <pt x="105" y="306" on="1"/>
        <pt x="105" y="405" on="0"/>
        <pt x="175" y="559" on="0"/>
        <pt x="310" y="645" on="0"/>
        <pt x="403" y="645" on="1"/>
      </contour>
    </TTGlyph>
    <TTGlyph name="Oogonek" xMin="51" yMin="-197" xMax="579" yMax="645">
      <contour>
        <pt x="323" y="-97" on="0"/>
        <pt x="323" y="-118" on="1"/>
        <pt x="323" y="-137" on="0"/>
        <pt x="346" y="-161" on="0"/>
        <pt x="366" y="-161" on="1"/>
        <pt x="405" y="-161" on="0"/>
        <pt x="441" y="-115" on="1"/>
        <pt x="444" y="-115" on="1"/>
        <pt x="455" y="-142" on="1"/>
        <pt x="409" y="-197" on="0"/>
        <pt x="360" y="-197" on="1"/>
        <pt x="327" y="-197" on="0"/>
        <pt x="288" y="-158" on="0"/>
        <pt x="288" y="-126" on="1"/>
        <pt x="288" y="-93" on="0"/>
        <pt x="311" y="-59" on="1"/>
        <pt x="353" y="4" on="1"/>
        <pt x="317" y="-6" on="0"/>
        <pt x="271" y="-6" on="1"/>
        <pt x="166" y="-6" on="0"/>
        <pt x="51" y="130" on="0"/>
        <pt x="51" y="254" on="1"/>
        <pt x="51" y="375" on="0"/>
        <pt x="122" y="551" on="0"/>
        <pt x="260" y="645" on="0"/>
        <pt x="357" y="645" on="1"/>
        <pt x="464" y="645" on="0"/>
        <pt x="579" y="512" on="0"/>
        <pt x="579" y="391" on="1"/>
        <pt x="579" y="252" on="0"/>
        <pt x="486" y="60" on="0"/>
        <pt x="399" y="20" on="1"/>
        <pt x="342" y="-66" on="1"/>
      </contour>
      <contour>
        <pt x="101" y="150" on="0"/>
        <pt x="190" y="36" on="0"/>
        <pt x="275" y="36" on="1"/>
        <pt x="398" y="36" on="0"/>
        <pt x="529" y="219" on="0"/>
        <pt x="529" y="384" on="1"/>
        <pt x="529" y="491" on="0"/>
        <pt x="440" y="603" on="0"/>
        <pt x="353" y="603" on="1"/>
        <pt x="230" y="603" on="0"/>
        <pt x="101" y="422" on="0"/>
        <pt x="101" y="258" on="1"/>
      </contour>
    </TTGlyph>
    <TTGlyph name="Oslash" xMin="51" yMin="-94" xMax="579" yMax="716">
      <contour>
        <pt x="579" y="535" on="0"/>
        <pt x="579" y="391" on="1"/>
        <pt x="579" y="269" on="0"/>
        <pt x="507" y="90" on="0"/>
        <pt x="368" y="-6" on="0"/>
        <pt x="271" y="-6" on="1"/>
        <pt x="214" y="-6" on="0"/>
        <pt x="167" y="16" on="1"/>
        <pt x="105" y="-94" on="1"/>
        <pt x="75" y="-84" on="1"/>
        <pt x="73" y="-79" on="1"/>
        <pt x="137" y="35" on="1"/>
        <pt x="51" y="99" on="0"/>
        <pt x="51" y="254" on="1"/>
        <pt x="51" y="375" on="0"/>
        <pt x="122" y="551" on="0"/>
        <pt x="260" y="645" on="0"/>
        <pt x="357" y="645" on="1"/>
        <pt x="421" y="645" on="0"/>
        <pt x="468" y="621" on="1"/>
        <pt x="522" y="716" on="1"/>
        <pt x="552" y="706" on="1"/>
        <pt x="554" y="699" on="1"/>
        <pt x="498" y="601" on="1"/>
      </contour>
      <contour>
        <pt x="101" y="131" on="0"/>
        <pt x="161" y="76" on="1"/>
        <pt x="446" y="581" on="1"/>
        <pt x="405" y="603" on="0"/>
        <pt x="353" y="603" on="1"/>
        <pt x="230" y="603" on="0"/>
        <pt x="101" y="422" on="0"/>
        <pt x="101" y="258" on="1"/>
      </contour>
      <contour>
        <pt x="398" y="36" on="0"/>
        <pt x="529" y="219" on="0"/>
        <pt x="529" y="384" on="1"/>
        <pt x="529" y="504" on="0"/>
        <pt x="474" y="558" on="1"/>
        <pt x="190" y="55" on="1"/>
        <pt x="226" y="36" on="0"/>
        <pt x="275" y="36" on="1"/>
      </contour>
    </TTGlyph>
    <TTGlyph name="Oslashacute" xMin="51" yMin="-94" xMax="579" yMax="849">
      <component glyphName="Oslash" x="0" y="0" flags="0x1000"/>
      <component glyphName="acute.cap" x="141" y="184" flags="0x1000"/>
    </TTGlyph>
    <TTGlyph name="Otilde" xMin="51" yMin="-6" xMax="579" yMax="832">
      <component glyphName="O" x="0" y="0" flags="0x1000"/>
      <component glyphName="tilde" x="131" y="184" flags="0x1000"/>
    </TTGlyph>
    <TTGlyph name="P" xMin="71" yMin="0" xMax="469" yMax="640">
      <contour>
        <pt x="384" y="640" on="0"/>
        <pt x="469" y="559" on="0"/>
        <pt x="469" y="483" on="1"/>
        <pt x="469" y="371" on="0"/>
        <pt x="340" y="238" on="0"/>
        <pt x="226" y="238" on="1"/>
        <pt x="148" y="238" on="1"/>
        <pt x="143" y="197" on="1"/>
        <pt x="120" y="0" on="1"/>
        <pt x="71" y="0" on="1"/>
        <pt x="99" y="194" on="1"/>
        <pt x="152" y="639" on="1"/>
        <pt x="307" y="640" on="1"/>
      </contour>
      <contour>
        <pt x="336" y="287" on="0"/>
        <pt x="420" y="394" on="0"/>
        <pt x="420" y="475" on="1"/>
        <pt x="420" y="593" on="0"/>
        <pt x="301" y="599" on="1"/>
        <pt x="195" y="597" on="1"/>
        <pt x="154" y="280" on="1"/>
        <pt x="264" y="279" on="1"/>
      </contour>
    </TTGlyph>
    <TTGlyph name="Q" xMin="51" yMin="-187" xMax="668" yMax="645">
      <contour>
        <pt x="481" y="-118" on="0"/>
        <pt x="668" y="-147" on="1"/>
        <pt x="668" y="-155" on="1"/>
        <pt x="656" y="-175" on="0"/>
        <pt x="646" y="-185" on="1"/>
        <pt x="641" y="-187" on="1"/>
        <pt x="542" y="-170" on="0"/>
        <pt x="362" y="-76" on="0"/>
        <pt x="292" y="-5" on="1"/>
        <pt x="271" y="-6" on="1"/>
        <pt x="166" y="-6" on="0"/>
        <pt x="51" y="130" on="0"/>
        <pt x="51" y="254" on="1"/>
        <pt x="51" y="375" on="0"/>
        <pt x="123" y="551" on="0"/>
        <pt x="261" y="645" on="0"/>
        <pt x="358" y="645" on="1"/>
        <pt x="464" y="645" on="0"/>
        <pt x="579" y="512" on="0"/>
        <pt x="579" y="391" on="1"/>
        <pt x="579" y="230" on="0"/>
        <pt x="456" y="26" on="0"/>
        <pt x="342" y="1" on="1"/>
      </contour>
      <contour>
        <pt x="101" y="150" on="0"/>
        <pt x="190" y="36" on="0"/>
        <pt x="275" y="36" on="1"/>
        <pt x="398" y="36" on="0"/>
        <pt x="529" y="219" on="0"/>
        <pt x="529" y="384" on="1"/>
        <pt x="529" y="491" on="0"/>
        <pt x="440" y="603" on="0"/>
        <pt x="353" y="603" on="1"/>
        <pt x="230" y="603" on="0"/>
        <pt x="101" y="422" on="0"/>
        <pt x="101" y="258" on="1"/>
      </contour>
    </TTGlyph>
    <TTGlyph name="R" xMin="71" yMin="-8" xMax="470" yMax="640">
      <contour>
        <pt x="470" y="408" on="0"/>
        <pt x="386" y="290" on="0"/>
        <pt x="311" y="262" on="1"/>
        <pt x="372" y="129" on="0"/>
        <pt x="444" y="11" on="1"/>
        <pt x="442" y="5" on="1"/>
        <pt x="427" y="-3" on="0"/>
        <pt x="400" y="-8" on="1"/>
        <pt x="393" y="-4" on="1"/>
        <pt x="318" y="131" on="0"/>
        <pt x="268" y="251" on="1"/>
        <pt x="150" y="251" on="1"/>
        <pt x="143" y="197" on="1"/>
        <pt x="120" y="0" on="1"/>
        <pt x="71" y="0" on="1"/>
        <pt x="98" y="194" on="1"/>
        <pt x="152" y="639" on="1"/>
        <pt x="308" y="640" on="1"/>
        <pt x="386" y="640" on="0"/>
        <pt x="470" y="561" on="0"/>
        <pt x="470" y="488" on="1"/>
      </contour>
      <contour>
        <pt x="279" y="292" on="1"/>
        <pt x="347" y="312" on="0"/>
        <pt x="420" y="408" on="0"/>
        <pt x="420" y="481" on="1"/>
        <pt x="420" y="593" on="0"/>
        <pt x="301" y="599" on="1"/>
        <pt x="195" y="597" on="1"/>
        <pt x="155" y="294" on="1"/>
      </contour>
    </TTGlyph>
    <TTGlyph name="Racute" xMin="71" yMin="-8" xMax="470" yMax="866">
      <component glyphName="R" x="0" y="0" flags="0x1000"/>
      <component glyphName="acute" x="86" y="184" flags="0x1000"/>
    </TTGlyph>
    <TTGlyph name="Rcaron" xMin="71" yMin="-8" xMax="470" yMax="856">
      <component glyphName="R" x="0" y="0" flags="0x1000"/>
      <component glyphName="caron" x="77" y="184" flags="0x1000"/>
    </TTGlyph>
    <TTGlyph name="Rcommaaccent" xMin="71" yMin="-226" xMax="470" yMax="640">
      <component glyphName="R" x="0" y="0" flags="0x1000"/>
      <component glyphName="commaaccentcomb" x="64" y="2" flags="0x1000"/>
    </TTGlyph>
    <TTGlyph name="S" xMin="23" yMin="-5" xMax="419" yMax="643">
      <contour>
        <pt x="359" y="643" on="0"/>
        <pt x="419" y="613" on="1"/>
        <pt x="405" y="568" on="1"/>
        <pt x="395" y="565" on="1"/>
        <pt x="346" y="602" on="0"/>
        <pt x="284" y="602" on="1"/>
        <pt x="241" y="602" on="0"/>
        <pt x="175" y="566" on="0"/>
        <pt x="138" y="508" on="0"/>
        <pt x="138" y="477" on="1"/>
        <pt x="138" y="448" on="0"/>
        <pt x="168" y="403" on="0"/>
        <pt x="211" y="370" on="0"/>
        <pt x="250" y="346" on="1"/>
        <pt x="295" y="319" on="0"/>
        <pt x="347" y="278" on="0"/>
        <pt x="385" y="215" on="0"/>
        <pt x="385" y="173" on="1"/>
        <pt x="385" y="124" on="0"/>
        <pt x="330" y="42" on="0"/>
        <pt x="234" y="-5" on="0"/>
        <pt x="176" y="-5" on="1"/>
        <pt x="136" y="-5" on="0"/>
        <pt x="54" y="18" on="0"/>
        <pt x="23" y="40" on="1"/>
        <pt x="34" y="89" on="1"/>
        <pt x="43" y="92" on="1"/>
        <pt x="70" y="64" on="0"/>
        <pt x="144" y="36" on="0"/>
        <pt x="181" y="36" on="1"/>
        <pt x="225" y="36" on="0"/>
        <pt x="296" y="72" on="0"/>
        <pt x="336" y="131" on="0"/>
        <pt x="336" y="165" on="1"/>
        <pt x="336" y="196" on="0"/>
        <pt x="306" y="244" on="0"/>
        <pt x="261" y="278" on="0"/>
        <pt x="222" y="302" on="1"/>
        <pt x="179" y="328" on="0"/>
        <pt x="127" y="369" on="0"/>
        <pt x="91" y="430" on="0"/>
        <pt x="91" y="472" on="1"/>
        <pt x="91" y="519" on="0"/>
        <pt x="143" y="598" on="0"/>
        <pt x="235" y="643" on="0"/>
        <pt x="291" y="643" on="1"/>
      </contour>
    </TTGlyph>
    <TTGlyph name="Sacute" xMin="23" yMin="-5" xMax="419" yMax="866">
      <component glyphName="S" x="0" y="0" flags="0x1000"/>
      <component glyphName="acute" x="50" y="184" flags="0x1000"/>
    </TTGlyph>
    <TTGlyph name="Scaron" xMin="23" yMin="-5" xMax="419" yMax="856">
      <component glyphName="S" x="0" y="0" flags="0x1000"/>
      <component glyphName="caron" x="41" y="184" flags="0x1000"/>
    </TTGlyph>
    <TTGlyph name="Scedilla" xMin="23" yMin="-185" xMax="419" yMax="643">
      <contour>
        <pt x="359" y="643" on="0"/>
        <pt x="419" y="613" on="1"/>
        <pt x="405" y="568" on="1"/>
        <pt x="395" y="565" on="1"/>
        <pt x="346" y="602" on="0"/>
        <pt x="284" y="602" on="1"/>
        <pt x="241" y="602" on="0"/>
        <pt x="175" y="566" on="0"/>
        <pt x="138" y="508" on="0"/>
        <pt x="138" y="477" on="1"/>
        <pt x="138" y="448" on="0"/>
        <pt x="168" y="403" on="0"/>
        <pt x="210" y="370" on="0"/>
        <pt x="249" y="346" on="1"/>
        <pt x="293" y="319" on="0"/>
        <pt x="347" y="278" on="0"/>
        <pt x="384" y="215" on="0"/>
        <pt x="384" y="173" on="1"/>
        <pt x="384" y="127" on="0"/>
        <pt x="335" y="49" on="0"/>
        <pt x="249" y="0" on="0"/>
        <pt x="196" y="-4" on="1"/>
        <pt x="181" y="-53" on="1"/>
        <pt x="213" y="-73" on="1"/>
        <pt x="249" y="-95" on="0"/>
        <pt x="249" y="-126" on="1"/>
        <pt x="249" y="-152" on="0"/>
        <pt x="209" y="-185" on="0"/>
        <pt x="179" y="-185" on="1"/>
        <pt x="139" y="-185" on="0"/>
        <pt x="113" y="-153" on="1"/>
        <pt x="120" y="-125" on="1"/>
        <pt x="125" y="-124" on="1"/>
        <pt x="149" y="-155" on="0"/>
        <pt x="177" y="-155" on="1"/>
        <pt x="213" y="-155" on="0"/>
        <pt x="213" y="-125" on="1"/>
        <pt x="213" y="-110" on="0"/>
        <pt x="191" y="-96" on="1"/>
        <pt x="145" y="-67" on="1"/>
        <pt x="163" y="-5" on="1"/>
        <pt x="78" y="0" on="0"/>
        <pt x="23" y="40" on="1"/>
        <pt x="34" y="89" on="1"/>
        <pt x="42" y="92" on="1"/>
        <pt x="98" y="36" on="0"/>
        <pt x="181" y="36" on="1"/>
        <pt x="225" y="36" on="0"/>
        <pt x="296" y="72" on="0"/>
        <pt x="336" y="131" on="0"/>
        <pt x="336" y="165" on="1"/>
        <pt x="336" y="196" on="0"/>
        <pt x="305" y="244" on="0"/>
        <pt x="261" y="278" on="0"/>
        <pt x="222" y="302" on="1"/>
        <pt x="179" y="328" on="0"/>
        <pt x="127" y="369" on="0"/>
        <pt x="90" y="430" on="0"/>
        <pt x="90" y="472" on="1"/>
        <pt x="90" y="519" on="0"/>
        <pt x="143" y="598" on="0"/>
        <pt x="235" y="643" on="0"/>
        <pt x="291" y="643" on="1"/>
      </contour>
    </TTGlyph>
    <TTGlyph name="Scircumflex" xMin="23" yMin="-5" xMax="419" yMax="851">
      <component glyphName="S" x="0" y="0" flags="0x1000"/>
      <component glyphName="circumflex" x="54" y="184" flags="0x1000"/>
    </TTGlyph>
    <TTGlyph name="Scommaaccent" xMin="23" yMin="-226" xMax="419" yMax="643">
      <component glyphName="S" x="0" y="0" flags="0x1000"/>
      <component glyphName="commaaccentcomb" x="28" y="2" flags="0x1000"/>
    </TTGlyph>
    <TTGlyph name="T" xMin="71" yMin="0" xMax="486" yMax="639">
      <contour>
        <pt x="476" y="596" on="1"/>
        <pt x="376" y="598" on="1"/>
        <pt x="301" y="598" on="1"/>
        <pt x="248" y="197" on="1"/>
        <pt x="226" y="0" on="1"/>
        <pt x="178" y="0" on="1"/>
        <pt x="204" y="194" on="1"/>
        <pt x="252" y="598" on="1"/>
        <pt x="179" y="598" on="1"/>
        <pt x="75" y="596" on="1"/>
        <pt x="71" y="601" on="1"/>
        <pt x="82" y="639" on="1"/>
        <pt x="482" y="639" on="1"/>
        <pt x="486" y="633" on="1"/>
      </contour>
    </TTGlyph>
    <TTGlyph name="Tbar" xMin="71" yMin="0" xMax="485" yMax="639">
      <contour>
        <pt x="475" y="596" on="1"/>
        <pt x="376" y="598" on="1"/>
        <pt x="301" y="598" on="1"/>
        <pt x="269" y="348" on="1"/>
        <pt x="362" y="348" on="1"/>
        <pt x="367" y="344" on="1"/>
        <pt x="364" y="314" on="1"/>
        <pt x="264" y="314" on="1"/>
        <pt x="249" y="197" on="1"/>
        <pt x="226" y="0" on="1"/>
        <pt x="178" y="0" on="1"/>
        <pt x="205" y="194" on="1"/>
        <pt x="219" y="314" on="1"/>
        <pt x="127" y="314" on="1"/>
        <pt x="123" y="318" on="1"/>
        <pt x="126" y="348" on="1"/>
        <pt x="223" y="348" on="1"/>
        <pt x="253" y="598" on="1"/>
        <pt x="178" y="598" on="1"/>
        <pt x="75" y="596" on="1"/>
        <pt x="71" y="601" on="1"/>
        <pt x="81" y="639" on="1"/>
        <pt x="482" y="639" on="1"/>
        <pt x="485" y="633" on="1"/>
      </contour>
    </TTGlyph>
    <TTGlyph name="Tcaron" xMin="71" yMin="0" xMax="486" yMax="856">
      <component glyphName="T" x="0" y="0" flags="0x1000"/>
      <component glyphName="caron" x="51" y="184" flags="0x1000"/>
    </TTGlyph>
    <TTGlyph name="Tcedilla" xMin="71" yMin="-182" xMax="485" yMax="639">
      <contour>
        <pt x="475" y="596" on="1"/>
        <pt x="376" y="598" on="1"/>
        <pt x="301" y="598" on="1"/>
        <pt x="249" y="197" on="1"/>
        <pt x="226" y="0" on="1"/>
        <pt x="216" y="0" on="1"/>
        <pt x="201" y="-53" on="1"/>
        <pt x="230" y="-72" on="1"/>
        <pt x="263" y="-95" on="0"/>
        <pt x="263" y="-124" on="1"/>
        <pt x="263" y="-150" on="0"/>
        <pt x="226" y="-182" on="0"/>
        <pt x="199" y="-182" on="1"/>
        <pt x="166" y="-182" on="0"/>
        <pt x="138" y="-150" on="1"/>
        <pt x="145" y="-124" on="1"/>
        <pt x="149" y="-123" on="1"/>
        <pt x="160" y="-139" on="0"/>
        <pt x="181" y="-154" on="0"/>
        <pt x="197" y="-154" on="1"/>
        <pt x="230" y="-154" on="0"/>
        <pt x="230" y="-124" on="1"/>
        <pt x="230" y="-106" on="0"/>
        <pt x="210" y="-94" on="1"/>
        <pt x="168" y="-66" on="1"/>
        <pt x="187" y="0" on="1"/>
        <pt x="178" y="0" on="1"/>
        <pt x="205" y="194" on="1"/>
        <pt x="253" y="598" on="1"/>
        <pt x="178" y="598" on="1"/>
        <pt x="75" y="596" on="1"/>
        <pt x="71" y="601" on="1"/>
        <pt x="81" y="639" on="1"/>
        <pt x="482" y="639" on="1"/>
        <pt x="485" y="633" on="1"/>
      </contour>
    </TTGlyph>
    <TTGlyph name="Thorn" xMin="72" yMin="0" xMax="456" yMax="639">
      <contour>
        <pt x="371" y="523" on="0"/>
        <pt x="456" y="442" on="0"/>
        <pt x="456" y="365" on="1"/>
        <pt x="456" y="253" on="0"/>
        <pt x="327" y="120" on="0"/>
        <pt x="213" y="120" on="1"/>
        <pt x="134" y="120" on="1"/>
        <pt x="120" y="0" on="1"/>
        <pt x="72" y="0" on="1"/>
        <pt x="98" y="194" on="1"/>
        <pt x="152" y="639" on="1"/>
        <pt x="200" y="639" on="1"/>
        <pt x="185" y="522" on="1"/>
        <pt x="294" y="523" on="1"/>
      </contour>
      <contour>
        <pt x="323" y="169" on="0"/>
        <pt x="407" y="277" on="0"/>
        <pt x="407" y="358" on="1"/>
        <pt x="407" y="475" on="0"/>
        <pt x="288" y="481" on="1"/>
        <pt x="179" y="479" on="1"/>
        <pt x="143" y="197" on="1"/>
        <pt x="139" y="163" on="1"/>
        <pt x="251" y="161" on="1"/>
      </contour>
    </TTGlyph>
    <TTGlyph name="U" xMin="75" yMin="-5" xMax="564" yMax="639">
      <contour>
        <pt x="513" y="235" on="1"/>
        <pt x="501" y="120" on="0"/>
        <pt x="375" y="-5" on="0"/>
        <pt x="269" y="-5" on="1"/>
        <pt x="177" y="-5" on="0"/>
        <pt x="75" y="90" on="0"/>
        <pt x="75" y="178" on="1"/>
        <pt x="75" y="207" on="0"/>
        <pt x="79" y="232" on="1"/>
        <pt x="92" y="322" on="1"/>
        <pt x="131" y="639" on="1"/>
        <pt x="178" y="639" on="1"/>
        <pt x="125" y="236" on="1"/>
        <pt x="122" y="212" on="0"/>
        <pt x="122" y="189" on="1"/>
        <pt x="122" y="115" on="0"/>
        <pt x="198" y="38" on="0"/>
        <pt x="271" y="38" on="1"/>
        <pt x="355" y="38" on="0"/>
        <pt x="456" y="137" on="0"/>
        <pt x="468" y="232" on="1"/>
        <pt x="516" y="639" on="1"/>
        <pt x="564" y="639" on="1"/>
        <pt x="522" y="313" on="1"/>
      </contour>
    </TTGlyph>
    <TTGlyph name="Uacute" xMin="75" yMin="-5" xMax="564" yMax="849">
      <component glyphName="U" x="0" y="0" flags="0x1000"/>
      <component glyphName="acute.cap" x="134" y="184" flags="0x1000"/>
    </TTGlyph>
    <TTGlyph name="Ubreve" xMin="75" yMin="-5" xMax="564" yMax="839">
      <component glyphName="U" x="0" y="0" flags="0x1000"/>
      <component glyphName="breve" x="118" y="184" flags="0x1000"/>
    </TTGlyph>
    <TTGlyph name="Ucaron" xMin="75" yMin="-5" xMax="564" yMax="856">
      <component glyphName="U" x="0" y="0" flags="0x1000"/>
      <component glyphName="caron" x="117" y="184" flags="0x1000"/>
    </TTGlyph>
    <TTGlyph name="Ucircumflex" xMin="75" yMin="-5" xMax="564" yMax="841">
      <component glyphName="U" x="0" y="0" flags="0x1000"/>
      <component glyphName="circumflex.cap" x="127" y="184" flags="0x1000"/>
    </TTGlyph>
    <TTGlyph name="Udieresis" xMin="75" yMin="-5" xMax="564" yMax="817">
      <component glyphName="U" x="0" y="0" flags="0x1000"/>
      <component glyphName="dieresis" x="124" y="184" flags="0x1000"/>
    </TTGlyph>
    <TTGlyph name="Udieresisacute" xMin="75" yMin="-5" xMax="564" yMax="947">
      <component glyphName="U" x="0" y="0" flags="0x1000"/>
      <component glyphName="dieresisacute" x="124" y="184" flags="0x1000"/>
    </TTGlyph>
    <TTGlyph name="Udieresiscaron" xMin="75" yMin="-5" xMax="564" yMax="929">
      <component glyphName="U" x="0" y="0" flags="0x1000"/>
      <component glyphName="dieresiscaron" x="124" y="184" flags="0x1000"/>
    </TTGlyph>
    <TTGlyph name="Udieresisgrave" xMin="75" yMin="-5" xMax="564" yMax="947">
      <component glyphName="U" x="0" y="0" flags="0x1000"/>
      <component glyphName="dieresisgrave" x="120" y="184" flags="0x1000"/>
    </TTGlyph>
    <TTGlyph name="Udieresismacron" xMin="75" yMin="-5" xMax="564" yMax="902">
      <component glyphName="U" x="0" y="0" flags="0x1000"/>
      <component glyphName="dieresismacron" x="124" y="184" flags="0x1000"/>
    </TTGlyph>
    <TTGlyph name="Udotbelow" xMin="75" yMin="-145" xMax="564" yMax="639">
      <component glyphName="U" x="0" y="0" flags="0x1000"/>
      <component glyphName="dotbelowcomb" x="118" y="0" flags="0x1000"/>
    </TTGlyph>
    <TTGlyph name="Ugrave" xMin="75" yMin="-5" xMax="564" yMax="850">
      <component glyphName="U" x="0" y="0" flags="0x1000"/>
      <component glyphName="grave.cap" x="124" y="184" flags="0x1000"/>
    </TTGlyph>
    <TTGlyph name="Uhookabove" xMin="75" yMin="-5" xMax="564" yMax="878">
      <component glyphName="U" x="0" y="0" flags="0x1000"/>
      <component glyphName="hookabove" x="96" y="184" flags="0x1000"/>
    </TTGlyph>
    <TTGlyph name="Uhorn" xMin="75" yMin="-5" xMax="639" yMax="768">
      <contour>
        <pt x="639" y="661" on="0"/>
        <pt x="597" y="616" on="0"/>
        <pt x="560" y="610" on="1"/>
        <pt x="522" y="313" on="1"/>
        <pt x="513" y="235" on="1"/>
        <pt x="501" y="120" on="0"/>
        <pt x="375" y="-5" on="0"/>
        <pt x="269" y="-5" on="1"/>
        <pt x="177" y="-5" on="0"/>
        <pt x="75" y="90" on="0"/>
        <pt x="75" y="178" on="1"/>
        <pt x="75" y="207" on="0"/>
        <pt x="79" y="232" on="1"/>
        <pt x="92" y="322" on="1"/>
        <pt x="131" y="639" on="1"/>
        <pt x="178" y="639" on="1"/>
        <pt x="125" y="236" on="1"/>
        <pt x="122" y="212" on="0"/>
        <pt x="122" y="189" on="1"/>
        <pt x="122" y="115" on="0"/>
        <pt x="198" y="38" on="0"/>
        <pt x="271" y="38" on="1"/>
        <pt x="355" y="38" on="0"/>
        <pt x="456" y="137" on="0"/>
        <pt x="468" y="232" on="1"/>
        <pt x="516" y="639" on="1"/>
        <pt x="536" y="639" on="1"/>
        <pt x="566" y="639" on="0"/>
        <pt x="600" y="666" on="0"/>
        <pt x="600" y="691" on="1"/>
        <pt x="600" y="719" on="0"/>
        <pt x="569" y="751" on="1"/>
        <pt x="572" y="758" on="1"/>
        <pt x="585" y="768" on="0"/>
        <pt x="596" y="768" on="1"/>
        <pt x="604" y="768" on="0"/>
        <pt x="625" y="748" on="0"/>
        <pt x="639" y="713" on="0"/>
        <pt x="639" y="693" on="1"/>
      </contour>
    </TTGlyph>
    <TTGlyph name="Uhornacute" xMin="75" yMin="-5" xMax="639" yMax="849">
      <component glyphName="Uhorn" x="0" y="0" flags="0x1000"/>
      <component glyphName="acute.cap" x="128" y="184" flags="0x1000"/>
    </TTGlyph>
    <TTGlyph name="Uhorndotbelow" xMin="75" yMin="-146" xMax="639" yMax="768">
      <component glyphName="Uhorn" x="0" y="0" flags="0x1000"/>
      <component glyphName="dotbelowcomb" x="107" y="-1" flags="0x1000"/>
    </TTGlyph>
    <TTGlyph name="Uhorngrave" xMin="75" yMin="-5" xMax="639" yMax="850">
      <component glyphName="Uhorn" x="0" y="0" flags="0x1000"/>
      <component glyphName="grave.cap" x="117" y="184" flags="0x1000"/>
    </TTGlyph>
    <TTGlyph name="Uhornhookabove" xMin="75" yMin="-5" xMax="639" yMax="878">
      <component glyphName="Uhorn" x="0" y="0" flags="0x1000"/>
      <component glyphName="hookabove" x="90" y="184" flags="0x1000"/>
    </TTGlyph>
    <TTGlyph name="Uhorntilde" xMin="75" yMin="-5" xMax="639" yMax="832">
      <component glyphName="Uhorn" x="0" y="0" flags="0x1000"/>
      <component glyphName="tilde" x="118" y="184" flags="0x1000"/>
    </TTGlyph>
    <TTGlyph name="Uhungarumlaut" xMin="75" yMin="-5" xMax="564" yMax="852">
      <component glyphName="U" x="0" y="0" flags="0x1000"/>
      <component glyphName="hungarumlaut.cap" x="124" y="184" flags="0x1000"/>
    </TTGlyph>
    <TTGlyph name="Umacron" xMin="75" yMin="-5" xMax="564" yMax="804">
      <component glyphName="U" x="0" y="0" flags="0x1000"/>
      <component glyphName="macron" x="124" y="184" flags="0x1000"/>
    </TTGlyph>
    <TTGlyph name="Uogonek" xMin="75" yMin="-197" xMax="564" yMax="639">
      <contour>
        <pt x="522" y="313" on="1"/>
        <pt x="513" y="235" on="1"/>
        <pt x="498" y="85" on="0"/>
        <pt x="396" y="26" on="1"/>
        <pt x="338" y="-69" on="1"/>
        <pt x="320" y="-99" on="0"/>
        <pt x="320" y="-122" on="1"/>
        <pt x="320" y="-140" on="0"/>
        <pt x="340" y="-162" on="0"/>
        <pt x="358" y="-162" on="1"/>
        <pt x="376" y="-162" on="0"/>
        <pt x="415" y="-137" on="0"/>
        <pt x="430" y="-115" on="1"/>
        <pt x="434" y="-115" on="1"/>
        <pt x="445" y="-142" on="1"/>
        <pt x="400" y="-197" on="0"/>
        <pt x="353" y="-197" on="1"/>
        <pt x="322" y="-197" on="0"/>
        <pt x="286" y="-158" on="0"/>
        <pt x="286" y="-125" on="1"/>
        <pt x="286" y="-93" on="0"/>
        <pt x="307" y="-62" on="1"/>
        <pt x="350" y="6" on="1"/>
        <pt x="312" y="-5" on="0"/>
        <pt x="269" y="-5" on="1"/>
        <pt x="177" y="-5" on="0"/>
        <pt x="75" y="90" on="0"/>
        <pt x="75" y="178" on="1"/>
        <pt x="75" y="207" on="0"/>
        <pt x="79" y="232" on="1"/>
        <pt x="92" y="322" on="1"/>
        <pt x="131" y="639" on="1"/>
        <pt x="178" y="639" on="1"/>
        <pt x="125" y="236" on="1"/>
        <pt x="122" y="212" on="0"/>
        <pt x="122" y="189" on="1"/>
        <pt x="122" y="115" on="0"/>
        <pt x="198" y="38" on="0"/>
        <pt x="271" y="38" on="1"/>
        <pt x="355" y="38" on="0"/>
        <pt x="456" y="137" on="0"/>
        <pt x="468" y="232" on="1"/>
        <pt x="516" y="639" on="1"/>
        <pt x="564" y="639" on="1"/>
      </contour>
    </TTGlyph>
    <TTGlyph name="Uring" xMin="75" yMin="-5" xMax="564" yMax="866">
      <component glyphName="U" x="0" y="0" flags="0x1000"/>
      <component glyphName="ring" x="124" y="184" flags="0x1000"/>
    </TTGlyph>
    <TTGlyph name="Utilde" xMin="75" yMin="-5" xMax="564" yMax="832">
      <component glyphName="U" x="0" y="0" flags="0x1000"/>
      <component glyphName="tilde" x="124" y="184" flags="0x1000"/>
    </TTGlyph>
    <TTGlyph name="V" xMin="68" yMin="0" xMax="564" yMax="639">
      <contour>
        <pt x="200" y="0" on="1"/>
        <pt x="68" y="639" on="1"/>
        <pt x="118" y="639" on="1"/>
        <pt x="125" y="585" on="1"/>
        <pt x="233" y="56" on="1"/>
        <pt x="237" y="56" on="1"/>
        <pt x="494" y="584" on="1"/>
        <pt x="515" y="639" on="1"/>
        <pt x="564" y="639" on="1"/>
        <pt x="255" y="0" on="1"/>
      </contour>
    </TTGlyph>
    <TTGlyph name="V.ss01" xMin="-124" yMin="0" xMax="591" yMax="494">
      <contour>
        <pt x="237" y="27" on="1"/>
        <pt x="532" y="27" on="1"/>
        <pt x="529" y="0" on="1"/>
        <pt x="-124" y="0" on="1"/>
        <pt x="-121" y="27" on="1"/>
        <pt x="169" y="27" on="1"/>
        <pt x="71" y="468" on="1"/>
        <pt x="-65" y="468" on="1"/>
        <pt x="-62" y="494" on="1"/>
        <pt x="591" y="494" on="1"/>
        <pt x="588" y="468" on="1"/>
        <pt x="461" y="468" on="1"/>
      </contour>
      <contour>
        <pt x="115" y="468" on="1"/>
        <pt x="118" y="446" on="1"/>
        <pt x="205" y="53" on="1"/>
        <pt x="208" y="53" on="1"/>
        <pt x="408" y="444" on="1"/>
        <pt x="417" y="468" on="1"/>
      </contour>
    </TTGlyph>
    <TTGlyph name="W" xMin="73" yMin="0" xMax="883" yMax="639">
      <contour>
        <pt x="527" y="0" on="1"/>
        <pt x="446" y="407" on="1"/>
        <pt x="441" y="407" on="1"/>
        <pt x="248" y="0" on="1"/>
        <pt x="197" y="0" on="1"/>
        <pt x="73" y="639" on="1"/>
        <pt x="122" y="639" on="1"/>
        <pt x="127" y="587" on="1"/>
        <pt x="230" y="59" on="1"/>
        <pt x="236" y="59" on="1"/>
        <pt x="432" y="475" on="1"/>
        <pt x="398" y="639" on="1"/>
        <pt x="448" y="639" on="1"/>
        <pt x="455" y="584" on="1"/>
        <pt x="558" y="59" on="1"/>
        <pt x="564" y="59" on="1"/>
        <pt x="815" y="585" on="1"/>
        <pt x="835" y="639" on="1"/>
        <pt x="883" y="639" on="1"/>
        <pt x="577" y="0" on="1"/>
      </contour>
    </TTGlyph>
    <TTGlyph name="Wacute" xMin="73" yMin="0" xMax="883" yMax="849">
      <component glyphName="W" x="0" y="0" flags="0x1000"/>
      <component glyphName="acute.cap" x="239" y="184" flags="0x1000"/>
    </TTGlyph>
    <TTGlyph name="Wcircumflex" xMin="73" yMin="0" xMax="883" yMax="841">
      <component glyphName="W" x="0" y="0" flags="0x1000"/>
      <component glyphName="circumflex.cap" x="232" y="184" flags="0x1000"/>
    </TTGlyph>
    <TTGlyph name="Wdieresis" xMin="73" yMin="0" xMax="883" yMax="817">
      <component glyphName="W" x="0" y="0" flags="0x1000"/>
      <component glyphName="dieresis" x="228" y="184" flags="0x1000"/>
    </TTGlyph>
    <TTGlyph name="Wgrave" xMin="73" yMin="0" xMax="883" yMax="850">
      <component glyphName="W" x="0" y="0" flags="0x1000"/>
      <component glyphName="grave.cap" x="228" y="184" flags="0x1000"/>
    </TTGlyph>
    <TTGlyph name="X" xMin="1" yMin="0" xMax="549" yMax="639">
      <contour>
        <pt x="482" y="0" on="1"/>
        <pt x="426" y="0" on="1"/>
        <pt x="408" y="44" on="1"/>
        <pt x="277" y="294" on="1"/>
        <pt x="83" y="41" on="1"/>
        <pt x="55" y="0" on="1"/>
        <pt x="1" y="0" on="1"/>
        <pt x="253" y="330" on="1"/>
        <pt x="95" y="639" on="1"/>
        <pt x="152" y="639" on="1"/>
        <pt x="169" y="596" on="1"/>
        <pt x="289" y="364" on="1"/>
        <pt x="465" y="594" on="1"/>
        <pt x="494" y="639" on="1"/>
        <pt x="549" y="639" on="1"/>
        <pt x="315" y="329" on="1"/>
      </contour>
    </TTGlyph>
    <TTGlyph name="X.ss01" xMin="-124" yMin="0" xMax="612" yMax="494">
      <contour>
        <pt x="396" y="27" on="1"/>
        <pt x="553" y="27" on="1"/>
        <pt x="550" y="0" on="1"/>
        <pt x="-124" y="0" on="1"/>
        <pt x="-121" y="27" on="1"/>
        <pt x="30" y="27" on="1"/>
        <pt x="214" y="253" on="1"/>
        <pt x="93" y="468" on="1"/>
        <pt x="-65" y="468" on="1"/>
        <pt x="-62" y="494" on="1"/>
        <pt x="612" y="494" on="1"/>
        <pt x="609" y="468" on="1"/>
        <pt x="441" y="468" on="1"/>
        <pt x="269" y="256" on="1"/>
      </contour>
      <contour>
        <pt x="382" y="452" on="1"/>
        <pt x="393" y="468" on="1"/>
        <pt x="145" y="468" on="1"/>
        <pt x="151" y="454" on="1"/>
        <pt x="247" y="285" on="1"/>
      </contour>
      <contour>
        <pt x="86" y="40" on="1"/>
        <pt x="77" y="27" on="1"/>
        <pt x="345" y="27" on="1"/>
        <pt x="337" y="43" on="1"/>
        <pt x="236" y="223" on="1"/>
      </contour>
    </TTGlyph>
    <TTGlyph name="Y" xMin="71" yMin="0" xMax="516" yMax="639">
      <contour>
        <pt x="251" y="191" on="1"/>
        <pt x="229" y="0" on="1"/>
        <pt x="181" y="0" on="1"/>
        <pt x="207" y="191" on="1"/>
        <pt x="213" y="238" on="1"/>
        <pt x="71" y="639" on="1"/>
        <pt x="124" y="639" on="1"/>
        <pt x="131" y="608" on="1"/>
        <pt x="240" y="296" on="1"/>
        <pt x="246" y="296" on="1"/>
        <pt x="446" y="607" on="1"/>
        <pt x="462" y="639" on="1"/>
        <pt x="516" y="639" on="1"/>
        <pt x="258" y="239" on="1"/>
      </contour>
    </TTGlyph>
    <TTGlyph name="Yacute" xMin="71" yMin="0" xMax="516" yMax="849">
      <component glyphName="Y" x="0" y="0" flags="0x1000"/>
      <component glyphName="acute.cap" x="82" y="184" flags="0x1000"/>
    </TTGlyph>
    <TTGlyph name="Ycircumflex" xMin="71" yMin="0" xMax="516" yMax="841">
      <component glyphName="Y" x="0" y="0" flags="0x1000"/>
      <component glyphName="circumflex.cap" x="75" y="184" flags="0x1000"/>
    </TTGlyph>
    <TTGlyph name="Ydieresis" xMin="71" yMin="0" xMax="516" yMax="817">
      <component glyphName="Y" x="0" y="0" flags="0x1000"/>
      <component glyphName="dieresis" x="72" y="184" flags="0x1000"/>
    </TTGlyph>
    <TTGlyph name="Ydotbelow" xMin="71" yMin="-145" xMax="516" yMax="639">
      <component glyphName="Y" x="0" y="0" flags="0x1000"/>
      <component glyphName="dotbelowcomb" x="43" y="0" flags="0x1000"/>
    </TTGlyph>
    <TTGlyph name="Ygrave" xMin="71" yMin="0" xMax="516" yMax="850">
      <component glyphName="Y" x="0" y="0" flags="0x1000"/>
      <component glyphName="grave.cap" x="71" y="184" flags="0x1000"/>
    </TTGlyph>
    <TTGlyph name="Yhookabove" xMin="71" yMin="0" xMax="516" yMax="878">
      <component glyphName="Y" x="0" y="0" flags="0x1000"/>
      <component glyphName="hookabove" x="44" y="184" flags="0x1000"/>
    </TTGlyph>
    <TTGlyph name="Ytilde" xMin="71" yMin="0" xMax="516" yMax="832">
      <component glyphName="Y" x="0" y="0" flags="0x1000"/>
      <component glyphName="tilde" x="72" y="184" flags="0x1000"/>
    </TTGlyph>
    <TTGlyph name="Z" xMin="4" yMin="-2" xMax="503" yMax="640">
      <contour>
        <pt x="68" y="41" on="1"/>
        <pt x="350" y="41" on="1"/>
        <pt x="427" y="45" on="1"/>
        <pt x="431" y="40" on="1"/>
        <pt x="421" y="-1" on="1"/>
        <pt x="332" y="0" on="1"/>
        <pt x="48" y="0" on="1"/>
        <pt x="4" y="-2" on="1"/>
        <pt x="9" y="35" on="1"/>
        <pt x="439" y="597" on="1"/>
        <pt x="171" y="597" on="1"/>
        <pt x="98" y="593" on="1"/>
        <pt x="94" y="599" on="1"/>
        <pt x="105" y="640" on="1"/>
        <pt x="187" y="639" on="1"/>
        <pt x="462" y="639" on="1"/>
        <pt x="503" y="640" on="1"/>
        <pt x="499" y="602" on="1"/>
      </contour>
    </TTGlyph>
    <TTGlyph name="Zacute" xMin="4" yMin="-2" xMax="503" yMax="849">
      <component glyphName="Z" x="0" y="0" flags="0x1000"/>
      <component glyphName="acute.cap" x="54" y="184" flags="0x1000"/>
    </TTGlyph>
    <TTGlyph name="Zcaron" xMin="4" yMin="-2" xMax="503" yMax="833">
      <component glyphName="Z" x="0" y="0" flags="0x1000"/>
      <component glyphName="caron.cap" x="40" y="184" flags="0x1000"/>
    </TTGlyph>
    <TTGlyph name="Zdotaccent" xMin="4" yMin="-2" xMax="503" yMax="830">
      <component glyphName="Z" x="0" y="0" flags="0x1000"/>
      <component glyphName="dotaccent" x="44" y="184" flags="0x1000"/>
    </TTGlyph>
    <TTGlyph name="a" xMin="1" yMin="0" xMax="417" yMax="494">
      <contour>
        <pt x="369" y="0" on="1"/>
        <pt x="365" y="44" on="1"/>
        <pt x="342" y="145" on="1"/>
        <pt x="224" y="146" on="1"/>
        <pt x="118" y="145" on="1"/>
        <pt x="67" y="46" on="1"/>
        <pt x="48" y="0" on="1"/>
        <pt x="1" y="0" on="1"/>
        <pt x="253" y="494" on="1"/>
        <pt x="306" y="494" on="1"/>
        <pt x="417" y="0" on="1"/>
      </contour>
      <contour>
        <pt x="274" y="444" on="1"/>
        <pt x="270" y="444" on="1"/>
        <pt x="137" y="184" on="1"/>
        <pt x="333" y="184" on="1"/>
      </contour>
    </TTGlyph>
    <TTGlyph name="a.sups" xMin="67" yMin="340" xMax="300" yMax="647">
      <contour>
        <pt x="270" y="414" on="1"/>
        <pt x="265" y="344" on="1"/>
        <pt x="223" y="340" on="1"/>
        <pt x="242" y="492" on="1"/>
        <pt x="237" y="492" on="1"/>
        <pt x="183" y="392" on="0"/>
        <pt x="125" y="340" on="1"/>
        <pt x="116" y="340" on="1"/>
        <pt x="89" y="353" on="0"/>
        <pt x="67" y="397" on="0"/>
        <pt x="67" y="437" on="1"/>
        <pt x="67" y="517" on="0"/>
        <pt x="147" y="634" on="0"/>
        <pt x="219" y="644" on="1"/>
        <pt x="222" y="644" on="1"/>
        <pt x="269" y="638" on="1"/>
        <pt x="295" y="647" on="1"/>
        <pt x="300" y="643" on="1"/>
      </contour>
      <contour>
        <pt x="135" y="380" on="0"/>
        <pt x="174" y="425" on="0"/>
        <pt x="225" y="505" on="0"/>
        <pt x="250" y="557" on="1"/>
        <pt x="253" y="577" on="1"/>
        <pt x="256" y="607" on="1"/>
        <pt x="215" y="613" on="1"/>
        <pt x="165" y="612" on="0"/>
        <pt x="105" y="518" on="0"/>
        <pt x="105" y="451" on="1"/>
        <pt x="105" y="416" on="0"/>
        <pt x="121" y="380" on="0"/>
        <pt x="129" y="380" on="1"/>
      </contour>
    </TTGlyph>
    <TTGlyph name="aacute" xMin="1" yMin="0" xMax="417" yMax="721">
      <component glyphName="a" x="0" y="0" flags="0x1000"/>
      <component glyphName="acute" x="56" y="39" flags="0x1000"/>
    </TTGlyph>
    <TTGlyph name="abreve" xMin="1" yMin="0" xMax="417" yMax="694">
      <component glyphName="a" x="0" y="0" flags="0x1000"/>
      <component glyphName="breve" x="49" y="39" flags="0x1000"/>
    </TTGlyph>
    <TTGlyph name="abreveacute" xMin="1" yMin="0" xMax="417" yMax="776">
      <component glyphName="a" x="0" y="0" flags="0x1000"/>
      <component glyphName="breveacute" x="54" y="39" flags="0x1000"/>
    </TTGlyph>
    <TTGlyph name="abrevedotbelow" xMin="1" yMin="-145" xMax="417" yMax="694">
      <contour>
        <pt x="234" y="563" on="0"/>
        <pt x="186" y="618" on="0"/>
        <pt x="181" y="673" on="1"/>
        <pt x="201" y="694" on="1"/>
        <pt x="209" y="694" on="1"/>
        <pt x="213" y="601" on="0"/>
        <pt x="285" y="601" on="1"/>
        <pt x="357" y="601" on="0"/>
        <pt x="383" y="694" on="1"/>
        <pt x="392" y="694" on="1"/>
        <pt x="407" y="673" on="1"/>
        <pt x="372" y="563" on="0"/>
        <pt x="283" y="563" on="1"/>
      </contour>
      <contour>
        <pt x="369" y="0" on="1"/>
        <pt x="364" y="44" on="1"/>
        <pt x="341" y="145" on="1"/>
        <pt x="224" y="146" on="1"/>
        <pt x="118" y="145" on="1"/>
        <pt x="67" y="46" on="1"/>
        <pt x="48" y="0" on="1"/>
        <pt x="1" y="0" on="1"/>
        <pt x="253" y="494" on="1"/>
        <pt x="305" y="494" on="1"/>
        <pt x="417" y="0" on="1"/>
      </contour>
      <contour>
        <pt x="274" y="444" on="1"/>
        <pt x="270" y="444" on="1"/>
        <pt x="137" y="184" on="1"/>
        <pt x="333" y="184" on="1"/>
      </contour>
      <contour>
        <pt x="231" y="-80" on="0"/>
        <pt x="248" y="-97" on="0"/>
        <pt x="248" y="-111" on="1"/>
        <pt x="248" y="-126" on="0"/>
        <pt x="230" y="-145" on="0"/>
        <pt x="215" y="-145" on="1"/>
        <pt x="201" y="-145" on="0"/>
        <pt x="184" y="-127" on="0"/>
        <pt x="184" y="-113" on="1"/>
        <pt x="184" y="-80" on="0"/>
        <pt x="217" y="-80" on="1"/>
      </contour>
    </TTGlyph>
    <TTGlyph name="abrevegrave" xMin="1" yMin="0" xMax="417" yMax="776">
      <component glyphName="a" x="0" y="0" flags="0x1000"/>
      <component glyphName="brevegrave" x="54" y="39" flags="0x1000"/>
    </TTGlyph>
    <TTGlyph name="abrevehookabove" xMin="1" yMin="0" xMax="417" yMax="819">
      <component glyphName="a" x="0" y="0" flags="0x1000"/>
      <component glyphName="brevehookabove" x="54" y="39" flags="0x1000"/>
    </TTGlyph>
    <TTGlyph name="abrevetilde" xMin="1" yMin="0" xMax="450" yMax="791">
      <component glyphName="a" x="0" y="0" flags="0x1000"/>
      <component glyphName="brevetilde" x="54" y="39" flags="0x1000"/>
    </TTGlyph>
    <TTGlyph name="acaron" xMin="1" yMin="0" xMax="417" yMax="711">
      <component glyphName="a" x="0" y="0" flags="0x1000"/>
      <component glyphName="caron" x="47" y="39" flags="0x1000"/>
    </TTGlyph>
    <TTGlyph name="acircumflex" xMin="1" yMin="0" xMax="417" yMax="706">
      <component glyphName="a" x="0" y="0" flags="0x1000"/>
      <component glyphName="circumflex" x="61" y="39" flags="0x1000"/>
    </TTGlyph>
    <TTGlyph name="acircumflexacute" xMin="1" yMin="0" xMax="440" yMax="775">
      <component glyphName="a" x="0" y="0" flags="0x1000"/>
      <component glyphName="circumflexacute" x="54" y="39" flags="0x1000"/>
    </TTGlyph>
    <TTGlyph name="acircumflexdotbelow" xMin="1" yMin="-145" xMax="417" yMax="706">
      <contour>
        <pt x="173" y="576" on="1"/>
        <pt x="224" y="624" on="0"/>
        <pt x="299" y="706" on="1"/>
        <pt x="319" y="706" on="1"/>
        <pt x="365" y="636" on="0"/>
        <pt x="414" y="576" on="1"/>
        <pt x="397" y="555" on="1"/>
        <pt x="390" y="555" on="1"/>
        <pt x="347" y="605" on="0"/>
        <pt x="305" y="666" on="1"/>
        <pt x="239" y="597" on="0"/>
        <pt x="192" y="555" on="1"/>
        <pt x="185" y="555" on="1"/>
      </contour>
      <contour>
        <pt x="369" y="0" on="1"/>
        <pt x="364" y="44" on="1"/>
        <pt x="341" y="145" on="1"/>
        <pt x="224" y="146" on="1"/>
        <pt x="118" y="145" on="1"/>
        <pt x="67" y="46" on="1"/>
        <pt x="48" y="0" on="1"/>
        <pt x="1" y="0" on="1"/>
        <pt x="253" y="494" on="1"/>
        <pt x="305" y="494" on="1"/>
        <pt x="417" y="0" on="1"/>
      </contour>
      <contour>
        <pt x="274" y="444" on="1"/>
        <pt x="270" y="444" on="1"/>
        <pt x="137" y="184" on="1"/>
        <pt x="333" y="184" on="1"/>
      </contour>
      <contour>
        <pt x="231" y="-80" on="0"/>
        <pt x="248" y="-97" on="0"/>
        <pt x="248" y="-111" on="1"/>
        <pt x="248" y="-126" on="0"/>
        <pt x="230" y="-145" on="0"/>
        <pt x="215" y="-145" on="1"/>
        <pt x="201" y="-145" on="0"/>
        <pt x="184" y="-127" on="0"/>
        <pt x="184" y="-113" on="1"/>
        <pt x="184" y="-80" on="0"/>
        <pt x="217" y="-80" on="1"/>
      </contour>
    </TTGlyph>
    <TTGlyph name="acircumflexgrave" xMin="1" yMin="0" xMax="417" yMax="775">
      <component glyphName="a" x="0" y="0" flags="0x1000"/>
      <component glyphName="circumflexgrave" x="54" y="39" flags="0x1000"/>
    </TTGlyph>
    <TTGlyph name="acircumflexhookabove" xMin="1" yMin="0" xMax="429" yMax="808">
      <component glyphName="a" x="0" y="0" flags="0x1000"/>
      <component glyphName="circumflexhookabove" x="54" y="39" flags="0x1000"/>
    </TTGlyph>
    <TTGlyph name="acircumflextilde" xMin="1" yMin="0" xMax="461" yMax="791">
      <component glyphName="a" x="0" y="0" flags="0x1000"/>
      <component glyphName="circumflextilde" x="63" y="39" flags="0x1000"/>
    </TTGlyph>
    <TTGlyph name="acute" xMin="150" yMin="518" xMax="331" yMax="682">
      <contour>
        <pt x="331" y="656" on="1"/>
        <pt x="329" y="650" on="1"/>
        <pt x="271" y="598" on="0"/>
        <pt x="173" y="518" on="1"/>
        <pt x="166" y="519" on="1"/>
        <pt x="150" y="541" on="1"/>
        <pt x="229" y="607" on="0"/>
        <pt x="305" y="682" on="1"/>
        <pt x="311" y="681" on="1"/>
      </contour>
    </TTGlyph>
    <TTGlyph name="acute.cap" xMin="138" yMin="539" xMax="342" yMax="665">
      <contour>
        <pt x="342" y="635" on="1"/>
        <pt x="340" y="628" on="1"/>
        <pt x="260" y="587" on="0"/>
        <pt x="156" y="539" on="1"/>
        <pt x="149" y="542" on="1"/>
        <pt x="138" y="567" on="1"/>
        <pt x="223" y="607" on="0"/>
        <pt x="322" y="665" on="1"/>
        <pt x="329" y="663" on="1"/>
      </contour>
    </TTGlyph>
    <TTGlyph name="adieresis" xMin="1" yMin="0" xMax="417" yMax="672">
      <component glyphName="a" x="0" y="0" flags="0x1000"/>
      <component glyphName="dieresis" x="54" y="39" flags="0x1000"/>
    </TTGlyph>
    <TTGlyph name="adotbelow" xMin="1" yMin="-145" xMax="417" yMax="494">
      <component glyphName="a" x="0" y="0" flags="0x1000"/>
      <component glyphName="dotbelowcomb" x="63" y="0" flags="0x1000"/>
    </TTGlyph>
    <TTGlyph name="ae" xMin="-24" yMin="0" xMax="609" yMax="494">
      <contour>
        <pt x="600" y="0" on="1"/>
        <pt x="339" y="0" on="1"/>
        <pt x="342" y="44" on="1"/>
        <pt x="336" y="206" on="1"/>
        <pt x="132" y="166" on="1"/>
        <pt x="49" y="45" on="1"/>
        <pt x="25" y="0" on="1"/>
        <pt x="-24" y="0" on="1"/>
        <pt x="315" y="494" on="1"/>
        <pt x="586" y="494" on="1"/>
        <pt x="589" y="489" on="1"/>
        <pt x="579" y="453" on="1"/>
        <pt x="450" y="457" on="1"/>
        <pt x="371" y="457" on="1"/>
        <pt x="378" y="253" on="1"/>
        <pt x="557" y="286" on="1"/>
        <pt x="561" y="283" on="1"/>
        <pt x="558" y="246" on="1"/>
        <pt x="379" y="214" on="1"/>
        <pt x="385" y="39" on="1"/>
        <pt x="477" y="39" on="1"/>
        <pt x="606" y="41" on="1"/>
        <pt x="609" y="37" on="1"/>
      </contour>
      <contour>
        <pt x="327" y="444" on="1"/>
        <pt x="323" y="444" on="1"/>
        <pt x="163" y="212" on="1"/>
        <pt x="334" y="245" on="1"/>
      </contour>
    </TTGlyph>
    <TTGlyph name="aeacute" xMin="-24" yMin="0" xMax="609" yMax="721">
      <component glyphName="ae" x="0" y="0" flags="0x1000"/>
      <component glyphName="acute" x="222" y="39" flags="0x1000"/>
    </TTGlyph>
    <TTGlyph name="agrave" xMin="1" yMin="0" xMax="417" yMax="721">
      <component glyphName="a" x="0" y="0" flags="0x1000"/>
      <component glyphName="grave" x="45" y="39" flags="0x1000"/>
    </TTGlyph>
    <TTGlyph name="ahookabove" xMin="1" yMin="0" xMax="417" yMax="733">
      <component glyphName="a" x="0" y="0" flags="0x1000"/>
      <component glyphName="hookabove" x="27" y="39" flags="0x1000"/>
    </TTGlyph>
    <TTGlyph name="amacron" xMin="1" yMin="0" xMax="441" yMax="659">
      <component glyphName="a" x="0" y="0" flags="0x1000"/>
      <component glyphName="macron" x="54" y="39" flags="0x1000"/>
    </TTGlyph>
    <TTGlyph name="ampersand" xMin="56" yMin="-10" xMax="821" yMax="711">
      <contour>
        <pt x="802" y="293" on="0"/>
        <pt x="753" y="254" on="0"/>
        <pt x="714" y="251" on="1"/>
        <pt x="684" y="251" on="0"/>
        <pt x="598" y="269" on="1"/>
        <pt x="598" y="186" on="0"/>
        <pt x="525" y="60" on="0"/>
        <pt x="395" y="-10" on="0"/>
        <pt x="309" y="-10" on="1"/>
        <pt x="232" y="-10" on="0"/>
        <pt x="118" y="56" on="0"/>
        <pt x="56" y="177" on="0"/>
        <pt x="56" y="257" on="1"/>
        <pt x="56" y="328" on="0"/>
        <pt x="105" y="439" on="0"/>
        <pt x="189" y="500" on="0"/>
        <pt x="239" y="500" on="1"/>
        <pt x="287" y="500" on="0"/>
        <pt x="345" y="452" on="0"/>
        <pt x="345" y="414" on="1"/>
        <pt x="345" y="394" on="0"/>
        <pt x="336" y="370" on="1"/>
        <pt x="433" y="441" on="0"/>
        <pt x="583" y="617" on="0"/>
        <pt x="624" y="711" on="1"/>
        <pt x="629" y="711" on="1"/>
        <pt x="643" y="695" on="0"/>
        <pt x="649" y="675" on="1"/>
        <pt x="606" y="580" on="0"/>
        <pt x="437" y="393" on="0"/>
        <pt x="218" y="244" on="0"/>
        <pt x="104" y="204" on="1"/>
        <pt x="119" y="123" on="0"/>
        <pt x="227" y="29" on="0"/>
        <pt x="312" y="29" on="1"/>
        <pt x="386" y="29" on="0"/>
        <pt x="500" y="91" on="0"/>
        <pt x="561" y="204" on="0"/>
        <pt x="559" y="277" on="1"/>
        <pt x="514" y="287" on="0"/>
        <pt x="491" y="287" on="1"/>
        <pt x="432" y="287" on="0"/>
        <pt x="403" y="217" on="1"/>
        <pt x="396" y="216" on="1"/>
        <pt x="382" y="242" on="1"/>
        <pt x="401" y="283" on="0"/>
        <pt x="451" y="322" on="0"/>
        <pt x="490" y="325" on="1"/>
        <pt x="509" y="325" on="0"/>
        <pt x="596" y="308" on="1"/>
        <pt x="678" y="289" on="0"/>
        <pt x="712" y="289" on="1"/>
        <pt x="774" y="289" on="0"/>
        <pt x="800" y="359" on="1"/>
        <pt x="807" y="361" on="1"/>
        <pt x="821" y="335" on="1"/>
      </contour>
      <contour>
        <pt x="199" y="463" on="0"/>
        <pt x="135" y="413" on="0"/>
        <pt x="99" y="322" on="0"/>
        <pt x="99" y="262" on="1"/>
        <pt x="100" y="242" on="1"/>
        <pt x="183" y="273" on="0"/>
        <pt x="264" y="322" on="1"/>
        <pt x="309" y="356" on="0"/>
        <pt x="309" y="403" on="1"/>
        <pt x="309" y="432" on="0"/>
        <pt x="271" y="463" on="0"/>
        <pt x="239" y="463" on="1"/>
      </contour>
    </TTGlyph>
    <TTGlyph name="aogonek" xMin="1" yMin="-196" xMax="418" yMax="494">
      <contour>
        <pt x="377" y="-196" on="0"/>
        <pt x="334" y="-196" on="1"/>
        <pt x="310" y="-196" on="0"/>
        <pt x="276" y="-168" on="0"/>
        <pt x="276" y="-140" on="1"/>
        <pt x="276" y="-117" on="0"/>
        <pt x="311" y="-60" on="0"/>
        <pt x="369" y="0" on="1"/>
        <pt x="364" y="44" on="1"/>
        <pt x="341" y="145" on="1"/>
        <pt x="224" y="146" on="1"/>
        <pt x="118" y="145" on="1"/>
        <pt x="67" y="46" on="1"/>
        <pt x="48" y="0" on="1"/>
        <pt x="1" y="0" on="1"/>
        <pt x="253" y="494" on="1"/>
        <pt x="305" y="494" on="1"/>
        <pt x="417" y="0" on="1"/>
        <pt x="410" y="0" on="1"/>
        <pt x="353" y="-56" on="0"/>
        <pt x="313" y="-111" on="0"/>
        <pt x="313" y="-131" on="1"/>
        <pt x="313" y="-160" on="0"/>
        <pt x="342" y="-160" on="1"/>
        <pt x="374" y="-160" on="0"/>
        <pt x="409" y="-112" on="1"/>
        <pt x="413" y="-112" on="1"/>
        <pt x="418" y="-142" on="1"/>
      </contour>
      <contour>
        <pt x="274" y="444" on="1"/>
        <pt x="270" y="444" on="1"/>
        <pt x="137" y="184" on="1"/>
        <pt x="333" y="184" on="1"/>
      </contour>
    </TTGlyph>
    <TTGlyph name="approxequal" xMin="72" yMin="146" xMax="452" yMax="392">
      <component glyphName="asciitilde" x="29" y="80" flags="0x1000"/>
      <component glyphName="asciitilde" x="10" y="-74" flags="0x1000"/>
    </TTGlyph>
    <TTGlyph name="aring" xMin="1" yMin="0" xMax="417" yMax="721">
      <component glyphName="a" x="0" y="0" flags="0x1000"/>
      <component glyphName="ring" x="54" y="39" flags="0x1000"/>
    </TTGlyph>
    <TTGlyph name="aringacute" xMin="1" yMin="0" xMax="423" yMax="814">
      <component glyphName="a" x="0" y="0" flags="0x1000"/>
      <component glyphName="newGlyph#3" x="54" y="39" flags="0x1000"/>
    </TTGlyph>
    <TTGlyph name="arrowdown" xMin="55" yMin="-2" xMax="452" yMax="459">
      <contour>
        <pt x="257" y="-2" on="1"/>
        <pt x="250" y="-2" on="1"/>
        <pt x="55" y="190" on="1"/>
        <pt x="65" y="218" on="1"/>
        <pt x="74" y="218" on="1"/>
        <pt x="236" y="60" on="1"/>
        <pt x="234" y="455" on="1"/>
        <pt x="238" y="459" on="1"/>
        <pt x="272" y="456" on="1"/>
        <pt x="270" y="60" on="1"/>
        <pt x="433" y="218" on="1"/>
        <pt x="442" y="218" on="1"/>
        <pt x="452" y="190" on="1"/>
      </contour>
    </TTGlyph>
    <TTGlyph name="arrowdownleft" xMin="102" yMin="60" xMax="444" yMax="403">
      <component glyphName="arrowdown" x="-71" y="246" scalex="0.706970214844" scale01="-0.706970214844" scale10="0.706970214844" scaley="0.706970214844" flags="0x1000"/>
    </TTGlyph>
    <TTGlyph name="arrowdownright" xMin="61" yMin="60" xMax="404" yMax="402">
      <component glyphName="arrowdown" x="218" y="-113" scalex="0.706970214844" scale01="0.706970214844" scale10="-0.706970214844" scaley="0.706970214844" flags="0x1000"/>
    </TTGlyph>
    <TTGlyph name="arrowleft" xMin="21" yMin="30" xMax="482" yMax="427">
      <component glyphName="arrowdown" x="23" y="482" scalex="0.0" scale01="-1.0" scale10="1.0" scaley="0.0" flags="0x1000"/>
    </TTGlyph>
    <TTGlyph name="arrowright" xMin="22" yMin="33" xMax="483" yMax="430">
      <component glyphName="arrowdown" x="481" y="-22" scalex="0.0" scale01="1.0" scale10="-1.0" scaley="0.0" flags="0x1000"/>
    </TTGlyph>
    <TTGlyph name="arrowup" xMin="53" yMin="0" xMax="450" yMax="461">
      <component glyphName="arrowdown" x="505" y="459" scale="-1.0" flags="0x1000"/>
    </TTGlyph>
    <TTGlyph name="arrowupleft" xMin="101" yMin="55" xMax="444" yMax="397">
      <component glyphName="arrowdown" x="287" y="570" scalex="-0.706970214844" scale01="-0.706970214844" scale10="0.706970214844" scaley="-0.706970214844" flags="0x1000"/>
    </TTGlyph>
    <TTGlyph name="arrowupright" xMin="62" yMin="57" xMax="404" yMax="400">
      <component glyphName="arrowdown" x="577" y="214" scalex="-0.706970214844" scale01="0.706970214844" scale10="-0.706970214844" scaley="-0.706970214844" flags="0x1000"/>
    </TTGlyph>
    <TTGlyph name="asciicircum" xMin="10" yMin="113" xMax="380" yMax="489">
      <contour>
        <pt x="376" y="121" on="1"/>
        <pt x="345" y="113" on="1"/>
        <pt x="243" y="448" on="1"/>
        <pt x="238" y="448" on="1"/>
        <pt x="44" y="116" on="1"/>
        <pt x="37" y="113" on="1"/>
        <pt x="10" y="125" on="1"/>
        <pt x="219" y="485" on="1"/>
        <pt x="226" y="489" on="1"/>
        <pt x="268" y="489" on="1"/>
        <pt x="380" y="127" on="1"/>
      </contour>
    </TTGlyph>
    <TTGlyph name="asciitilde" xMin="62" yMin="220" xMax="423" yMax="312">
      <contour>
        <pt x="136" y="269" on="0"/>
        <pt x="100" y="236" on="1"/>
        <pt x="81" y="220" on="1"/>
        <pt x="74" y="220" on="1"/>
        <pt x="62" y="238" on="1"/>
        <pt x="62" y="244" on="1"/>
        <pt x="134" y="307" on="1"/>
        <pt x="142" y="311" on="1"/>
        <pt x="162" y="308" on="0"/>
        <pt x="235" y="288" on="1"/>
        <pt x="319" y="264" on="0"/>
        <pt x="335" y="264" on="1"/>
        <pt x="344" y="264" on="0"/>
        <pt x="366" y="279" on="0"/>
        <pt x="388" y="299" on="1"/>
        <pt x="403" y="312" on="1"/>
        <pt x="411" y="312" on="1"/>
        <pt x="423" y="294" on="1"/>
        <pt x="422" y="288" on="1"/>
        <pt x="350" y="224" on="1"/>
        <pt x="341" y="222" on="1"/>
        <pt x="327" y="223" on="0"/>
        <pt x="243" y="246" on="1"/>
        <pt x="166" y="269" on="0"/>
        <pt x="149" y="269" on="1"/>
      </contour>
    </TTGlyph>
    <TTGlyph name="asterisk" xMin="84" yMin="421" xMax="381" yMax="724">
      <contour>
        <pt x="241" y="603" on="1"/>
        <pt x="218" y="601" on="1"/>
        <pt x="213" y="606" on="1"/>
        <pt x="215" y="718" on="1"/>
        <pt x="235" y="724" on="0"/>
        <pt x="254" y="724" on="1"/>
        <pt x="257" y="719" on="1"/>
      </contour>
      <contour>
        <pt x="192" y="566" on="1"/>
        <pt x="185" y="563" on="1"/>
        <pt x="84" y="600" on="1"/>
        <pt x="84" y="623" on="0"/>
        <pt x="90" y="639" on="1"/>
        <pt x="95" y="641" on="1"/>
        <pt x="196" y="589" on="1"/>
      </contour>
      <contour>
        <pt x="378" y="603" on="0"/>
        <pt x="381" y="588" on="1"/>
        <pt x="379" y="585" on="1"/>
        <pt x="268" y="564" on="1"/>
        <pt x="258" y="586" on="1"/>
        <pt x="262" y="592" on="1"/>
        <pt x="364" y="624" on="1"/>
      </contour>
      <contour>
        <pt x="324" y="449" on="1"/>
        <pt x="315" y="434" on="0"/>
        <pt x="297" y="421" on="1"/>
        <pt x="292" y="422" on="1"/>
        <pt x="240" y="526" on="1"/>
        <pt x="257" y="541" on="1"/>
        <pt x="263" y="540" on="1"/>
      </contour>
      <contour>
        <pt x="215" y="522" on="1"/>
        <pt x="152" y="433" on="1"/>
        <pt x="141" y="437" on="0"/>
        <pt x="117" y="452" on="1"/>
        <pt x="116" y="456" on="1"/>
        <pt x="196" y="540" on="1"/>
        <pt x="216" y="530" on="1"/>
      </contour>
    </TTGlyph>
    <TTGlyph name="at" xMin="40" yMin="-191" xMax="778" yMax="602">
      <contour>
        <pt x="778" y="155" on="0"/>
        <pt x="613" y="4" on="0"/>
        <pt x="459" y="-4" on="1"/>
        <pt x="492" y="239" on="1"/>
        <pt x="485" y="239" on="1"/>
        <pt x="398" y="83" on="0"/>
        <pt x="302" y="-6" on="1"/>
        <pt x="289" y="-6" on="1"/>
        <pt x="257" y="16" on="0"/>
        <pt x="226" y="85" on="0"/>
        <pt x="226" y="143" on="1"/>
        <pt x="226" y="222" on="0"/>
        <pt x="280" y="362" on="0"/>
        <pt x="385" y="453" on="0"/>
        <pt x="458" y="461" on="1"/>
        <pt x="462" y="461" on="1"/>
        <pt x="526" y="447" on="1"/>
        <pt x="556" y="462" on="1"/>
        <pt x="563" y="458" on="1"/>
        <pt x="515" y="108" on="1"/>
        <pt x="510" y="34" on="1"/>
        <pt x="621" y="46" on="0"/>
        <pt x="741" y="178" on="0"/>
        <pt x="741" y="290" on="1"/>
        <pt x="741" y="372" on="0"/>
        <pt x="670" y="498" on="0"/>
        <pt x="537" y="567" on="0"/>
        <pt x="447" y="567" on="1"/>
        <pt x="338" y="567" on="0"/>
        <pt x="170" y="473" on="0"/>
        <pt x="77" y="304" on="0"/>
        <pt x="77" y="196" on="1"/>
        <pt x="77" y="86" on="0"/>
        <pt x="172" y="-73" on="0"/>
        <pt x="346" y="-158" on="0"/>
        <pt x="462" y="-158" on="1"/>
        <pt x="463" y="-164" on="1"/>
        <pt x="445" y="-191" on="1"/>
        <pt x="324" y="-189" on="0"/>
        <pt x="141" y="-95" on="0"/>
        <pt x="40" y="75" on="0"/>
        <pt x="40" y="189" on="1"/>
        <pt x="40" y="310" on="0"/>
        <pt x="142" y="498" on="0"/>
        <pt x="328" y="602" on="0"/>
        <pt x="449" y="602" on="1"/>
        <pt x="548" y="602" on="0"/>
        <pt x="697" y="524" on="0"/>
        <pt x="778" y="383" on="0"/>
        <pt x="778" y="291" on="1"/>
      </contour>
      <contour>
        <pt x="314" y="48" on="0"/>
        <pt x="380" y="122" on="0"/>
        <pt x="466" y="256" on="0"/>
        <pt x="507" y="343" on="1"/>
        <pt x="509" y="360" on="1"/>
        <pt x="513" y="408" on="1"/>
        <pt x="452" y="422" on="1"/>
        <pt x="396" y="421" on="0"/>
        <pt x="312" y="347" on="0"/>
        <pt x="268" y="226" on="0"/>
        <pt x="268" y="155" on="1"/>
        <pt x="268" y="100" on="0"/>
        <pt x="291" y="48" on="0"/>
        <pt x="304" y="48" on="1"/>
      </contour>
    </TTGlyph>
    <TTGlyph name="atilde" xMin="1" yMin="0" xMax="442" yMax="687">
      <component glyphName="a" x="0" y="0" flags="0x1000"/>
      <component glyphName="tilde" x="54" y="39" flags="0x1000"/>
    </TTGlyph>
    <TTGlyph name="b" xMin="69" yMin="-2" xMax="387" yMax="495">
      <contour>
        <pt x="387" y="239" on="0"/>
        <pt x="387" y="152" on="1"/>
        <pt x="387" y="77" on="0"/>
        <pt x="277" y="-2" on="0"/>
        <pt x="174" y="-2" on="1"/>
        <pt x="102" y="-2" on="0"/>
        <pt x="69" y="0" on="1"/>
        <pt x="90" y="150" on="1"/>
        <pt x="132" y="494" on="1"/>
        <pt x="254" y="495" on="1"/>
        <pt x="315" y="495" on="0"/>
        <pt x="383" y="441" on="0"/>
        <pt x="383" y="391" on="1"/>
        <pt x="383" y="295" on="0"/>
        <pt x="291" y="258" on="1"/>
      </contour>
      <contour>
        <pt x="334" y="458" on="0"/>
        <pt x="243" y="458" on="1"/>
        <pt x="172" y="458" on="1"/>
        <pt x="149" y="274" on="1"/>
        <pt x="242" y="272" on="1"/>
        <pt x="334" y="290" on="0"/>
        <pt x="334" y="384" on="1"/>
      </contour>
      <contour>
        <pt x="257" y="34" on="0"/>
        <pt x="340" y="95" on="0"/>
        <pt x="340" y="151" on="1"/>
        <pt x="340" y="225" on="0"/>
        <pt x="244" y="236" on="1"/>
        <pt x="144" y="235" on="1"/>
        <pt x="133" y="154" on="1"/>
        <pt x="119" y="37" on="1"/>
        <pt x="149" y="34" on="0"/>
        <pt x="181" y="34" on="1"/>
      </contour>
    </TTGlyph>
    <TTGlyph name="b.sups" xMin="74" yMin="340" xMax="308" yMax="809">
      <contour>
        <pt x="286" y="629" on="0"/>
        <pt x="308" y="587" on="0"/>
        <pt x="308" y="549" on="1"/>
        <pt x="308" y="468" on="0"/>
        <pt x="226" y="349" on="0"/>
        <pt x="154" y="340" on="1"/>
        <pt x="151" y="340" on="1"/>
        <pt x="114" y="347" on="1"/>
        <pt x="74" y="354" on="1"/>
        <pt x="125" y="742" on="1"/>
        <pt x="130" y="804" on="1"/>
        <pt x="173" y="809" on="1"/>
        <pt x="130" y="490" on="1"/>
        <pt x="135" y="490" on="1"/>
        <pt x="190" y="588" on="0"/>
        <pt x="249" y="643" on="1"/>
        <pt x="259" y="643" on="1"/>
      </contour>
      <contour>
        <pt x="209" y="371" on="0"/>
        <pt x="270" y="466" on="0"/>
        <pt x="270" y="533" on="1"/>
        <pt x="270" y="567" on="0"/>
        <pt x="254" y="603" on="0"/>
        <pt x="247" y="603" on="1"/>
        <pt x="241" y="603" on="0"/>
        <pt x="202" y="559" on="0"/>
        <pt x="148" y="479" on="0"/>
        <pt x="122" y="427" on="1"/>
        <pt x="117" y="382" on="1"/>
        <pt x="158" y="371" on="1"/>
      </contour>
    </TTGlyph>
    <TTGlyph name="backslash" xMin="57" yMin="-111" xMax="300" yMax="676">
      <contour>
        <pt x="300" y="-106" on="1"/>
        <pt x="295" y="-111" on="1"/>
        <pt x="261" y="-111" on="1"/>
        <pt x="57" y="670" on="1"/>
        <pt x="61" y="676" on="1"/>
        <pt x="95" y="676" on="1"/>
      </contour>
    </TTGlyph>
    <TTGlyph name="bar" xMin="79" yMin="-264" xMax="248" yMax="794">
      <contour>
        <pt x="186" y="286" on="1"/>
        <pt x="118" y="-262" on="1"/>
        <pt x="83" y="-264" on="1"/>
        <pt x="79" y="-258" on="1"/>
        <pt x="146" y="284" on="1"/>
        <pt x="208" y="791" on="1"/>
        <pt x="245" y="794" on="1"/>
        <pt x="248" y="790" on="1"/>
      </contour>
    </TTGlyph>
    <TTGlyph name="braceleft" xMin="46" yMin="-140" xMax="314" yMax="654">
      <contour>
        <pt x="285" y="654" on="0"/>
        <pt x="311" y="648" on="1"/>
        <pt x="314" y="643" on="1"/>
        <pt x="305" y="614" on="1"/>
        <pt x="280" y="619" on="0"/>
        <pt x="267" y="619" on="1"/>
        <pt x="226" y="619" on="0"/>
        <pt x="188" y="562" on="0"/>
        <pt x="188" y="497" on="1"/>
        <pt x="188" y="480" on="0"/>
        <pt x="190" y="442" on="1"/>
        <pt x="191" y="394" on="1"/>
        <pt x="191" y="339" on="0"/>
        <pt x="151" y="274" on="0"/>
        <pt x="110" y="258" on="1"/>
        <pt x="110" y="255" on="1"/>
        <pt x="165" y="232" on="0"/>
        <pt x="165" y="168" on="1"/>
        <pt x="165" y="141" on="0"/>
        <pt x="143" y="67" on="1"/>
        <pt x="120" y="-12" on="0"/>
        <pt x="120" y="-42" on="1"/>
        <pt x="120" y="-106" on="0"/>
        <pt x="179" y="-106" on="1"/>
        <pt x="192" y="-106" on="0"/>
        <pt x="217" y="-101" on="1"/>
        <pt x="220" y="-130" on="1"/>
        <pt x="215" y="-134" on="1"/>
        <pt x="194" y="-140" on="0"/>
        <pt x="170" y="-140" on="1"/>
        <pt x="79" y="-140" on="0"/>
        <pt x="79" y="-50" on="1"/>
        <pt x="79" y="-18" on="0"/>
        <pt x="103" y="71" on="1"/>
        <pt x="123" y="143" on="0"/>
        <pt x="123" y="164" on="1"/>
        <pt x="123" y="230" on="0"/>
        <pt x="46" y="242" on="1"/>
        <pt x="49" y="271" on="1"/>
        <pt x="102" y="279" on="0"/>
        <pt x="150" y="337" on="0"/>
        <pt x="150" y="398" on="1"/>
        <pt x="150" y="429" on="0"/>
        <pt x="149" y="446" on="1"/>
        <pt x="148" y="498" on="1"/>
        <pt x="148" y="579" on="0"/>
        <pt x="209" y="654" on="0"/>
        <pt x="269" y="654" on="1"/>
      </contour>
    </TTGlyph>
    <TTGlyph name="braceright" xMin="-22" yMin="-141" xMax="246" yMax="653">
      <component glyphName="braceleft" x="292" y="513" scale="-1.0" flags="0x1000"/>
    </TTGlyph>
    <TTGlyph name="bracketleft" xMin="59" yMin="-131" xMax="319" yMax="646">
      <contour>
        <pt x="316" y="616" on="1"/>
        <pt x="190" y="606" on="1"/>
        <pt x="105" y="-91" on="1"/>
        <pt x="228" y="-101" on="1"/>
        <pt x="225" y="-127" on="1"/>
        <pt x="219" y="-131" on="1"/>
        <pt x="59" y="-121" on="1"/>
        <pt x="108" y="258" on="1"/>
        <pt x="153" y="636" on="1"/>
        <pt x="315" y="646" on="1"/>
        <pt x="319" y="642" on="1"/>
      </contour>
    </TTGlyph>
    <TTGlyph name="bracketright" xMin="-27" yMin="-131" xMax="233" yMax="646">
      <component glyphName="bracketleft" x="292" y="515" scale="-1.0" flags="0x1000"/>
    </TTGlyph>
    <TTGlyph name="breve" xMin="132" yMin="524" xMax="358" yMax="655">
      <contour>
        <pt x="323" y="524" on="0"/>
        <pt x="234" y="524" on="1"/>
        <pt x="185" y="524" on="0"/>
        <pt x="137" y="579" on="0"/>
        <pt x="132" y="634" on="1"/>
        <pt x="152" y="655" on="1"/>
        <pt x="160" y="655" on="1"/>
        <pt x="164" y="562" on="0"/>
        <pt x="236" y="562" on="1"/>
        <pt x="308" y="562" on="0"/>
        <pt x="334" y="655" on="1"/>
        <pt x="343" y="655" on="1"/>
        <pt x="358" y="634" on="1"/>
      </contour>
    </TTGlyph>
    <TTGlyph name="breve.cap" xMin="131" yMin="543" xMax="356" yMax="643">
      <contour>
        <pt x="320" y="543" on="0"/>
        <pt x="237" y="543" on="1"/>
        <pt x="194" y="543" on="0"/>
        <pt x="138" y="585" on="0"/>
        <pt x="131" y="624" on="1"/>
        <pt x="150" y="643" on="1"/>
        <pt x="159" y="643" on="1"/>
        <pt x="170" y="580" on="0"/>
        <pt x="238" y="580" on="1"/>
        <pt x="305" y="580" on="0"/>
        <pt x="333" y="643" on="1"/>
        <pt x="341" y="643" on="1"/>
        <pt x="356" y="624" on="1"/>
      </contour>
    </TTGlyph>
    <TTGlyph name="breveacute" xMin="128" yMin="523" xMax="353" yMax="737">
      <contour>
        <pt x="317" y="714" on="1"/>
        <pt x="302" y="696" on="0"/>
        <pt x="247" y="639" on="1"/>
        <pt x="229" y="621" on="1"/>
        <pt x="222" y="621" on="1"/>
        <pt x="203" y="638" on="1"/>
        <pt x="258" y="701" on="0"/>
        <pt x="288" y="737" on="1"/>
        <pt x="294" y="737" on="1"/>
        <pt x="317" y="720" on="1"/>
      </contour>
      <contour>
        <pt x="317" y="523" on="0"/>
        <pt x="234" y="523" on="1"/>
        <pt x="191" y="523" on="0"/>
        <pt x="135" y="565" on="0"/>
        <pt x="128" y="604" on="1"/>
        <pt x="147" y="623" on="1"/>
        <pt x="156" y="623" on="1"/>
        <pt x="167" y="560" on="0"/>
        <pt x="235" y="560" on="1"/>
        <pt x="302" y="560" on="0"/>
        <pt x="330" y="623" on="1"/>
        <pt x="338" y="623" on="1"/>
        <pt x="353" y="604" on="1"/>
      </contour>
    </TTGlyph>
    <TTGlyph name="brevegrave" xMin="128" yMin="523" xMax="354" yMax="737">
      <contour>
        <pt x="245" y="621" on="1"/>
        <pt x="227" y="639" on="1"/>
        <pt x="172" y="696" on="0"/>
        <pt x="157" y="714" on="1"/>
        <pt x="156" y="720" on="1"/>
        <pt x="179" y="737" on="1"/>
        <pt x="186" y="737" on="1"/>
        <pt x="234" y="679" on="0"/>
        <pt x="271" y="638" on="1"/>
        <pt x="252" y="621" on="1"/>
      </contour>
      <contour>
        <pt x="318" y="523" on="0"/>
        <pt x="235" y="523" on="1"/>
        <pt x="192" y="523" on="0"/>
        <pt x="135" y="565" on="0"/>
        <pt x="128" y="604" on="1"/>
        <pt x="148" y="623" on="1"/>
        <pt x="156" y="623" on="1"/>
        <pt x="167" y="560" on="0"/>
        <pt x="235" y="560" on="1"/>
        <pt x="303" y="560" on="0"/>
        <pt x="330" y="623" on="1"/>
        <pt x="339" y="623" on="1"/>
        <pt x="354" y="604" on="1"/>
      </contour>
    </TTGlyph>
    <TTGlyph name="brevehookabove" xMin="128" yMin="523" xMax="353" yMax="780">
      <contour>
        <pt x="265" y="780" on="0"/>
        <pt x="295" y="753" on="0"/>
        <pt x="295" y="733" on="1"/>
        <pt x="295" y="702" on="0"/>
        <pt x="246" y="663" on="1"/>
        <pt x="263" y="632" on="1"/>
        <pt x="238" y="619" on="1"/>
        <pt x="212" y="667" on="1"/>
        <pt x="262" y="701" on="0"/>
        <pt x="262" y="728" on="1"/>
        <pt x="262" y="748" on="0"/>
        <pt x="236" y="748" on="1"/>
        <pt x="208" y="748" on="0"/>
        <pt x="180" y="725" on="1"/>
        <pt x="168" y="745" on="1"/>
        <pt x="206" y="780" on="0"/>
        <pt x="242" y="780" on="1"/>
      </contour>
      <contour>
        <pt x="317" y="523" on="0"/>
        <pt x="234" y="523" on="1"/>
        <pt x="191" y="523" on="0"/>
        <pt x="135" y="565" on="0"/>
        <pt x="128" y="605" on="1"/>
        <pt x="147" y="623" on="1"/>
        <pt x="156" y="623" on="1"/>
        <pt x="167" y="561" on="0"/>
        <pt x="235" y="561" on="1"/>
        <pt x="302" y="561" on="0"/>
        <pt x="330" y="623" on="1"/>
        <pt x="338" y="623" on="1"/>
        <pt x="353" y="605" on="1"/>
      </contour>
    </TTGlyph>
    <TTGlyph name="brevetilde" xMin="116" yMin="523" xMax="396" yMax="752">
      <contour>
        <pt x="396" y="729" on="1"/>
        <pt x="342" y="672" on="1"/>
        <pt x="336" y="670" on="1"/>
        <pt x="315" y="672" on="0"/>
        <pt x="256" y="690" on="1"/>
        <pt x="201" y="707" on="0"/>
        <pt x="188" y="707" on="1"/>
        <pt x="180" y="707" on="0"/>
        <pt x="154" y="681" on="1"/>
        <pt x="138" y="664" on="1"/>
        <pt x="132" y="664" on="1"/>
        <pt x="116" y="681" on="1"/>
        <pt x="116" y="687" on="1"/>
        <pt x="170" y="743" on="1"/>
        <pt x="177" y="746" on="1"/>
        <pt x="198" y="744" on="0"/>
        <pt x="253" y="726" on="1"/>
        <pt x="317" y="709" on="0"/>
        <pt x="324" y="709" on="1"/>
        <pt x="334" y="709" on="0"/>
        <pt x="357" y="734" on="1"/>
        <pt x="375" y="752" on="1"/>
        <pt x="380" y="752" on="1"/>
        <pt x="396" y="735" on="1"/>
      </contour>
      <contour>
        <pt x="308" y="523" on="0"/>
        <pt x="228" y="523" on="1"/>
        <pt x="185" y="523" on="0"/>
        <pt x="131" y="565" on="0"/>
        <pt x="123" y="603" on="1"/>
        <pt x="142" y="622" on="1"/>
        <pt x="150" y="622" on="1"/>
        <pt x="161" y="560" on="0"/>
        <pt x="229" y="560" on="1"/>
        <pt x="296" y="560" on="0"/>
        <pt x="322" y="622" on="1"/>
        <pt x="331" y="622" on="1"/>
        <pt x="346" y="603" on="1"/>
      </contour>
    </TTGlyph>
    <TTGlyph name="brokenbar" xMin="79" yMin="-264" xMax="248" yMax="794">
      <contour>
        <pt x="196" y="370" on="1"/>
        <pt x="161" y="366" on="1"/>
        <pt x="156" y="370" on="1"/>
        <pt x="208" y="791" on="1"/>
        <pt x="245" y="794" on="1"/>
        <pt x="248" y="790" on="1"/>
      </contour>
      <contour>
        <pt x="118" y="-262" on="1"/>
        <pt x="83" y="-264" on="1"/>
        <pt x="79" y="-258" on="1"/>
        <pt x="130" y="155" on="1"/>
        <pt x="165" y="160" on="1"/>
        <pt x="170" y="153" on="1"/>
      </contour>
    </TTGlyph>
    <TTGlyph name="bullet" xMin="91" yMin="213" xMax="159" yMax="283">
      <component glyphName="period" x="30" y="217" scale="1.05871582031" flags="0x1000"/>
    </TTGlyph>
    <TTGlyph name="bulletoperator" xMin="118" yMin="214" xMax="187" yMax="284">
      <component glyphName="period" x="57" y="218" scale="1.05871582031" flags="0x1000"/>
    </TTGlyph>
    <TTGlyph name="c" xMin="52" yMin="-5" xMax="438" yMax="498">
      <contour>
        <pt x="383" y="498" on="0"/>
        <pt x="438" y="459" on="1"/>
        <pt x="423" y="417" on="1"/>
        <pt x="416" y="415" on="1"/>
        <pt x="369" y="459" on="0"/>
        <pt x="297" y="459" on="1"/>
        <pt x="203" y="459" on="0"/>
        <pt x="100" y="326" on="0"/>
        <pt x="100" y="204" on="1"/>
        <pt x="100" y="123" on="0"/>
        <pt x="171" y="35" on="0"/>
        <pt x="238" y="35" on="1"/>
        <pt x="314" y="35" on="0"/>
        <pt x="382" y="84" on="1"/>
        <pt x="388" y="81" on="1"/>
        <pt x="379" y="39" on="1"/>
        <pt x="309" y="-5" on="0"/>
        <pt x="235" y="-5" on="1"/>
        <pt x="147" y="-5" on="0"/>
        <pt x="52" y="102" on="0"/>
        <pt x="52" y="199" on="1"/>
        <pt x="52" y="341" on="0"/>
        <pt x="184" y="498" on="0"/>
        <pt x="304" y="498" on="1"/>
      </contour>
    </TTGlyph>
    <TTGlyph name="c.sups" xMin="68" yMin="340" xMax="273" yMax="645">
      <contour>
        <pt x="273" y="625" on="1"/>
        <pt x="262" y="596" on="1"/>
        <pt x="252" y="594" on="1"/>
        <pt x="228" y="612" on="0"/>
        <pt x="210" y="612" on="1"/>
        <pt x="161" y="612" on="0"/>
        <pt x="107" y="526" on="0"/>
        <pt x="107" y="450" on="1"/>
        <pt x="107" y="374" on="0"/>
        <pt x="152" y="374" on="1"/>
        <pt x="193" y="374" on="0"/>
        <pt x="227" y="433" on="1"/>
        <pt x="233" y="433" on="1"/>
        <pt x="248" y="415" on="1"/>
        <pt x="226" y="379" on="0"/>
        <pt x="180" y="345" on="0"/>
        <pt x="149" y="340" on="1"/>
        <pt x="142" y="340" on="1"/>
        <pt x="104" y="345" on="0"/>
        <pt x="68" y="390" on="0"/>
        <pt x="68" y="445" on="1"/>
        <pt x="68" y="534" on="0"/>
        <pt x="147" y="645" on="0"/>
        <pt x="226" y="645" on="1"/>
        <pt x="269" y="631" on="1"/>
      </contour>
    </TTGlyph>
    <TTGlyph name="cacute" xMin="52" yMin="-5" xMax="438" yMax="721">
      <component glyphName="c" x="0" y="0" flags="0x1000"/>
      <component glyphName="acute" x="53" y="39" flags="0x1000"/>
    </TTGlyph>
    <TTGlyph name="caron" xMin="126" yMin="521" xMax="368" yMax="672">
      <contour>
        <pt x="320" y="605" on="0"/>
        <pt x="244" y="521" on="1"/>
        <pt x="223" y="521" on="1"/>
        <pt x="175" y="593" on="0"/>
        <pt x="126" y="651" on="1"/>
        <pt x="144" y="672" on="1"/>
        <pt x="151" y="672" on="1"/>
        <pt x="199" y="615" on="0"/>
        <pt x="236" y="561" on="1"/>
        <pt x="281" y="610" on="0"/>
        <pt x="348" y="672" on="1"/>
        <pt x="355" y="672" on="1"/>
        <pt x="368" y="651" on="1"/>
      </contour>
    </TTGlyph>
    <TTGlyph name="caron.alt" xMin="205" yMin="505" xMax="273" yMax="671">
      <contour>
        <pt x="237" y="508" on="1"/>
        <pt x="209" y="505" on="1"/>
        <pt x="205" y="509" on="1"/>
        <pt x="233" y="668" on="1"/>
        <pt x="269" y="671" on="1"/>
        <pt x="273" y="666" on="1"/>
      </contour>
    </TTGlyph>
    <TTGlyph name="caron.cap" xMin="127" yMin="543" xMax="360" yMax="649">
      <contour>
        <pt x="308" y="594" on="0"/>
        <pt x="245" y="543" on="1"/>
        <pt x="226" y="543" on="1"/>
        <pt x="174" y="590" on="0"/>
        <pt x="127" y="626" on="1"/>
        <pt x="141" y="649" on="1"/>
        <pt x="147" y="649" on="1"/>
        <pt x="193" y="617" on="0"/>
        <pt x="237" y="581" on="1"/>
        <pt x="285" y="614" on="0"/>
        <pt x="344" y="649" on="1"/>
        <pt x="351" y="649" on="1"/>
        <pt x="360" y="626" on="1"/>
      </contour>
    </TTGlyph>
    <TTGlyph name="ccaron" xMin="52" yMin="-5" xMax="438" yMax="711">
      <component glyphName="c" x="0" y="0" flags="0x1000"/>
      <component glyphName="caron" x="43" y="39" flags="0x1000"/>
    </TTGlyph>
    <TTGlyph name="ccedilla" xMin="52" yMin="-187" xMax="439" yMax="498">
      <contour>
        <pt x="384" y="498" on="0"/>
        <pt x="439" y="459" on="1"/>
        <pt x="424" y="417" on="1"/>
        <pt x="416" y="415" on="1"/>
        <pt x="370" y="459" on="0"/>
        <pt x="297" y="459" on="1"/>
        <pt x="203" y="459" on="0"/>
        <pt x="100" y="326" on="0"/>
        <pt x="100" y="204" on="1"/>
        <pt x="100" y="123" on="0"/>
        <pt x="172" y="35" on="0"/>
        <pt x="239" y="35" on="1"/>
        <pt x="316" y="35" on="0"/>
        <pt x="382" y="84" on="1"/>
        <pt x="389" y="81" on="1"/>
        <pt x="380" y="39" on="1"/>
        <pt x="319" y="1" on="0"/>
        <pt x="254" y="-4" on="1"/>
        <pt x="238" y="-55" on="1"/>
        <pt x="270" y="-75" on="1"/>
        <pt x="306" y="-97" on="0"/>
        <pt x="306" y="-128" on="1"/>
        <pt x="306" y="-154" on="0"/>
        <pt x="266" y="-187" on="0"/>
        <pt x="236" y="-187" on="1"/>
        <pt x="196" y="-187" on="0"/>
        <pt x="170" y="-155" on="1"/>
        <pt x="177" y="-127" on="1"/>
        <pt x="182" y="-126" on="1"/>
        <pt x="206" y="-157" on="0"/>
        <pt x="234" y="-157" on="1"/>
        <pt x="270" y="-157" on="0"/>
        <pt x="270" y="-127" on="1"/>
        <pt x="270" y="-112" on="0"/>
        <pt x="248" y="-98" on="1"/>
        <pt x="202" y="-69" on="1"/>
        <pt x="221" y="-5" on="1"/>
        <pt x="140" y="0" on="0"/>
        <pt x="52" y="106" on="0"/>
        <pt x="52" y="199" on="1"/>
        <pt x="52" y="341" on="0"/>
        <pt x="185" y="498" on="0"/>
        <pt x="304" y="498" on="1"/>
      </contour>
    </TTGlyph>
    <TTGlyph name="ccircumflex" xMin="52" yMin="-5" xMax="438" yMax="706">
      <component glyphName="c" x="0" y="0" flags="0x1000"/>
      <component glyphName="circumflex" x="57" y="39" flags="0x1000"/>
    </TTGlyph>
    <TTGlyph name="cdotaccent" xMin="52" yMin="-5" xMax="438" yMax="685">
      <component glyphName="c" x="0" y="0" flags="0x1000"/>
      <component glyphName="dotaccent" x="51" y="39" flags="0x1000"/>
    </TTGlyph>
    <TTGlyph name="cedilla" xMin="81" yMin="-185" xMax="217" yMax="15">
      <contour>
        <pt x="181" y="-73" on="1"/>
        <pt x="217" y="-95" on="0"/>
        <pt x="217" y="-126" on="1"/>
        <pt x="217" y="-152" on="0"/>
        <pt x="177" y="-185" on="0"/>
        <pt x="147" y="-185" on="1"/>
        <pt x="107" y="-185" on="0"/>
        <pt x="81" y="-153" on="1"/>
        <pt x="88" y="-125" on="1"/>
        <pt x="93" y="-124" on="1"/>
        <pt x="117" y="-155" on="0"/>
        <pt x="145" y="-155" on="1"/>
        <pt x="181" y="-155" on="0"/>
        <pt x="181" y="-125" on="1"/>
        <pt x="181" y="-110" on="0"/>
        <pt x="159" y="-96" on="1"/>
        <pt x="113" y="-67" on="1"/>
        <pt x="137" y="15" on="1"/>
        <pt x="170" y="15" on="1"/>
        <pt x="149" y="-53" on="1"/>
      </contour>
    </TTGlyph>
    <TTGlyph name="cent" xMin="49" yMin="-117" xMax="354" yMax="651">
      <contour>
        <pt x="342" y="444" on="1"/>
        <pt x="333" y="441" on="1"/>
        <pt x="294" y="469" on="0"/>
        <pt x="262" y="469" on="1"/>
        <pt x="257" y="469" on="1"/>
        <pt x="190" y="79" on="1"/>
        <pt x="247" y="95" on="0"/>
        <pt x="290" y="173" on="1"/>
        <pt x="298" y="172" on="1"/>
        <pt x="312" y="153" on="1"/>
        <pt x="259" y="64" on="0"/>
        <pt x="184" y="44" on="1"/>
        <pt x="157" y="-117" on="1"/>
        <pt x="130" y="-117" on="1"/>
        <pt x="126" y="-111" on="1"/>
        <pt x="151" y="39" on="1"/>
        <pt x="117" y="45" on="0"/>
        <pt x="74" y="73" on="0"/>
        <pt x="49" y="139" on="0"/>
        <pt x="49" y="197" on="1"/>
        <pt x="49" y="316" on="0"/>
        <pt x="139" y="478" on="0"/>
        <pt x="228" y="498" on="1"/>
        <pt x="254" y="651" on="1"/>
        <pt x="281" y="651" on="1"/>
        <pt x="287" y="645" on="1"/>
        <pt x="263" y="503" on="1"/>
        <pt x="284" y="504" on="1"/>
        <pt x="348" y="484" on="1"/>
        <pt x="354" y="476" on="1"/>
      </contour>
      <contour>
        <pt x="158" y="447" on="0"/>
        <pt x="88" y="309" on="0"/>
        <pt x="88" y="202" on="1"/>
        <pt x="88" y="138" on="0"/>
        <pt x="122" y="77" on="0"/>
        <pt x="157" y="75" on="1"/>
        <pt x="222" y="464" on="1"/>
      </contour>
    </TTGlyph>
    <TTGlyph name="circle1" xMin="-14" yMin="-12" xMax="461" yMax="464">
      <contour>
        <pt x="287" y="464" on="0"/>
        <pt x="397" y="400" on="0"/>
        <pt x="461" y="290" on="0"/>
        <pt x="461" y="226" on="1"/>
        <pt x="461" y="162" on="0"/>
        <pt x="397" y="52" on="0"/>
        <pt x="287" y="-12" on="0"/>
        <pt x="223" y="-12" on="1"/>
        <pt x="159" y="-12" on="0"/>
        <pt x="50" y="52" on="0"/>
        <pt x="-14" y="162" on="0"/>
        <pt x="-14" y="226" on="1"/>
        <pt x="-14" y="290" on="0"/>
        <pt x="50" y="400" on="0"/>
        <pt x="159" y="464" on="0"/>
        <pt x="223" y="464" on="1"/>
      </contour>
    </TTGlyph>
    <TTGlyph name="circle2" xMin="-15" yMin="-14" xMax="649" yMax="649">
      <contour>
        <pt x="407" y="649" on="0"/>
        <pt x="560" y="560" on="0"/>
        <pt x="649" y="407" on="0"/>
        <pt x="649" y="317" on="1"/>
        <pt x="649" y="227" on="0"/>
        <pt x="560" y="75" on="0"/>
        <pt x="407" y="-14" on="0"/>
        <pt x="317" y="-14" on="1"/>
        <pt x="227" y="-14" on="0"/>
        <pt x="74" y="75" on="0"/>
        <pt x="-15" y="227" on="0"/>
        <pt x="-15" y="317" on="1"/>
        <pt x="-15" y="407" on="0"/>
        <pt x="74" y="560" on="0"/>
        <pt x="227" y="649" on="0"/>
        <pt x="317" y="649" on="1"/>
      </contour>
    </TTGlyph>
    <TTGlyph name="circumflex" xMin="112" yMin="516" xMax="353" yMax="667">
      <contour>
        <pt x="163" y="585" on="0"/>
        <pt x="238" y="667" on="1"/>
        <pt x="258" y="667" on="1"/>
        <pt x="304" y="597" on="0"/>
        <pt x="353" y="537" on="1"/>
        <pt x="336" y="516" on="1"/>
        <pt x="329" y="516" on="1"/>
        <pt x="286" y="566" on="0"/>
        <pt x="244" y="627" on="1"/>
        <pt x="178" y="558" on="0"/>
        <pt x="131" y="516" on="1"/>
        <pt x="124" y="516" on="1"/>
        <pt x="112" y="537" on="1"/>
      </contour>
    </TTGlyph>
    <TTGlyph name="circumflex.cap" xMin="120" yMin="551" xMax="354" yMax="657">
      <contour>
        <pt x="176" y="609" on="0"/>
        <pt x="236" y="657" on="1"/>
        <pt x="255" y="657" on="1"/>
        <pt x="298" y="617" on="0"/>
        <pt x="354" y="574" on="1"/>
        <pt x="340" y="551" on="1"/>
        <pt x="333" y="551" on="1"/>
        <pt x="287" y="583" on="0"/>
        <pt x="243" y="619" on="1"/>
        <pt x="195" y="586" on="0"/>
        <pt x="136" y="551" on="1"/>
        <pt x="129" y="551" on="1"/>
        <pt x="120" y="574" on="1"/>
      </contour>
    </TTGlyph>
    <TTGlyph name="circumflexacute" xMin="115" yMin="532" xMax="386" yMax="736">
      <contour>
        <pt x="386" y="718" on="1"/>
        <pt x="350" y="672" on="1"/>
        <pt x="308" y="628" on="1"/>
        <pt x="291" y="638" on="1"/>
        <pt x="315" y="690" on="1"/>
        <pt x="358" y="736" on="1"/>
        <pt x="379" y="727" on="1"/>
      </contour>
      <contour>
        <pt x="297" y="594" on="0"/>
        <pt x="348" y="555" on="1"/>
        <pt x="334" y="532" on="1"/>
        <pt x="328" y="532" on="1"/>
        <pt x="282" y="564" on="0"/>
        <pt x="238" y="600" on="1"/>
        <pt x="190" y="567" on="0"/>
        <pt x="131" y="532" on="1"/>
        <pt x="124" y="532" on="1"/>
        <pt x="115" y="555" on="1"/>
        <pt x="171" y="590" on="0"/>
        <pt x="231" y="638" on="1"/>
        <pt x="250" y="638" on="1"/>
      </contour>
    </TTGlyph>
    <TTGlyph name="circumflexgrave" xMin="119" yMin="532" xMax="356" yMax="736">
      <contour>
        <pt x="356" y="638" on="1"/>
        <pt x="340" y="628" on="1"/>
        <pt x="297" y="671" on="1"/>
        <pt x="261" y="718" on="1"/>
        <pt x="268" y="726" on="1"/>
        <pt x="289" y="736" on="1"/>
        <pt x="332" y="689" on="1"/>
      </contour>
      <contour>
        <pt x="296" y="598" on="0"/>
        <pt x="352" y="555" on="1"/>
        <pt x="338" y="532" on="1"/>
        <pt x="331" y="532" on="1"/>
        <pt x="285" y="564" on="0"/>
        <pt x="241" y="600" on="1"/>
        <pt x="193" y="567" on="0"/>
        <pt x="134" y="532" on="1"/>
        <pt x="127" y="532" on="1"/>
        <pt x="119" y="555" on="1"/>
        <pt x="175" y="591" on="0"/>
        <pt x="234" y="638" on="1"/>
        <pt x="253" y="638" on="1"/>
      </contour>
    </TTGlyph>
    <TTGlyph name="circumflexhookabove" xMin="117" yMin="532" xMax="375" yMax="769">
      <contour>
        <pt x="346" y="769" on="0"/>
        <pt x="375" y="743" on="0"/>
        <pt x="375" y="724" on="1"/>
        <pt x="375" y="695" on="0"/>
        <pt x="328" y="657" on="1"/>
        <pt x="344" y="628" on="1"/>
        <pt x="320" y="616" on="1"/>
        <pt x="295" y="661" on="1"/>
        <pt x="343" y="694" on="0"/>
        <pt x="343" y="719" on="1"/>
        <pt x="343" y="738" on="0"/>
        <pt x="318" y="738" on="1"/>
        <pt x="292" y="738" on="0"/>
        <pt x="265" y="717" on="1"/>
        <pt x="253" y="735" on="1"/>
        <pt x="290" y="769" on="0"/>
        <pt x="324" y="769" on="1"/>
      </contour>
      <contour>
        <pt x="296" y="597" on="0"/>
        <pt x="350" y="556" on="1"/>
        <pt x="336" y="532" on="1"/>
        <pt x="329" y="532" on="1"/>
        <pt x="284" y="565" on="0"/>
        <pt x="239" y="600" on="1"/>
        <pt x="197" y="572" on="0"/>
        <pt x="132" y="532" on="1"/>
        <pt x="125" y="532" on="1"/>
        <pt x="117" y="556" on="1"/>
        <pt x="169" y="589" on="0"/>
        <pt x="232" y="638" on="1"/>
        <pt x="251" y="638" on="1"/>
      </contour>
    </TTGlyph>
    <TTGlyph name="circumflextilde" xMin="112" yMin="534" xMax="398" yMax="752">
      <contour>
        <pt x="398" y="729" on="1"/>
        <pt x="345" y="672" on="1"/>
        <pt x="338" y="670" on="1"/>
        <pt x="317" y="672" on="0"/>
        <pt x="260" y="690" on="1"/>
        <pt x="205" y="707" on="0"/>
        <pt x="191" y="707" on="1"/>
        <pt x="181" y="707" on="0"/>
        <pt x="159" y="683" on="1"/>
        <pt x="140" y="664" on="1"/>
        <pt x="135" y="664" on="1"/>
        <pt x="119" y="681" on="1"/>
        <pt x="119" y="687" on="1"/>
        <pt x="172" y="743" on="1"/>
        <pt x="179" y="746" on="1"/>
        <pt x="200" y="744" on="0"/>
        <pt x="255" y="726" on="1"/>
        <pt x="321" y="709" on="0"/>
        <pt x="327" y="709" on="1"/>
        <pt x="335" y="709" on="0"/>
        <pt x="361" y="735" on="1"/>
        <pt x="377" y="752" on="1"/>
        <pt x="383" y="752" on="1"/>
        <pt x="398" y="735" on="1"/>
      </contour>
      <contour>
        <pt x="305" y="587" on="0"/>
        <pt x="345" y="557" on="1"/>
        <pt x="331" y="534" on="1"/>
        <pt x="325" y="534" on="1"/>
        <pt x="293" y="556" on="0"/>
        <pt x="235" y="602" on="1"/>
        <pt x="165" y="556" on="0"/>
        <pt x="128" y="534" on="1"/>
        <pt x="121" y="534" on="1"/>
        <pt x="112" y="557" on="1"/>
        <pt x="158" y="585" on="0"/>
        <pt x="228" y="640" on="1"/>
        <pt x="247" y="640" on="1"/>
      </contour>
    </TTGlyph>
    <TTGlyph name="colon" xMin="58" yMin="-3" xMax="155" yMax="335">
      <component glyphName="period" x="0" y="0" flags="0x1000"/>
      <component glyphName="period" x="33" y="273" flags="0x1000"/>
    </TTGlyph>
    <TTGlyph name="comma" xMin="33" yMin="-106" xMax="130" yMax="63">
      <contour>
        <pt x="130" y="41" on="0"/>
        <pt x="130" y="6" on="1"/>
        <pt x="130" y="-48" on="0"/>
        <pt x="51" y="-106" on="1"/>
        <pt x="33" y="-89" on="1"/>
        <pt x="34" y="-84" on="1"/>
        <pt x="88" y="-42" on="0"/>
        <pt x="88" y="-2" on="1"/>
        <pt x="88" y="22" on="0"/>
        <pt x="58" y="39" on="1"/>
        <pt x="58" y="45" on="1"/>
        <pt x="75" y="58" on="0"/>
        <pt x="91" y="63" on="1"/>
      </contour>
    </TTGlyph>
    <TTGlyph name="commaaccentcomb" xMin="99" yMin="-228" xMax="192" yMax="-65">
      <contour>
        <pt x="192" y="-87" on="0"/>
        <pt x="192" y="-120" on="1"/>
        <pt x="192" y="-173" on="0"/>
        <pt x="116" y="-228" on="1"/>
        <pt x="99" y="-212" on="1"/>
        <pt x="100" y="-207" on="1"/>
        <pt x="152" y="-167" on="0"/>
        <pt x="152" y="-127" on="1"/>
        <pt x="152" y="-106" on="0"/>
        <pt x="123" y="-88" on="1"/>
        <pt x="123" y="-83" on="1"/>
        <pt x="137" y="-72" on="0"/>
        <pt x="154" y="-65" on="1"/>
      </contour>
    </TTGlyph>
    <TTGlyph name="copyright" xMin="59" yMin="-12" xMax="646" yMax="598">
      <contour>
        <pt x="439" y="598" on="0"/>
        <pt x="573" y="522" on="0"/>
        <pt x="646" y="384" on="0"/>
        <pt x="646" y="293" on="1"/>
        <pt x="646" y="202" on="0"/>
        <pt x="573" y="64" on="0"/>
        <pt x="439" y="-12" on="0"/>
        <pt x="352" y="-12" on="1"/>
        <pt x="265" y="-12" on="0"/>
        <pt x="132" y="64" on="0"/>
        <pt x="59" y="202" on="0"/>
        <pt x="59" y="293" on="1"/>
        <pt x="59" y="384" on="0"/>
        <pt x="132" y="522" on="0"/>
        <pt x="265" y="598" on="0"/>
        <pt x="352" y="598" on="1"/>
      </contour>
      <contour>
        <pt x="272" y="572" on="0"/>
        <pt x="151" y="502" on="0"/>
        <pt x="85" y="376" on="0"/>
        <pt x="85" y="293" on="1"/>
        <pt x="85" y="210" on="0"/>
        <pt x="151" y="84" on="0"/>
        <pt x="272" y="14" on="0"/>
        <pt x="352" y="14" on="1"/>
        <pt x="431" y="14" on="0"/>
        <pt x="552" y="84" on="0"/>
        <pt x="619" y="210" on="0"/>
        <pt x="619" y="293" on="1"/>
        <pt x="619" y="376" on="0"/>
        <pt x="552" y="502" on="0"/>
        <pt x="431" y="572" on="0"/>
        <pt x="352" y="572" on="1"/>
      </contour>
      <contour>
        <pt x="415" y="465" on="0"/>
        <pt x="460" y="439" on="1"/>
        <pt x="452" y="408" on="1"/>
        <pt x="447" y="407" on="1"/>
        <pt x="413" y="432" on="0"/>
        <pt x="363" y="432" on="1"/>
        <pt x="306" y="432" on="0"/>
        <pt x="246" y="364" on="0"/>
        <pt x="246" y="297" on="1"/>
        <pt x="246" y="229" on="0"/>
        <pt x="305" y="158" on="0"/>
        <pt x="360" y="158" on="1"/>
        <pt x="409" y="158" on="0"/>
        <pt x="453" y="186" on="1"/>
        <pt x="458" y="185" on="1"/>
        <pt x="454" y="153" on="1"/>
        <pt x="406" y="125" on="0"/>
        <pt x="358" y="125" on="1"/>
        <pt x="285" y="125" on="0"/>
        <pt x="208" y="213" on="0"/>
        <pt x="208" y="295" on="1"/>
        <pt x="208" y="377" on="0"/>
        <pt x="288" y="465" on="0"/>
        <pt x="364" y="465" on="1"/>
      </contour>
    </TTGlyph>
    <TTGlyph name="currency" xMin="42" yMin="188" xMax="426" yMax="537">
      <contour>
        <pt x="425" y="509" on="1"/>
        <pt x="352" y="445" on="1"/>
        <pt x="372" y="413" on="0"/>
        <pt x="372" y="376" on="1"/>
        <pt x="372" y="324" on="0"/>
        <pt x="332" y="282" on="1"/>
        <pt x="391" y="218" on="1"/>
        <pt x="390" y="211" on="1"/>
        <pt x="365" y="189" on="1"/>
        <pt x="359" y="190" on="1"/>
        <pt x="303" y="256" on="1"/>
        <pt x="265" y="226" on="0"/>
        <pt x="218" y="226" on="1"/>
        <pt x="172" y="226" on="0"/>
        <pt x="140" y="255" on="1"/>
        <pt x="68" y="188" on="1"/>
        <pt x="61" y="189" on="1"/>
        <pt x="42" y="211" on="1"/>
        <pt x="44" y="217" on="1"/>
        <pt x="117" y="281" on="1"/>
        <pt x="97" y="309" on="0"/>
        <pt x="97" y="350" on="1"/>
        <pt x="97" y="402" on="0"/>
        <pt x="137" y="444" on="1"/>
        <pt x="78" y="508" on="1"/>
        <pt x="80" y="515" on="1"/>
        <pt x="103" y="537" on="1"/>
        <pt x="110" y="537" on="1"/>
        <pt x="167" y="470" on="1"/>
        <pt x="206" y="499" on="0"/>
        <pt x="251" y="499" on="1"/>
        <pt x="295" y="499" on="0"/>
        <pt x="328" y="471" on="1"/>
        <pt x="400" y="537" on="1"/>
        <pt x="407" y="537" on="1"/>
        <pt x="426" y="515" on="1"/>
      </contour>
      <contour>
        <pt x="217" y="467" on="0"/>
        <pt x="163" y="436" on="0"/>
        <pt x="130" y="383" on="0"/>
        <pt x="130" y="352" on="1"/>
        <pt x="130" y="313" on="0"/>
        <pt x="182" y="259" on="0"/>
        <pt x="222" y="259" on="1"/>
        <pt x="253" y="259" on="0"/>
        <pt x="307" y="290" on="0"/>
        <pt x="340" y="342" on="0"/>
        <pt x="340" y="373" on="1"/>
        <pt x="340" y="412" on="0"/>
        <pt x="287" y="467" on="0"/>
        <pt x="247" y="467" on="1"/>
      </contour>
    </TTGlyph>
    <TTGlyph name="d" xMin="70" yMin="-4" xMax="501" yMax="498">
      <contour>
        <pt x="396" y="498" on="0"/>
        <pt x="501" y="395" on="0"/>
        <pt x="501" y="302" on="1"/>
        <pt x="501" y="159" on="0"/>
        <pt x="360" y="-4" on="0"/>
        <pt x="231" y="-4" on="1"/>
        <pt x="150" y="-4" on="0"/>
        <pt x="70" y="0" on="1"/>
        <pt x="90" y="150" on="1"/>
        <pt x="132" y="494" on="1"/>
        <pt x="302" y="498" on="1"/>
      </contour>
      <contour>
        <pt x="341" y="34" on="0"/>
        <pt x="453" y="171" on="0"/>
        <pt x="453" y="294" on="1"/>
        <pt x="453" y="374" on="0"/>
        <pt x="373" y="458" on="0"/>
        <pt x="297" y="458" on="1"/>
        <pt x="235" y="458" on="0"/>
        <pt x="173" y="454" on="1"/>
        <pt x="133" y="154" on="1"/>
        <pt x="120" y="39" on="1"/>
        <pt x="173" y="34" on="0"/>
        <pt x="240" y="34" on="1"/>
      </contour>
    </TTGlyph>
    <TTGlyph name="d.sups" xMin="66" yMin="340" xMax="322" yMax="809">
      <contour>
        <pt x="270" y="414" on="1"/>
        <pt x="265" y="344" on="1"/>
        <pt x="222" y="340" on="1"/>
        <pt x="242" y="492" on="1"/>
        <pt x="238" y="492" on="1"/>
        <pt x="186" y="396" on="0"/>
        <pt x="124" y="340" on="1"/>
        <pt x="115" y="340" on="1"/>
        <pt x="88" y="352" on="0"/>
        <pt x="66" y="395" on="0"/>
        <pt x="66" y="434" on="1"/>
        <pt x="66" y="515" on="0"/>
        <pt x="147" y="634" on="0"/>
        <pt x="220" y="643" on="1"/>
        <pt x="224" y="643" on="1"/>
        <pt x="261" y="639" on="1"/>
        <pt x="275" y="742" on="1"/>
        <pt x="279" y="804" on="1"/>
        <pt x="322" y="809" on="1"/>
      </contour>
      <contour>
        <pt x="132" y="380" on="0"/>
        <pt x="171" y="424" on="0"/>
        <pt x="224" y="502" on="0"/>
        <pt x="250" y="553" on="1"/>
        <pt x="257" y="607" on="1"/>
        <pt x="216" y="612" on="1"/>
        <pt x="165" y="612" on="0"/>
        <pt x="104" y="516" on="0"/>
        <pt x="104" y="448" on="1"/>
        <pt x="104" y="414" on="0"/>
        <pt x="119" y="380" on="0"/>
        <pt x="127" y="380" on="1"/>
      </contour>
    </TTGlyph>
    <TTGlyph name="dagger" xMin="61" yMin="-94" xMax="449" yMax="589">
      <contour>
        <pt x="270" y="362" on="1"/>
        <pt x="261" y="286" on="1"/>
        <pt x="215" y="-93" on="1"/>
        <pt x="182" y="-94" on="1"/>
        <pt x="178" y="-89" on="1"/>
        <pt x="224" y="284" on="1"/>
        <pt x="234" y="362" on="1"/>
        <pt x="64" y="362" on="1"/>
        <pt x="61" y="366" on="1"/>
        <pt x="68" y="398" on="1"/>
        <pt x="238" y="398" on="1"/>
        <pt x="261" y="586" on="1"/>
        <pt x="296" y="589" on="1"/>
        <pt x="298" y="586" on="1"/>
        <pt x="275" y="398" on="1"/>
        <pt x="445" y="398" on="1"/>
        <pt x="449" y="394" on="1"/>
        <pt x="441" y="362" on="1"/>
      </contour>
    </TTGlyph>
    <TTGlyph name="daggerdbl" xMin="27" yMin="-94" xMax="449" yMax="589">
      <contour>
        <pt x="242" y="129" on="1"/>
        <pt x="411" y="129" on="1"/>
        <pt x="416" y="125" on="1"/>
        <pt x="409" y="92" on="1"/>
        <pt x="237" y="92" on="1"/>
        <pt x="214" y="-93" on="1"/>
        <pt x="182" y="-94" on="1"/>
        <pt x="178" y="-89" on="1"/>
        <pt x="200" y="92" on="1"/>
        <pt x="32" y="92" on="1"/>
        <pt x="27" y="97" on="1"/>
        <pt x="35" y="129" on="1"/>
        <pt x="205" y="129" on="1"/>
        <pt x="224" y="284" on="1"/>
        <pt x="234" y="364" on="1"/>
        <pt x="65" y="364" on="1"/>
        <pt x="61" y="369" on="1"/>
        <pt x="68" y="401" on="1"/>
        <pt x="238" y="401" on="1"/>
        <pt x="261" y="586" on="1"/>
        <pt x="296" y="589" on="1"/>
        <pt x="298" y="586" on="1"/>
        <pt x="275" y="401" on="1"/>
        <pt x="445" y="401" on="1"/>
        <pt x="449" y="397" on="1"/>
        <pt x="442" y="364" on="1"/>
        <pt x="271" y="364" on="1"/>
        <pt x="261" y="286" on="1"/>
      </contour>
    </TTGlyph>
    <TTGlyph name="dcaron" xMin="70" yMin="-4" xMax="501" yMax="711">
      <component glyphName="d" x="0" y="0" flags="0x1000"/>
      <component glyphName="caron" x="61" y="39" flags="0x1000"/>
    </TTGlyph>
    <TTGlyph name="dcroat" xMin="70" yMin="-4" xMax="501" yMax="659">
      <component glyphName="d" x="0" y="0" flags="0x1000"/>
      <component glyphName="macron" x="68" y="39" flags="0x1000"/>
    </TTGlyph>
    <TTGlyph name="degree" xMin="58" yMin="401" xMax="308" yMax="645">
      <contour>
        <pt x="246" y="645" on="0"/>
        <pt x="308" y="582" on="0"/>
        <pt x="308" y="535" on="1"/>
        <pt x="308" y="499" on="0"/>
        <pt x="269" y="437" on="0"/>
        <pt x="205" y="401" on="0"/>
        <pt x="169" y="401" on="1"/>
        <pt x="121" y="401" on="0"/>
        <pt x="58" y="463" on="0"/>
        <pt x="58" y="510" on="1"/>
        <pt x="58" y="546" on="0"/>
        <pt x="97" y="608" on="0"/>
        <pt x="162" y="645" on="0"/>
        <pt x="199" y="645" on="1"/>
      </contour>
      <contour>
        <pt x="168" y="616" on="0"/>
        <pt x="118" y="588" on="0"/>
        <pt x="88" y="540" on="0"/>
        <pt x="88" y="514" on="1"/>
        <pt x="88" y="479" on="0"/>
        <pt x="136" y="430" on="0"/>
        <pt x="172" y="430" on="1"/>
        <pt x="199" y="430" on="0"/>
        <pt x="248" y="458" on="0"/>
        <pt x="278" y="505" on="0"/>
        <pt x="278" y="531" on="1"/>
        <pt x="278" y="566" on="0"/>
        <pt x="230" y="616" on="0"/>
        <pt x="195" y="616" on="1"/>
      </contour>
    </TTGlyph>
    <TTGlyph name="dieresis" xMin="132" yMin="569" xMax="349" yMax="633">
      <contour>
        <pt x="178" y="633" on="0"/>
        <pt x="194" y="616" on="0"/>
        <pt x="194" y="602" on="1"/>
        <pt x="194" y="570" on="0"/>
        <pt x="163" y="570" on="1"/>
        <pt x="132" y="570" on="0"/>
        <pt x="132" y="601" on="1"/>
        <pt x="132" y="615" on="0"/>
        <pt x="149" y="633" on="0"/>
        <pt x="164" y="633" on="1"/>
      </contour>
      <contour>
        <pt x="333" y="632" on="0"/>
        <pt x="349" y="616" on="0"/>
        <pt x="349" y="602" on="1"/>
        <pt x="349" y="587" on="0"/>
        <pt x="332" y="569" on="0"/>
        <pt x="318" y="569" on="1"/>
        <pt x="287" y="569" on="0"/>
        <pt x="287" y="600" on="1"/>
        <pt x="287" y="632" on="0"/>
        <pt x="319" y="632" on="1"/>
      </contour>
    </TTGlyph>
    <TTGlyph name="dieresis.i" xMin="153" yMin="569" xMax="328" yMax="632">
      <contour>
        <pt x="199" y="632" on="0"/>
        <pt x="215" y="616" on="0"/>
        <pt x="215" y="602" on="1"/>
        <pt x="215" y="587" on="0"/>
        <pt x="197" y="569" on="0"/>
        <pt x="183" y="569" on="1"/>
        <pt x="153" y="569" on="0"/>
        <pt x="153" y="600" on="1"/>
        <pt x="153" y="632" on="0"/>
        <pt x="185" y="632" on="1"/>
      </contour>
      <contour>
        <pt x="328" y="632" on="0"/>
        <pt x="328" y="602" on="1"/>
        <pt x="328" y="587" on="0"/>
        <pt x="311" y="569" on="0"/>
        <pt x="297" y="569" on="1"/>
        <pt x="283" y="569" on="0"/>
        <pt x="266" y="586" on="0"/>
        <pt x="266" y="600" on="1"/>
        <pt x="266" y="615" on="0"/>
        <pt x="284" y="632" on="0"/>
        <pt x="298" y="632" on="1"/>
      </contour>
    </TTGlyph>
    <TTGlyph name="dieresisacute" xMin="133" yMin="550" xMax="355" yMax="763">
      <contour>
        <pt x="355" y="729" on="1"/>
        <pt x="351" y="722" on="1"/>
        <pt x="268" y="696" on="0"/>
        <pt x="154" y="667" on="1"/>
        <pt x="148" y="671" on="1"/>
        <pt x="142" y="698" on="1"/>
        <pt x="238" y="724" on="0"/>
        <pt x="340" y="763" on="1"/>
        <pt x="346" y="759" on="1"/>
      </contour>
      <contour>
        <pt x="177" y="611" on="0"/>
        <pt x="193" y="595" on="0"/>
        <pt x="193" y="581" on="1"/>
        <pt x="193" y="567" on="0"/>
        <pt x="176" y="550" on="0"/>
        <pt x="162" y="550" on="1"/>
        <pt x="149" y="550" on="0"/>
        <pt x="133" y="566" on="0"/>
        <pt x="133" y="580" on="1"/>
        <pt x="133" y="594" on="0"/>
        <pt x="150" y="611" on="0"/>
        <pt x="164" y="611" on="1"/>
      </contour>
      <contour>
        <pt x="325" y="611" on="0"/>
        <pt x="341" y="595" on="0"/>
        <pt x="341" y="581" on="1"/>
        <pt x="341" y="567" on="0"/>
        <pt x="324" y="550" on="0"/>
        <pt x="310" y="550" on="1"/>
        <pt x="297" y="550" on="0"/>
        <pt x="281" y="566" on="0"/>
        <pt x="281" y="580" on="1"/>
        <pt x="281" y="594" on="0"/>
        <pt x="298" y="611" on="0"/>
        <pt x="312" y="611" on="1"/>
      </contour>
    </TTGlyph>
    <TTGlyph name="dieresiscaron" xMin="132" yMin="550" xMax="365" yMax="745">
      <contour>
        <pt x="309" y="686" on="0"/>
        <pt x="250" y="639" on="1"/>
        <pt x="231" y="639" on="1"/>
        <pt x="188" y="679" on="0"/>
        <pt x="132" y="722" on="1"/>
        <pt x="146" y="745" on="1"/>
        <pt x="153" y="745" on="1"/>
        <pt x="197" y="714" on="0"/>
        <pt x="243" y="677" on="1"/>
        <pt x="291" y="711" on="0"/>
        <pt x="350" y="745" on="1"/>
        <pt x="357" y="745" on="1"/>
        <pt x="365" y="722" on="1"/>
      </contour>
      <contour>
        <pt x="177" y="611" on="0"/>
        <pt x="193" y="595" on="0"/>
        <pt x="193" y="581" on="1"/>
        <pt x="193" y="567" on="0"/>
        <pt x="176" y="550" on="0"/>
        <pt x="162" y="550" on="1"/>
        <pt x="149" y="550" on="0"/>
        <pt x="133" y="566" on="0"/>
        <pt x="133" y="580" on="1"/>
        <pt x="133" y="594" on="0"/>
        <pt x="150" y="611" on="0"/>
        <pt x="164" y="611" on="1"/>
      </contour>
      <contour>
        <pt x="325" y="611" on="0"/>
        <pt x="341" y="595" on="0"/>
        <pt x="341" y="581" on="1"/>
        <pt x="341" y="567" on="0"/>
        <pt x="324" y="550" on="0"/>
        <pt x="311" y="550" on="1"/>
        <pt x="298" y="550" on="0"/>
        <pt x="281" y="567" on="0"/>
        <pt x="281" y="580" on="1"/>
        <pt x="281" y="594" on="0"/>
        <pt x="298" y="611" on="0"/>
        <pt x="312" y="611" on="1"/>
      </contour>
    </TTGlyph>
    <TTGlyph name="dieresisgrave" xMin="130" yMin="550" xMax="362" yMax="763">
      <contour>
        <pt x="263" y="726" on="0"/>
        <pt x="362" y="698" on="1"/>
        <pt x="353" y="671" on="1"/>
        <pt x="346" y="667" on="1"/>
        <pt x="232" y="698" on="0"/>
        <pt x="157" y="722" on="1"/>
        <pt x="153" y="729" on="1"/>
        <pt x="166" y="759" on="1"/>
        <pt x="172" y="763" on="1"/>
      </contour>
      <contour>
        <pt x="191" y="611" on="0"/>
        <pt x="191" y="585" on="1"/>
        <pt x="191" y="569" on="0"/>
        <pt x="171" y="550" on="0"/>
        <pt x="156" y="550" on="1"/>
        <pt x="130" y="550" on="0"/>
        <pt x="130" y="576" on="1"/>
        <pt x="130" y="592" on="0"/>
        <pt x="149" y="611" on="0"/>
        <pt x="165" y="611" on="1"/>
      </contour>
      <contour>
        <pt x="339" y="611" on="0"/>
        <pt x="339" y="585" on="1"/>
        <pt x="339" y="569" on="0"/>
        <pt x="320" y="550" on="0"/>
        <pt x="304" y="550" on="1"/>
        <pt x="278" y="550" on="0"/>
        <pt x="278" y="576" on="1"/>
        <pt x="278" y="592" on="0"/>
        <pt x="297" y="611" on="0"/>
        <pt x="313" y="611" on="1"/>
      </contour>
    </TTGlyph>
    <TTGlyph name="dieresismacron" xMin="133" yMin="550" xMax="388" yMax="718">
      <contour>
        <pt x="385" y="682" on="1"/>
        <pt x="138" y="682" on="1"/>
        <pt x="133" y="687" on="1"/>
        <pt x="136" y="718" on="1"/>
        <pt x="384" y="718" on="1"/>
        <pt x="388" y="713" on="1"/>
      </contour>
      <contour>
        <pt x="190" y="611" on="0"/>
        <pt x="206" y="595" on="0"/>
        <pt x="206" y="581" on="1"/>
        <pt x="206" y="567" on="0"/>
        <pt x="189" y="550" on="0"/>
        <pt x="176" y="550" on="1"/>
        <pt x="163" y="550" on="0"/>
        <pt x="146" y="567" on="0"/>
        <pt x="146" y="580" on="1"/>
        <pt x="146" y="594" on="0"/>
        <pt x="163" y="611" on="0"/>
        <pt x="177" y="611" on="1"/>
      </contour>
      <contour>
        <pt x="338" y="611" on="0"/>
        <pt x="354" y="595" on="0"/>
        <pt x="354" y="581" on="1"/>
        <pt x="354" y="567" on="0"/>
        <pt x="338" y="550" on="0"/>
        <pt x="324" y="550" on="1"/>
        <pt x="311" y="550" on="0"/>
        <pt x="294" y="567" on="0"/>
        <pt x="294" y="580" on="1"/>
        <pt x="294" y="594" on="0"/>
        <pt x="311" y="611" on="0"/>
        <pt x="325" y="611" on="1"/>
      </contour>
    </TTGlyph>
    <TTGlyph name="divide" xMin="39" yMin="56" xMax="449" yMax="467">
      <component glyphName="minus" x="0" y="0" flags="0x1000"/>
      <component glyphName="period" x="130" y="59" scale="0.9716796875" flags="0x1000"/>
      <component glyphName="period" x="172" y="406" scale="0.9716796875" flags="0x1000"/>
    </TTGlyph>
    <TTGlyph name="divisionslash" xMin="8" yMin="-111" xMax="306" yMax="676">
      <component glyphName="slash" x="0" y="0" flags="0x1000"/>
    </TTGlyph>
    <TTGlyph name="dollar" xMin="34" yMin="-127" xMax="361" yMax="635">
      <contour>
        <pt x="317" y="493" on="0"/>
        <pt x="361" y="474" on="1"/>
        <pt x="349" y="434" on="1"/>
        <pt x="340" y="432" on="1"/>
        <pt x="301" y="459" on="0"/>
        <pt x="258" y="462" on="1"/>
        <pt x="231" y="264" on="1"/>
        <pt x="283" y="239" on="0"/>
        <pt x="339" y="186" on="0"/>
        <pt x="339" y="140" on="1"/>
        <pt x="339" y="88" on="0"/>
        <pt x="260" y="7" on="0"/>
        <pt x="195" y="-2" on="1"/>
        <pt x="178" y="-127" on="1"/>
        <pt x="152" y="-127" on="1"/>
        <pt x="146" y="-121" on="1"/>
        <pt x="162" y="-4" on="1"/>
        <pt x="86" y="-2" on="0"/>
        <pt x="34" y="31" on="1"/>
        <pt x="42" y="74" on="1"/>
        <pt x="49" y="76" on="1"/>
        <pt x="72" y="55" on="0"/>
        <pt x="136" y="32" on="0"/>
        <pt x="167" y="31" on="1"/>
        <pt x="194" y="234" on="1"/>
        <pt x="140" y="260" on="0"/>
        <pt x="83" y="313" on="0"/>
        <pt x="83" y="359" on="1"/>
        <pt x="83" y="411" on="0"/>
        <pt x="164" y="490" on="0"/>
        <pt x="229" y="496" on="1"/>
        <pt x="247" y="635" on="1"/>
        <pt x="274" y="635" on="1"/>
        <pt x="281" y="628" on="1"/>
        <pt x="263" y="497" on="1"/>
      </contour>
      <contour>
        <pt x="124" y="335" on="0"/>
        <pt x="163" y="298" on="0"/>
        <pt x="200" y="279" on="1"/>
        <pt x="224" y="460" on="1"/>
        <pt x="179" y="454" on="0"/>
        <pt x="124" y="398" on="0"/>
        <pt x="124" y="364" on="1"/>
      </contour>
      <contour>
        <pt x="298" y="163" on="0"/>
        <pt x="261" y="200" on="0"/>
        <pt x="225" y="219" on="1"/>
        <pt x="200" y="34" on="1"/>
        <pt x="243" y="43" on="0"/>
        <pt x="298" y="101" on="0"/>
        <pt x="298" y="135" on="1"/>
      </contour>
    </TTGlyph>
    <TTGlyph name="dotaccent" xMin="209" yMin="581" xMax="273" yMax="646">
      <contour>
        <pt x="273" y="646" on="0"/>
        <pt x="273" y="614" on="1"/>
        <pt x="273" y="599" on="0"/>
        <pt x="256" y="581" on="0"/>
        <pt x="241" y="581" on="1"/>
        <pt x="209" y="581" on="0"/>
        <pt x="209" y="613" on="1"/>
        <pt x="209" y="628" on="0"/>
        <pt x="227" y="646" on="0"/>
        <pt x="242" y="646" on="1"/>
      </contour>
    </TTGlyph>
    <TTGlyph name="dotbelowcomb" xMin="121" yMin="-145" xMax="185" yMax="-80">
      <contour>
        <pt x="168" y="-80" on="0"/>
        <pt x="185" y="-97" on="0"/>
        <pt x="185" y="-111" on="1"/>
        <pt x="185" y="-126" on="0"/>
        <pt x="167" y="-145" on="0"/>
        <pt x="152" y="-145" on="1"/>
        <pt x="138" y="-145" on="0"/>
        <pt x="121" y="-127" on="0"/>
        <pt x="121" y="-113" on="1"/>
        <pt x="121" y="-80" on="0"/>
        <pt x="154" y="-80" on="1"/>
      </contour>
    </TTGlyph>
    <TTGlyph name="dotlessi" xMin="69" yMin="0" xMax="177" yMax="494">
      <component glyphName="i" x="0" y="0" flags="0x1000"/>
    </TTGlyph>
    <TTGlyph name="dotlessj" xMin="2" yMin="-78" xMax="198" yMax="494">
      <component glyphName="j" x="0" y="0" flags="0x1000"/>
    </TTGlyph>
    <TTGlyph name="down" xMin="65" yMin="75" xMax="342" yMax="352">
      <contour>
        <pt x="65" y="352" on="1"/>
        <pt x="342" y="352" on="1"/>
        <pt x="203" y="75" on="1"/>
      </contour>
    </TTGlyph>
    <TTGlyph name="e" xMin="69" yMin="0" xMax="402" yMax="494">
      <contour>
        <pt x="148" y="274" on="1"/>
        <pt x="247" y="274" on="1"/>
        <pt x="330" y="275" on="1"/>
        <pt x="333" y="270" on="1"/>
        <pt x="325" y="234" on="1"/>
        <pt x="238" y="235" on="1"/>
        <pt x="143" y="235" on="1"/>
        <pt x="132" y="154" on="1"/>
        <pt x="119" y="39" on="1"/>
        <pt x="217" y="38" on="1"/>
        <pt x="343" y="40" on="1"/>
        <pt x="347" y="36" on="1"/>
        <pt x="337" y="0" on="1"/>
        <pt x="69" y="0" on="1"/>
        <pt x="89" y="150" on="1"/>
        <pt x="131" y="494" on="1"/>
        <pt x="399" y="494" on="1"/>
        <pt x="402" y="489" on="1"/>
        <pt x="393" y="453" on="1"/>
        <pt x="276" y="456" on="1"/>
        <pt x="172" y="456" on="1"/>
      </contour>
    </TTGlyph>
    <TTGlyph name="e.sups" xMin="68" yMin="340" xMax="272" yMax="646">
      <contour>
        <pt x="255" y="413" on="1"/>
        <pt x="214" y="349" on="0"/>
        <pt x="153" y="340" on="1"/>
        <pt x="146" y="340" on="1"/>
        <pt x="104" y="344" on="0"/>
        <pt x="68" y="396" on="0"/>
        <pt x="68" y="445" on="1"/>
        <pt x="68" y="502" on="0"/>
        <pt x="105" y="592" on="0"/>
        <pt x="169" y="644" on="0"/>
        <pt x="210" y="646" on="1"/>
        <pt x="216" y="646" on="1"/>
        <pt x="272" y="638" on="0"/>
        <pt x="272" y="591" on="1"/>
        <pt x="272" y="513" on="0"/>
        <pt x="107" y="458" on="1"/>
        <pt x="107" y="454" on="1"/>
        <pt x="107" y="371" on="0"/>
        <pt x="154" y="371" on="1"/>
        <pt x="200" y="371" on="0"/>
        <pt x="234" y="431" on="1"/>
        <pt x="241" y="430" on="1"/>
      </contour>
      <contour>
        <pt x="166" y="616" on="0"/>
        <pt x="114" y="544" on="0"/>
        <pt x="109" y="485" on="1"/>
        <pt x="235" y="532" on="0"/>
        <pt x="235" y="587" on="1"/>
        <pt x="235" y="616" on="0"/>
        <pt x="203" y="616" on="1"/>
      </contour>
    </TTGlyph>
    <TTGlyph name="eacute" xMin="69" yMin="0" xMax="402" yMax="721">
      <component glyphName="e" x="0" y="0" flags="0x1000"/>
      <component glyphName="acute" x="44" y="39" flags="0x1000"/>
    </TTGlyph>
    <TTGlyph name="ebreve" xMin="69" yMin="0" xMax="402" yMax="694">
      <component glyphName="e" x="0" y="0" flags="0x1000"/>
      <component glyphName="breve" x="36" y="39" flags="0x1000"/>
    </TTGlyph>
    <TTGlyph name="ecaron" xMin="69" yMin="0" xMax="403" yMax="711">
      <component glyphName="e" x="0" y="0" flags="0x1000"/>
      <component glyphName="caron" x="35" y="39" flags="0x1000"/>
    </TTGlyph>
    <TTGlyph name="ecircumflex" xMin="69" yMin="0" xMax="402" yMax="706">
      <component glyphName="e" x="0" y="0" flags="0x1000"/>
      <component glyphName="circumflex" x="49" y="39" flags="0x1000"/>
    </TTGlyph>
    <TTGlyph name="ecircumflexacute" xMin="69" yMin="0" xMax="428" yMax="775">
      <component glyphName="e" x="0" y="0" flags="0x1000"/>
      <component glyphName="circumflexacute" x="42" y="39" flags="0x1000"/>
    </TTGlyph>
    <TTGlyph name="ecircumflexdotbelow" xMin="69" yMin="-145" xMax="402" yMax="706">
      <component glyphName="e" x="0" y="0" flags="0x1000"/>
      <component glyphName="dotbelowcomb" x="52" y="0" flags="0x1000"/>
      <component glyphName="circumflex" x="49" y="39" flags="0x1000"/>
    </TTGlyph>
    <TTGlyph name="ecircumflexgrave" xMin="69" yMin="0" xMax="402" yMax="775">
      <component glyphName="e" x="0" y="0" flags="0x1000"/>
      <component glyphName="circumflexgrave" x="42" y="39" flags="0x1000"/>
    </TTGlyph>
    <TTGlyph name="ecircumflexhookabove" xMin="69" yMin="0" xMax="417" yMax="808">
      <component glyphName="e" x="0" y="0" flags="0x1000"/>
      <component glyphName="circumflexhookabove" x="42" y="39" flags="0x1000"/>
    </TTGlyph>
    <TTGlyph name="ecircumflextilde" xMin="69" yMin="0" xMax="449" yMax="791">
      <component glyphName="e" x="0" y="0" flags="0x1000"/>
      <component glyphName="circumflextilde" x="51" y="39" flags="0x1000"/>
    </TTGlyph>
    <TTGlyph name="edieresis" xMin="69" yMin="0" xMax="402" yMax="672">
      <component glyphName="e" x="0" y="0" flags="0x1000"/>
      <component glyphName="dieresis" x="42" y="39" flags="0x1000"/>
    </TTGlyph>
    <TTGlyph name="edotaccent" xMin="69" yMin="0" xMax="402" yMax="685">
      <component glyphName="e" x="0" y="0" flags="0x1000"/>
      <component glyphName="dotaccent" x="42" y="39" flags="0x1000"/>
    </TTGlyph>
    <TTGlyph name="edotbelow" xMin="69" yMin="-145" xMax="402" yMax="494">
      <component glyphName="e" x="0" y="0" flags="0x1000"/>
      <component glyphName="dotbelowcomb" x="52" y="0" flags="0x1000"/>
    </TTGlyph>
    <TTGlyph name="egrave" xMin="69" yMin="0" xMax="402" yMax="721">
      <component glyphName="e" x="0" y="0" flags="0x1000"/>
      <component glyphName="grave" x="32" y="39" flags="0x1000"/>
    </TTGlyph>
    <TTGlyph name="ehookabove" xMin="69" yMin="0" xMax="402" yMax="733">
      <component glyphName="e" x="0" y="0" flags="0x1000"/>
      <component glyphName="hookabove" x="14" y="39" flags="0x1000"/>
    </TTGlyph>
    <TTGlyph name="eight" xMin="44" yMin="-5" xMax="412" yMax="590">
      <contour>
        <pt x="336" y="590" on="0"/>
        <pt x="412" y="524" on="0"/>
        <pt x="412" y="464" on="1"/>
        <pt x="412" y="361" on="0"/>
        <pt x="285" y="308" on="1"/>
        <pt x="284" y="304" on="1"/>
        <pt x="322" y="287" on="0"/>
        <pt x="369" y="254" on="0"/>
        <pt x="400" y="202" on="0"/>
        <pt x="400" y="163" on="1"/>
        <pt x="400" y="115" on="0"/>
        <pt x="352" y="38" on="0"/>
        <pt x="265" y="-5" on="0"/>
        <pt x="208" y="-5" on="1"/>
        <pt x="132" y="-5" on="0"/>
        <pt x="44" y="70" on="0"/>
        <pt x="44" y="134" on="1"/>
        <pt x="44" y="197" on="0"/>
        <pt x="125" y="275" on="0"/>
        <pt x="191" y="301" on="1"/>
        <pt x="192" y="305" on="1"/>
        <pt x="147" y="327" on="0"/>
        <pt x="101" y="384" on="0"/>
        <pt x="101" y="433" on="1"/>
        <pt x="101" y="503" on="0"/>
        <pt x="197" y="590" on="0"/>
        <pt x="272" y="590" on="1"/>
      </contour>
      <contour>
        <pt x="214" y="553" on="0"/>
        <pt x="142" y="489" on="0"/>
        <pt x="142" y="437" on="1"/>
        <pt x="142" y="393" on="0"/>
        <pt x="192" y="345" on="0"/>
        <pt x="242" y="323" on="1"/>
        <pt x="300" y="343" on="0"/>
        <pt x="371" y="407" on="0"/>
        <pt x="371" y="461" on="1"/>
        <pt x="371" y="505" on="0"/>
        <pt x="319" y="553" on="0"/>
        <pt x="271" y="553" on="1"/>
      </contour>
      <contour>
        <pt x="189" y="269" on="0"/>
        <pt x="129" y="236" on="0"/>
        <pt x="86" y="180" on="0"/>
        <pt x="86" y="139" on="1"/>
        <pt x="86" y="89" on="0"/>
        <pt x="152" y="31" on="0"/>
        <pt x="209" y="31" on="1"/>
        <pt x="275" y="31" on="0"/>
        <pt x="358" y="104" on="0"/>
        <pt x="358" y="159" on="1"/>
        <pt x="358" y="193" on="0"/>
        <pt x="326" y="238" on="0"/>
        <pt x="277" y="266" on="0"/>
        <pt x="232" y="285" on="1"/>
      </contour>
    </TTGlyph>
    <TTGlyph name="eight.dnom" xMin="24" yMin="-4" xMax="280" yMax="376">
      <contour>
        <pt x="230" y="376" on="0"/>
        <pt x="280" y="335" on="0"/>
        <pt x="280" y="298" on="1"/>
        <pt x="280" y="260" on="0"/>
        <pt x="234" y="213" on="0"/>
        <pt x="193" y="197" on="1"/>
        <pt x="192" y="195" on="1"/>
        <pt x="229" y="179" on="0"/>
        <pt x="269" y="142" on="0"/>
        <pt x="269" y="110" on="1"/>
        <pt x="269" y="58" on="0"/>
        <pt x="193" y="-4" on="0"/>
        <pt x="131" y="-4" on="1"/>
        <pt x="81" y="-4" on="0"/>
        <pt x="24" y="43" on="0"/>
        <pt x="24" y="83" on="1"/>
        <pt x="24" y="154" on="0"/>
        <pt x="124" y="189" on="1"/>
        <pt x="124" y="192" on="1"/>
        <pt x="63" y="220" on="0"/>
        <pt x="63" y="271" on="1"/>
        <pt x="63" y="319" on="0"/>
        <pt x="132" y="376" on="0"/>
        <pt x="187" y="376" on="1"/>
      </contour>
      <contour>
        <pt x="146" y="346" on="0"/>
        <pt x="100" y="307" on="0"/>
        <pt x="100" y="274" on="1"/>
        <pt x="100" y="250" on="0"/>
        <pt x="133" y="221" on="0"/>
        <pt x="163" y="208" on="1"/>
        <pt x="201" y="222" on="0"/>
        <pt x="244" y="259" on="0"/>
        <pt x="244" y="292" on="1"/>
        <pt x="244" y="317" on="0"/>
        <pt x="211" y="346" on="0"/>
        <pt x="182" y="346" on="1"/>
      </contour>
      <contour>
        <pt x="110" y="162" on="0"/>
        <pt x="61" y="123" on="0"/>
        <pt x="61" y="87" on="1"/>
        <pt x="61" y="60" on="0"/>
        <pt x="101" y="27" on="0"/>
        <pt x="136" y="27" on="1"/>
        <pt x="180" y="27" on="0"/>
        <pt x="233" y="70" on="0"/>
        <pt x="233" y="104" on="1"/>
        <pt x="233" y="124" on="0"/>
        <pt x="211" y="150" on="0"/>
        <pt x="182" y="164" on="0"/>
        <pt x="152" y="177" on="1"/>
      </contour>
    </TTGlyph>
    <TTGlyph name="eight.lf" xMin="44" yMin="-5" xMax="412" yMax="590">
      <component glyphName="eight" x="0" y="0" flags="0x1000"/>
    </TTGlyph>
    <TTGlyph name="eight.numr" xMin="57" yMin="262" xMax="313" yMax="642">
      <component glyphName="eight.dnom" x="33" y="266" flags="0x1000"/>
    </TTGlyph>
    <TTGlyph name="eight.sinf" xMin="-1" yMin="-124" xMax="255" yMax="256">
      <component glyphName="eight.dnom" x="-25" y="-120" flags="0x1000"/>
    </TTGlyph>
    <TTGlyph name="eight.tf" xMin="48" yMin="-5" xMax="421" yMax="590">
      <contour>
        <pt x="344" y="590" on="0"/>
        <pt x="421" y="524" on="0"/>
        <pt x="421" y="464" on="1"/>
        <pt x="421" y="362" on="0"/>
        <pt x="292" y="308" on="1"/>
        <pt x="292" y="304" on="1"/>
        <pt x="330" y="287" on="0"/>
        <pt x="378" y="254" on="0"/>
        <pt x="409" y="202" on="0"/>
        <pt x="409" y="163" on="1"/>
        <pt x="409" y="115" on="0"/>
        <pt x="361" y="38" on="0"/>
        <pt x="272" y="-5" on="0"/>
        <pt x="215" y="-5" on="1"/>
        <pt x="138" y="-5" on="0"/>
        <pt x="48" y="70" on="0"/>
        <pt x="48" y="134" on="1"/>
        <pt x="48" y="197" on="0"/>
        <pt x="130" y="275" on="0"/>
        <pt x="198" y="301" on="1"/>
        <pt x="199" y="305" on="1"/>
        <pt x="153" y="327" on="0"/>
        <pt x="106" y="384" on="0"/>
        <pt x="106" y="433" on="1"/>
        <pt x="106" y="503" on="0"/>
        <pt x="203" y="590" on="0"/>
        <pt x="279" y="590" on="1"/>
      </contour>
      <contour>
        <pt x="220" y="553" on="0"/>
        <pt x="147" y="489" on="0"/>
        <pt x="147" y="437" on="1"/>
        <pt x="147" y="393" on="0"/>
        <pt x="198" y="345" on="0"/>
        <pt x="249" y="323" on="1"/>
        <pt x="308" y="343" on="0"/>
        <pt x="380" y="407" on="0"/>
        <pt x="380" y="461" on="1"/>
        <pt x="380" y="505" on="0"/>
        <pt x="327" y="553" on="0"/>
        <pt x="278" y="553" on="1"/>
      </contour>
      <contour>
        <pt x="195" y="269" on="0"/>
        <pt x="134" y="236" on="0"/>
        <pt x="91" y="180" on="0"/>
        <pt x="91" y="139" on="1"/>
        <pt x="91" y="89" on="0"/>
        <pt x="157" y="31" on="0"/>
        <pt x="216" y="31" on="1"/>
        <pt x="283" y="31" on="0"/>
        <pt x="367" y="104" on="0"/>
        <pt x="367" y="159" on="1"/>
        <pt x="367" y="193" on="0"/>
        <pt x="334" y="238" on="0"/>
        <pt x="284" y="266" on="0"/>
        <pt x="239" y="285" on="1"/>
      </contour>
    </TTGlyph>
    <TTGlyph name="eight.tosf" xMin="48" yMin="-5" xMax="418" yMax="590">
      <contour>
        <pt x="342" y="590" on="0"/>
        <pt x="418" y="524" on="0"/>
        <pt x="418" y="464" on="1"/>
        <pt x="418" y="361" on="0"/>
        <pt x="291" y="308" on="1"/>
        <pt x="290" y="304" on="1"/>
        <pt x="328" y="287" on="0"/>
        <pt x="375" y="254" on="0"/>
        <pt x="406" y="202" on="0"/>
        <pt x="406" y="163" on="1"/>
        <pt x="406" y="115" on="0"/>
        <pt x="358" y="38" on="0"/>
        <pt x="271" y="-5" on="0"/>
        <pt x="214" y="-5" on="1"/>
        <pt x="138" y="-5" on="0"/>
        <pt x="48" y="70" on="0"/>
        <pt x="48" y="134" on="1"/>
        <pt x="48" y="197" on="0"/>
        <pt x="130" y="275" on="0"/>
        <pt x="197" y="301" on="1"/>
        <pt x="198" y="305" on="1"/>
        <pt x="153" y="327" on="0"/>
        <pt x="106" y="384" on="0"/>
        <pt x="106" y="433" on="1"/>
        <pt x="106" y="503" on="0"/>
        <pt x="202" y="590" on="0"/>
        <pt x="278" y="590" on="1"/>
      </contour>
      <contour>
        <pt x="219" y="553" on="0"/>
        <pt x="146" y="489" on="0"/>
        <pt x="146" y="437" on="1"/>
        <pt x="146" y="393" on="0"/>
        <pt x="197" y="345" on="0"/>
        <pt x="248" y="323" on="1"/>
        <pt x="306" y="343" on="0"/>
        <pt x="377" y="407" on="0"/>
        <pt x="377" y="461" on="1"/>
        <pt x="377" y="505" on="0"/>
        <pt x="325" y="553" on="0"/>
        <pt x="277" y="553" on="1"/>
      </contour>
      <contour>
        <pt x="194" y="269" on="0"/>
        <pt x="134" y="236" on="0"/>
        <pt x="91" y="180" on="0"/>
        <pt x="91" y="139" on="1"/>
        <pt x="91" y="89" on="0"/>
        <pt x="157" y="31" on="0"/>
        <pt x="215" y="31" on="1"/>
        <pt x="281" y="31" on="0"/>
        <pt x="364" y="104" on="0"/>
        <pt x="364" y="159" on="1"/>
        <pt x="364" y="193" on="0"/>
        <pt x="332" y="238" on="0"/>
        <pt x="282" y="266" on="0"/>
        <pt x="237" y="285" on="1"/>
      </contour>
    </TTGlyph>
    <TTGlyph name="eightsuperior" xMin="64" yMin="323" xMax="320" yMax="703">
      <component glyphName="eight.dnom" x="40" y="327" flags="0x1000"/>
    </TTGlyph>
    <TTGlyph name="ellipsis" xMin="30" yMin="-3" xMax="418" yMax="62">
      <component glyphName="period" x="134" y="0" flags="0x1000"/>
      <component glyphName="period" x="296" y="0" flags="0x1000"/>
      <component glyphName="period" x="-28" y="0" flags="0x1000"/>
    </TTGlyph>
    <TTGlyph name="emacron" xMin="69" yMin="0" xMax="429" yMax="659">
      <component glyphName="e" x="0" y="0" flags="0x1000"/>
      <component glyphName="macron" x="42" y="39" flags="0x1000"/>
    </TTGlyph>
    <TTGlyph name="emdash" xMin="-13" yMin="236" xMax="973" yMax="273">
      <contour>
        <pt x="966" y="236" on="1"/>
        <pt x="-10" y="236" on="1"/>
        <pt x="-13" y="241" on="1"/>
        <pt x="-6" y="273" on="1"/>
        <pt x="969" y="273" on="1"/>
        <pt x="973" y="269" on="1"/>
      </contour>
    </TTGlyph>
    <TTGlyph name="endash" xMin="-13" yMin="236" xMax="505" yMax="273">
      <contour>
        <pt x="499" y="236" on="1"/>
        <pt x="-10" y="236" on="1"/>
        <pt x="-13" y="241" on="1"/>
        <pt x="-6" y="273" on="1"/>
        <pt x="502" y="273" on="1"/>
        <pt x="505" y="269" on="1"/>
      </contour>
    </TTGlyph>
    <TTGlyph name="eng" xMin="69" yMin="-120" xMax="508" yMax="496">
      <contour>
        <pt x="448" y="36" on="1"/>
        <pt x="441" y="-17" on="0"/>
        <pt x="393" y="-87" on="0"/>
        <pt x="339" y="-120" on="1"/>
        <pt x="325" y="-99" on="1"/>
        <pt x="326" y="-92" on="1"/>
        <pt x="384" y="-52" on="0"/>
        <pt x="398" y="1" on="1"/>
        <pt x="168" y="418" on="1"/>
        <pt x="164" y="418" on="1"/>
        <pt x="131" y="160" on="1"/>
        <pt x="112" y="0" on="1"/>
        <pt x="69" y="0" on="1"/>
        <pt x="90" y="146" on="1"/>
        <pt x="132" y="494" on="1"/>
        <pt x="180" y="494" on="1"/>
        <pt x="409" y="80" on="1"/>
        <pt x="414" y="80" on="1"/>
        <pt x="465" y="493" on="1"/>
        <pt x="508" y="496" on="1"/>
        <pt x="461" y="143" on="1"/>
      </contour>
    </TTGlyph>
    <TTGlyph name="eogonek" xMin="69" yMin="-197" xMax="402" yMax="494">
      <contour>
        <pt x="148" y="274" on="1"/>
        <pt x="247" y="274" on="1"/>
        <pt x="330" y="275" on="1"/>
        <pt x="333" y="270" on="1"/>
        <pt x="324" y="234" on="1"/>
        <pt x="237" y="235" on="1"/>
        <pt x="143" y="235" on="1"/>
        <pt x="132" y="154" on="1"/>
        <pt x="119" y="39" on="1"/>
        <pt x="217" y="38" on="1"/>
        <pt x="343" y="40" on="1"/>
        <pt x="347" y="36" on="1"/>
        <pt x="338" y="0" on="1"/>
        <pt x="267" y="0" on="1"/>
        <pt x="223" y="-66" on="1"/>
        <pt x="204" y="-97" on="0"/>
        <pt x="204" y="-118" on="1"/>
        <pt x="204" y="-137" on="0"/>
        <pt x="227" y="-161" on="0"/>
        <pt x="247" y="-161" on="1"/>
        <pt x="286" y="-161" on="0"/>
        <pt x="322" y="-115" on="1"/>
        <pt x="325" y="-115" on="1"/>
        <pt x="336" y="-142" on="1"/>
        <pt x="290" y="-197" on="0"/>
        <pt x="241" y="-197" on="1"/>
        <pt x="208" y="-197" on="0"/>
        <pt x="169" y="-158" on="0"/>
        <pt x="169" y="-126" on="1"/>
        <pt x="169" y="-93" on="0"/>
        <pt x="192" y="-59" on="1"/>
        <pt x="232" y="0" on="1"/>
        <pt x="69" y="0" on="1"/>
        <pt x="89" y="150" on="1"/>
        <pt x="131" y="494" on="1"/>
        <pt x="399" y="494" on="1"/>
        <pt x="402" y="489" on="1"/>
        <pt x="393" y="453" on="1"/>
        <pt x="276" y="456" on="1"/>
        <pt x="172" y="456" on="1"/>
      </contour>
    </TTGlyph>
    <TTGlyph name="equal" xMin="34" yMin="172" xMax="463" yMax="363">
      <component glyphName="minus" x="14" y="77" flags="0x1000"/>
      <component glyphName="minus" x="-5" y="-77" flags="0x1000"/>
    </TTGlyph>
    <TTGlyph name="estimated" xMin="52" yMin="-10" xMax="786" yMax="649">
      <contour>
        <pt x="519" y="649" on="0"/>
        <pt x="687" y="560" on="0"/>
        <pt x="786" y="409" on="0"/>
        <pt x="786" y="319" on="1"/>
        <pt x="786" y="313" on="1"/>
        <pt x="190" y="313" on="1"/>
        <pt x="184" y="313" on="0"/>
        <pt x="184" y="307" on="1"/>
        <pt x="184" y="126" on="1"/>
        <pt x="184" y="115" on="0"/>
        <pt x="193" y="104" on="1"/>
        <pt x="236" y="60" on="0"/>
        <pt x="355" y="10" on="0"/>
        <pt x="420" y="10" on="1"/>
        <pt x="492" y="10" on="0"/>
        <pt x="621" y="66" on="0"/>
        <pt x="667" y="115" on="1"/>
        <pt x="707" y="115" on="1"/>
        <pt x="657" y="57" on="0"/>
        <pt x="505" y="-10" on="0"/>
        <pt x="419" y="-10" on="1"/>
        <pt x="320" y="-10" on="0"/>
        <pt x="151" y="78" on="0"/>
        <pt x="52" y="230" on="0"/>
        <pt x="52" y="319" on="1"/>
        <pt x="52" y="409" on="0"/>
        <pt x="151" y="560" on="0"/>
        <pt x="320" y="649" on="0"/>
        <pt x="419" y="649" on="1"/>
      </contour>
      <contour>
        <pt x="354" y="629" on="0"/>
        <pt x="237" y="580" on="0"/>
        <pt x="194" y="536" on="1"/>
        <pt x="184" y="526" on="0"/>
        <pt x="184" y="512" on="1"/>
        <pt x="184" y="339" on="1"/>
        <pt x="184" y="332" on="0"/>
        <pt x="190" y="332" on="1"/>
        <pt x="648" y="332" on="1"/>
        <pt x="655" y="332" on="0"/>
        <pt x="655" y="339" on="1"/>
        <pt x="655" y="516" on="1"/>
        <pt x="655" y="529" on="0"/>
        <pt x="645" y="539" on="1"/>
        <pt x="602" y="582" on="0"/>
        <pt x="485" y="629" on="0"/>
        <pt x="420" y="629" on="1"/>
      </contour>
    </TTGlyph>
    <TTGlyph name="eth" xMin="6" yMin="-4" xMax="503" yMax="498">
      <contour>
        <pt x="398" y="498" on="0"/>
        <pt x="503" y="395" on="0"/>
        <pt x="503" y="302" on="1"/>
        <pt x="503" y="159" on="0"/>
        <pt x="362" y="-4" on="0"/>
        <pt x="233" y="-4" on="1"/>
        <pt x="150" y="-4" on="0"/>
        <pt x="72" y="0" on="1"/>
        <pt x="92" y="150" on="1"/>
        <pt x="101" y="227" on="1"/>
        <pt x="9" y="227" on="1"/>
        <pt x="6" y="232" on="1"/>
        <pt x="12" y="263" on="1"/>
        <pt x="106" y="263" on="1"/>
        <pt x="134" y="494" on="1"/>
        <pt x="304" y="498" on="1"/>
      </contour>
      <contour>
        <pt x="343" y="34" on="0"/>
        <pt x="455" y="171" on="0"/>
        <pt x="455" y="294" on="1"/>
        <pt x="455" y="374" on="0"/>
        <pt x="375" y="458" on="0"/>
        <pt x="299" y="458" on="1"/>
        <pt x="234" y="458" on="0"/>
        <pt x="174" y="454" on="1"/>
        <pt x="149" y="263" on="1"/>
        <pt x="278" y="263" on="1"/>
        <pt x="280" y="258" on="1"/>
        <pt x="275" y="227" on="1"/>
        <pt x="144" y="227" on="1"/>
        <pt x="135" y="154" on="1"/>
        <pt x="122" y="39" on="1"/>
        <pt x="175" y="34" on="0"/>
        <pt x="242" y="34" on="1"/>
      </contour>
    </TTGlyph>
    <TTGlyph name="etilde" xMin="69" yMin="0" xMax="430" yMax="687">
      <component glyphName="e" x="0" y="0" flags="0x1000"/>
      <component glyphName="tilde" x="42" y="39" flags="0x1000"/>
    </TTGlyph>
    <TTGlyph name="exclam" xMin="76" yMin="-3" xMax="214" yMax="657">
      <contour>
        <pt x="145" y="207" on="1"/>
        <pt x="114" y="205" on="1"/>
        <pt x="108" y="212" on="1"/>
        <pt x="166" y="649" on="1"/>
        <pt x="172" y="655" on="1"/>
        <pt x="209" y="657" on="1"/>
        <pt x="214" y="651" on="1"/>
      </contour>
      <contour>
        <pt x="123" y="62" on="0"/>
        <pt x="140" y="44" on="0"/>
        <pt x="140" y="30" on="1"/>
        <pt x="140" y="15" on="0"/>
        <pt x="122" y="-3" on="0"/>
        <pt x="107" y="-3" on="1"/>
        <pt x="76" y="-3" on="0"/>
        <pt x="76" y="29" on="1"/>
        <pt x="76" y="44" on="0"/>
        <pt x="94" y="62" on="0"/>
        <pt x="109" y="62" on="1"/>
      </contour>
    </TTGlyph>
    <TTGlyph name="exclamdown" xMin="41" yMin="-198" xMax="179" yMax="462">
      <component glyphName="exclam" x="255" y="459" scale="-1.0" flags="0x1000"/>
    </TTGlyph>
    <TTGlyph name="f" xMin="64" yMin="0" xMax="385" yMax="494">
      <contour>
        <pt x="142" y="264" on="1"/>
        <pt x="232" y="263" on="1"/>
        <pt x="313" y="265" on="1"/>
        <pt x="316" y="260" on="1"/>
        <pt x="307" y="224" on="1"/>
        <pt x="223" y="225" on="1"/>
        <pt x="136" y="224" on="1"/>
        <pt x="127" y="154" on="1"/>
        <pt x="109" y="0" on="1"/>
        <pt x="64" y="0" on="1"/>
        <pt x="84" y="150" on="1"/>
        <pt x="126" y="494" on="1"/>
        <pt x="382" y="494" on="1"/>
        <pt x="385" y="489" on="1"/>
        <pt x="375" y="453" on="1"/>
        <pt x="262" y="456" on="1"/>
        <pt x="167" y="456" on="1"/>
      </contour>
    </TTGlyph>
</ttFont>
